{
.appVersion = "1270";
DisplayStrings = (
L
);
classes = (
{
code = "a b c d e g h i j k l m n o p q r s t u v w x y z\012agrave aacute acircumflex atilde adieresis aring ae\012ccedilla egrave eacute ecircumflex edieresis igrave\012iacute icircumflex idieresis eth ntilde ograve\012oacute ocircumflex otilde odieresis oslash ugrave\012uacute ucircumflex udieresis yacute thorn ydieresis\012germandbls amacron emacron imacron omacron umacron\012abreve cdotaccent dcaron ebreve eogonek gdotaccent\012ibreve dotlessi lslash obreve oe tcaron ubreve\012longs uni0195 wynn uni01E3 uni01EB uni021D\012uni0233 uni0237 uni1D79 uni1E8F uni1E9C uniA741\012uniA751 uniA753 uniA757 uniA75D etabbrev uniA76F\012uniA77A uniA77C uniA783 uniA785 uniA787\012# uniFB00 uniFB01 uniFB02 uniFB03 uniFB04\012uniFB05 uniFB06\012# f_f_udieresis f_thorn f_thorn.nordic f_eth.nordic\012# f_j f_udieresis f_odieresis\012";
name = AllLowerCaseexclf;
},
{
code = "agrave acircumflex atilde adieresis aring egrave\012ecircumflex edieresis igrave iacute icircumflex\012idieresis ograve ocircumflex otilde\012ugrave ucircumflex ydieresis amacron\012abreve emacron ebreve imacron ibreve omacron\012obreve umacron ubreve uni01E3\012";
name = HighDiacritics;
},
{
code = "f uniFB00";
name = LowerCase_f;
},
{
code = "acutecomb gravecomb tildecomb circumflexcomb macroncomb\012uni0305 brevecomb dotaccentcomb dieresiscomb ringcomb caroncomb\012uni035B uni1DD1";
name = CombDiacritics;
},
{
code = "zero one two three four five six seven eight nine dollar";
name = FIGURES_LINING_TABULAR;
},
{
code = "zero.tosf one.tosf two.tosf three.tosf four.tosf five.tosf six.tosf seven.tosf eight.tosf nine.tosf dollar.tosf";
name = FIGURES_OLDSTYLE_TABULAR;
},
{
code = "zero.lf one.lf two.lf three.lf four.lf five.lf six.lf seven.lf eight.lf nine.lf dollar.lf";
name = FIGURES_LINING;
},
{
code = "zero.osf one.osf two.osf three.osf four.osf five.osf six.osf seven.osf eight.osf nine.osf dollar.osf";
name = FIGURES_OLDSTYLE;
},
{

glyphs = (
{
glyphname = A;
lastChange = "2019-12-24 04:44:14 +0000";
layers = (
{
anchors = (
{
name = bottom;
position = "{658, 0}";
},
{
name = ogonek;
position = "{1191, 10}";
},
{
name = top;
position = "{649, 1358}";
},
{
name = us;
position = "{1192, 848}";
}
);
layerId = "C5B93EC9-9EB6-4975-AE33-1741B73E6074";
paths = (
{
closed = 1;
nodes = (
"1181 20 LINE",
"762 1222 LINE SMOOTH",
"743 1276 OFFCURVE",
"727 1331 OFFCURVE",
"714 1385 CURVE",
"659 1385 LINE",
"635 1350 OFFCURVE",
"534 1276 OFFCURVE",
"488 1259 CURVE",
"488 1202 LINE",
"532 1193 OFFCURVE",
"590 1174 OFFCURVE",
"657 975 CURVE SMOOTH",
"977 20 LINE"
);
},
{
closed = 1;
nodes = (
"255 20 LINE",
"631 1205 LINE",
"570 1234 LINE",
"163 20 LINE"
);
},
{
closed = 1;
nodes = (
"928 454 LINE",
"902 515 LINE",
"375 515 LINE",
"349 454 LINE"
);
},
{
closed = 1;
nodes = (
"1302 0 LINE",
"1302 51 LINE",
"1075 76 LINE",
"803 51 LINE",
"803 0 LINE"
);
},
{
closed = 1;
nodes = (
"435 0 LINE",
"435 51 LINE",
"220 76 LINE",
"38 51 LINE",
"38 0 LINE"
);
}
);
width = 1341;
},
{
anchors = (
{
name = bottom;
position = "{624, 0}";
},
{
name = ogonek;
position = "{1140, 10}";
},
{
name = top;
position = "{620, 1358}";
},
{
name = us;
position = "{1067, 848}";
}
);
layerId = "5F1B95D2-E37F-4604-99C9-24FF8B5B0DBF";
paths = (
{
closed = 1;
nodes = (
"1109 22 LINE",
"692 1222 LINE SMOOTH",
"673 1276 OFFCURVE",
"657 1331 OFFCURVE",
"644 1385 CURVE",
"614 1385 LINE",
"600 1354 OFFCURVE",
"544 1278 OFFCURVE",
"507 1259 CURVE",
"507 1217 LINE",
"551 1208 OFFCURVE",
"604 1192 OFFCURVE",
"670 994 CURVE SMOOTH",
"995 22 LINE"
);
},
{
closed = 1;
nodes = (
"233 22 LINE",
"609 1205 LINE",
"568 1234 LINE",
"163 22 LINE"
);
},
{
closed = 1;
nodes = (
"896 466 LINE",
"874 508 LINE",
"364 508 LINE",
"343 466 LINE"
);
},
{
closed = 1;
nodes = (
"1240 0 LINE",
"1240 40 LINE",
"1058 60 LINE",
"831 40 LINE",
"831 0 LINE"
);
},
{
closed = 1;
nodes = (
"397 0 LINE",
"397 40 LINE",
"198 60 LINE",
"37 40 LINE",
"37 0 LINE"
);
}
);
width = 1278;
},
{
anchors = (
{
name = bottom;
position = "{726, 0}";
},
{
name = ogonek;
position = "{1293, 10}";
},
{
name = top;
position = "{707, 1358}";
},
{
name = us;
position = "{1442, 848}";
}
);
layerId = "D7B0979E-F273-40C0-A245-443BBF311E2D";
paths = (
{
closed = 1;
nodes = (
"1313 43 LINE",
"902 1222 LINE SMOOTH",
"881 1276 OFFCURVE",
"867 1331 OFFCURVE",
"854 1385 CURVE",
"749 1385 LINE",
"705 1342 OFFCURVE",
"514 1272 OFFCURVE",
"450 1259 CURVE",
"450 1172 LINE",
"494 1163 OFFCURVE",
"562 1138 OFFCURVE",
"631 937 CURVE SMOOTH",
"929 43 LINE"
);
},
{
closed = 1;
nodes = (
"308 43 LINE",
"675 1205 LINE",
"574 1234 LINE",
"172 43 LINE"
);
},
{
closed = 1;
nodes = (
"992 424 LINE",
"958 534 LINE",
"397 534 LINE",
"361 424 LINE"
);
},
{
closed = 1;
nodes = (
"1426 0 LINE",
"1426 86 LINE",
"1109 116 LINE",
"747 86 LINE",
"747 0 LINE"
);
},
{
closed = 1;
nodes = (
"511 0 LINE",
"511 86 LINE",
"264 116 LINE",
"40 86 LINE",
"40 0 LINE"
);
}
);
width = 1467;
},
{
anchors = (
{
name = bottom;
position = "{700, 0}";
},
{
name = ogonek;
position = "{1270, 10}";
},
{
name = top;
position = "{675, 1358}";
},
{
name = us;
position = "{1304, 848}";
}
);
layerId = "263E301B-CB05-4AC6-937D-92FF8A6DC5EF";
paths = (
{
closed = 1;
nodes = (
"1211 30 LINE",
"782 1222 LINE SMOOTH",
"762 1276 OFFCURVE",
"746 1331 OFFCURVE",
"732 1385 CURVE",
"671 1385 LINE",
"645 1347 OFFCURVE",
"546 1280 OFFCURVE",
"493 1259 CURVE",
"493 1200 LINE",
"539 1196 OFFCURVE",
"600 1181 OFFCURVE",
"673 974 CURVE SMOOTH",
"999 30 LINE"
);
},
{
closed = 1;
nodes = (
"258 30 LINE",
"643 1205 LINE",
"580 1234 LINE",
"162 30 LINE"
);
},
{
closed = 1;
nodes = (
"954 443 LINE",
"927 524 LINE",
"380 524 LINE",
"354 443 LINE"
);
},
{
closed = 1;
nodes = (
"1341 0 LINE",
"1341 59 LINE",
"1107 89 LINE",
"814 59 LINE",
"814 0 LINE"
);
},
{
closed = 1;
nodes = (
"456 0 LINE",
"456 59 LINE",
"221 89 LINE",
"35 59 LINE",
"35 0 LINE"
);
}
);
width = 1397;
},
{
anchors = (
{
name = bottom;
position = "{594, 0}";
},
{
name = ogonek;
position = "{1090, 10}";
},
{
name = top;
position = "{601, 1358}";
},
{
name = us;
position = "{1055, 848}";
}
);
layerId = "6B146B31-FE8A-4408-B9B5-0C900DD2277D";
paths = (
{
closed = 1;
nodes = (
"1119 28 LINE",
"719 1222 LINE SMOOTH",
"701 1276 OFFCURVE",
"685 1331 OFFCURVE",
"672 1385 CURVE",
"624 1385 LINE",
"604 1354 OFFCURVE",
"502 1272 OFFCURVE",
"463 1259 CURVE",
"463 1205 LINE",
"506 1191 OFFCURVE",
"560 1167 OFFCURVE",
"621 976 CURVE SMOOTH",
"928 28 LINE"
);
},
{
closed = 1;
nodes = (
"236 28 LINE",
"597 1205 LINE",
"540 1234 LINE",
"149 28 LINE"
);
},
{
closed = 1;
nodes = (
"881 449 LINE",
"856 520 LINE",
"349 520 LINE",
"324 449 LINE"
);
},
{
closed = 1;
nodes = (
"1241 0 LINE",
"1241 56 LINE",
"1023 86 LINE",
"773 56 LINE",
"773 0 LINE"
);
},
{
closed = 1;
nodes = (
"391 0 LINE",
"391 56 LINE",
"198 86 LINE",
"21 56 LINE",
"21 0 LINE"
);
}
);
width = 1261;
},
{
anchors = (
{
name = bottom;
position = "{669, 0}";
},
{
name = ogonek;
position = "{1218, 10}";
},
{
name = top;
position = "{650, 1358}";
},
{
name = us;
position = "{1380, 848}";
}
);
layerId = "5E933A09-8E8D-4B36-A510-2D2E8DB125C4";
paths = (
{
closed = 1;
nodes = (
"1215 43 LINE",
"821 1222 LINE SMOOTH",
"799 1288 OFFCURVE",
"788 1328 OFFCURVE",
"773 1385 CURVE",
"667 1385 LINE",
"622 1342 OFFCURVE",
"450 1271 OFFCURVE",
"388 1259 CURVE",
"388 1171 LINE",
"444 1157 OFFCURVE",
"503 1117 OFFCURVE",
"563 932 CURVE SMOOTH",
"849 43 LINE"
);
},
{
closed = 1;
nodes = (
"261 43 LINE",
"615 1205 LINE",
"525 1234 LINE",
"139 43 LINE"
);
},
{
closed = 1;
nodes = (
"927 423 LINE",
"892 536 LINE",
"352 536 LINE",
"315 423 LINE"
);
},
{
closed = 1;
nodes = (
"1329 0 LINE",
"1329 87 LINE",
"1037 117 LINE",
"666 87 LINE",
"666 0 LINE"
);
},
{
closed = 1;
nodes = (
"474 0 LINE",
"474 87 LINE",
"213 117 LINE",
"12 87 LINE",
"12 0 LINE"
);
}
);
width = 1341;
}
);
leftKerningGroup = A;
note = A;
rightKerningGroup = A;
unicode = 0041;
},
{
glyphname = Aring;
lastChange = "2019-12-24 04:44:35 +0000";
layers = (
{
anchors = (
{
name = top;
position = "{1080, 1358}";
}
);
layerId = "C5B93EC9-9EB6-4975-AE33-1741B73E6074";
paths = (
{
closed = 1;
nodes = (
"928 454 LINE",
"901 515 LINE",
"375 515 LINE",
"350 454 LINE"
);
},
{
closed = 1;
nodes = (
"765 1229 OFFCURVE",
"863 1310 OFFCURVE",
"863 1425 CURVE SMOOTH",
"863 1530 OFFCURVE",
"773 1619 OFFCURVE",
"653 1619 CURVE SMOOTH",
"539 1619 OFFCURVE",
"442 1539 OFFCURVE",
"442 1425 CURVE SMOOTH",
"442 1313 OFFCURVE",
"530 1229 OFFCURVE",
"653 1229 CURVE SMOOTH"
);
},
{
closed = 1;
nodes = (
"594 1297 OFFCURVE",
"551 1350 OFFCURVE",
"551 1425 CURVE SMOOTH",
"551 1489 OFFCURVE",
"591 1552 OFFCURVE",
"653 1552 CURVE SMOOTH",
"711 1552 OFFCURVE",
"756 1501 OFFCURVE",
"756 1425 CURVE SMOOTH",
"756 1353 OFFCURVE",
"716 1297 OFFCURVE",
"653 1297 CURVE SMOOTH"
);
},
{
closed = 1;
nodes = (
"1302 0 LINE",
"1302 51 LINE",
"1075 76 LINE",
"803 51 LINE",
"803 0 LINE"
);
},
{
closed = 1;
nodes = (
"435 0 LINE",
"435 51 LINE",
"220 76 LINE",
"38 51 LINE",
"38 0 LINE"
);
},
{
closed = 1;
nodes = (
"255 20 LINE",
"606 1126 LINE",
"978 20 LINE",
"1181 20 LINE",
"746 1271 LINE",
"582 1271 LINE",
"163 20 LINE"
);
}
);
width = 1341;
},
{
anchors = (
{
name = top;
position = "{1007, 1358}";
}
);
layerId = "5F1B95D2-E37F-4604-99C9-24FF8B5B0DBF";
paths = (
{
closed = 1;
nodes = (
"895 466 LINE",
"873 508 LINE",
"363 508 LINE",
"343 466 LINE"
);
},
{
closed = 1;
nodes = (
"704 1235 OFFCURVE",
"789 1303 OFFCURVE",
"789 1409 CURVE SMOOTH",
"789 1498 OFFCURVE",
"714 1582 OFFCURVE",
"619 1582 CURVE SMOOTH",
"532 1582 OFFCURVE",
"446 1513 OFFCURVE",
"446 1409 CURVE SMOOTH",
"446 1308 OFFCURVE",
"514 1235 OFFCURVE",
"619 1235 CURVE SMOOTH"
);
},
{
closed = 1;
nodes = (
"555 1290 OFFCURVE",
"507 1339 OFFCURVE",
"507 1409 CURVE SMOOTH",
"507 1462 OFFCURVE",
"546 1524 OFFCURVE",
"619 1524 CURVE SMOOTH",
"683 1524 OFFCURVE",
"729 1484 OFFCURVE",
"729 1409 CURVE SMOOTH",
"729 1345 OFFCURVE",
"689 1290 OFFCURVE",
"619 1290 CURVE SMOOTH"
);
},
{
closed = 1;
nodes = (
"1240 0 LINE",
"1240 40 LINE",
"1058 60 LINE",
"831 40 LINE",
"831 0 LINE"
);
},
{
closed = 1;
nodes = (
"397 0 LINE",
"397 40 LINE",
"198 60 LINE",
"37 40 LINE",
"37 0 LINE"
);
},
{
closed = 1;
nodes = (
"233 22 LINE",
"605 1195 LINE",
"995 22 LINE",
"1109 22 LINE",
"678 1271 LINE",
"581 1271 LINE",
"164 22 LINE"
);
}
);
width = 1278;
},
{
anchors = (
{
name = top;
position = "{1226, 1358}";
}
);
layerId = "D7B0979E-F273-40C0-A245-443BBF311E2D";
paths = (
{
closed = 1;
nodes = (
"994 424 LINE",
"957 534 LINE",
"399 534 LINE",
"364 424 LINE"
);
},
{
closed = 1;
nodes = (
"887 1217 OFFCURVE",
"1011 1324 OFFCURVE",
"1011 1457 CURVE SMOOTH",
"1011 1594 OFFCURVE",
"891 1693 OFFCURVE",
"721 1693 CURVE SMOOTH",
"553 1693 OFFCURVE",
"434 1591 OFFCURVE",
"434 1457 CURVE SMOOTH",
"434 1323 OFFCURVE",
"562 1217 OFFCURVE",
"721 1217 CURVE SMOOTH"
);
},
{
closed = 1;
nodes = (
"672 1311 OFFCURVE",
"639 1372 OFFCURVE",
"639 1457 CURVE SMOOTH",
"639 1543 OFFCURVE",
"681 1608 OFFCURVE",
"721 1608 CURVE SMOOTH",
"767 1608 OFFCURVE",
"810 1535 OFFCURVE",
"810 1457 CURVE SMOOTH",
"810 1369 OFFCURVE",
"770 1311 OFFCURVE",
"721 1311 CURVE SMOOTH"
);
},
{
closed = 1;
nodes = (
"1426 0 LINE",
"1426 86 LINE",
"1109 116 LINE",
"747 86 LINE",
"747 0 LINE"
);
},
{
closed = 1;
nodes = (
"511 0 LINE",
"511 86 LINE",
"264 116 LINE",
"40 86 LINE",
"40 0 LINE"
);
},
{
closed = 1;
nodes = (
"308 43 LINE",
"608 988 LINE",
"932 43 LINE",
"1313 43 LINE",
"882 1271 LINE",
"584 1271 LINE",
"170 43 LINE"
);
}
);
width = 1467;
},
{
anchors = (
{
name = top;
position = "{1106, 1358}";
}
);
layerId = "263E301B-CB05-4AC6-937D-92FF8A6DC5EF";
paths = (
{
closed = 1;
nodes = (
"955 443 LINE",
"926 524 LINE",
"382 524 LINE",
"357 443 LINE"
);
},
{
closed = 1;
nodes = (
"780 1229 OFFCURVE",
"878 1310 OFFCURVE",
"878 1426 CURVE SMOOTH",
"878 1531 OFFCURVE",
"788 1621 OFFCURVE",
"665 1621 CURVE SMOOTH",
"550 1621 OFFCURVE",
"453 1540 OFFCURVE",
"453 1426 CURVE SMOOTH",
"453 1313 OFFCURVE",
"542 1229 OFFCURVE",
"665 1229 CURVE SMOOTH"
);
},
{
closed = 1;
nodes = (
"608 1297 OFFCURVE",
"564 1351 OFFCURVE",
"564 1426 CURVE SMOOTH",
"564 1490 OFFCURVE",
"605 1553 OFFCURVE",
"665 1553 CURVE SMOOTH",
"723 1553 OFFCURVE",
"769 1502 OFFCURVE",
"769 1426 CURVE SMOOTH",
"769 1353 OFFCURVE",
"728 1297 OFFCURVE",
"665 1297 CURVE SMOOTH"
);
},
{
closed = 1;
nodes = (
"1341 0 LINE",
"1341 59 LINE",
"1107 89 LINE",
"814 59 LINE",
"814 0 LINE"
);
},
{
closed = 1;
nodes = (
"456 0 LINE",
"456 59 LINE",
"221 89 LINE",
"35 59 LINE",
"35 0 LINE"
);
},
{
closed = 1;
nodes = (
"258 30 LINE",
"618 1126 LINE",
"1000 30 LINE",
"1211 30 LINE",
"763 1271 LINE",
"592 1271 LINE",
"161 30 LINE"
);
}
);
width = 1397;
},
{
anchors = (
{
name = top;
position = "{1030, 1358}";
}
);
layerId = "6B146B31-FE8A-4408-B9B5-0C900DD2277D";
paths = (
{
closed = 1;
nodes = (
"880 449 LINE",
"855 520 LINE",
"347 520 LINE",
"323 449 LINE"
);
},
{
closed = 1;
nodes = (
"728 1230 OFFCURVE",
"825 1310 OFFCURVE",
"825 1423 CURVE SMOOTH",
"825 1527 OFFCURVE",
"735 1615 OFFCURVE",
"619 1615 CURVE SMOOTH",
"507 1615 OFFCURVE",
"411 1536 OFFCURVE",
"411 1423 CURVE SMOOTH",
"411 1312 OFFCURVE",
"497 1230 OFFCURVE",
"619 1230 CURVE SMOOTH"
);
},
{
closed = 1;
nodes = (
"559 1297 OFFCURVE",
"515 1349 OFFCURVE",
"515 1423 CURVE SMOOTH",
"515 1486 OFFCURVE",
"555 1549 OFFCURVE",
"619 1549 CURVE SMOOTH",
"677 1549 OFFCURVE",
"721 1500 OFFCURVE",
"721 1423 CURVE SMOOTH",
"721 1352 OFFCURVE",
"682 1297 OFFCURVE",
"619 1297 CURVE SMOOTH"
);
},
{
closed = 1;
nodes = (
"1241 0 LINE",
"1241 56 LINE",
"1023 86 LINE",
"773 56 LINE",
"773 0 LINE"
);
},
{
closed = 1;
nodes = (
"391 0 LINE",
"391 56 LINE",
"198 86 LINE",
"21 56 LINE",
"21 0 LINE"
);
},
{
closed = 1;
nodes = (
"236 28 LINE",
"574 1130 LINE",
"929 28 LINE",
"1119 28 LINE",
"705 1271 LINE",
"552 1271 LINE",
"151 28 LINE"
);
}
);
width = 1261;
},
{
anchors = (
{
name = top;
position = "{1163, 1358}";
}
);
layerId = "5E933A09-8E8D-4B36-A510-2D2E8DB125C4";
paths = (
{
closed = 1;
nodes = (
"929 423 LINE",
"893 536 LINE",
"353 536 LINE",
"316 423 LINE"
);
},
{
closed = 1;
nodes = (
"816 1217 OFFCURVE",
"939 1327 OFFCURVE",
"939 1460 CURVE SMOOTH",
"939 1600 OFFCURVE",
"817 1700 OFFCURVE",
"653 1700 CURVE SMOOTH",
"484 1700 OFFCURVE",
"365 1594 OFFCURVE",
"365 1460 CURVE SMOOTH",
"365 1323 OFFCURVE",
"494 1217 OFFCURVE",
"653 1217 CURVE SMOOTH"
);
},
{
closed = 1;
nodes = (
"606 1314 OFFCURVE",
"573 1373 OFFCURVE",
"573 1460 CURVE SMOOTH",
"573 1546 OFFCURVE",
"614 1613 OFFCURVE",
"653 1613 CURVE SMOOTH",
"693 1613 OFFCURVE",
"733 1538 OFFCURVE",
"733 1460 CURVE SMOOTH",
"733 1371 OFFCURVE",
"698 1314 OFFCURVE",
"653 1314 CURVE SMOOTH"
);
},
{
closed = 1;
nodes = (
"1329 0 LINE",
"1329 87 LINE",
"1037 117 LINE",
"652 87 LINE",
"652 0 LINE"
);
},
{
closed = 1;
nodes = (
"529 0 LINE",
"529 87 LINE",
"232 117 LINE",
"12 87 LINE",
"12 0 LINE"
);
},
{
closed = 1;
nodes = (
"261 43 LINE",
"546 976 LINE",
"850 43 LINE",
"1216 43 LINE",
"800 1271 LINE",
"535 1271 LINE",
"136 43 LINE"
);
}
);
width = 1341;
}
);
leftKerningGroup = A;
leftMetricsKey = "=A";
note = Aring;
rightKerningGroup = A;
rightMetricsKey = "=A";
unicode = 00C5;
},
{
glyphname = AE;
lastChange = "2019-12-24 04:45:24 +0000";
layers = (
{
anchors = (
{
name = bottom;
position = "{1071, 0}";
},
{
name = top;
position = "{1325, 1358}";
},
{
name = us;
position = "{2103, 848}";
}
);
layerId = "C5B93EC9-9EB6-4975-AE33-1741B73E6074";
paths = (
{
closed = 1;
nodes = (
"1934 0 LINE",
"1934 346 LINE",
"1898 346 LINE",
"1807 107 LINE SMOOTH",
"1791 66 OFFCURVE",
"1739 51 OFFCURVE",
"1684 51 CURVE SMOOTH",
"1098 51 LINE",
"1172 32 LINE",
"1172 1307 LINE",
"1622 1307 LINE SMOOTH",
"1697 1307 OFFCURVE",
"1729 1293 OFFCURVE",
"1745 1249 CURVE SMOOTH",
"1834 1007 LINE",
"1870 1007 LINE",
"1870 1358 LINE",
"731 1358 LINE",
"731 1307 LINE",
"830 1307 OFFCURVE",
"928 1280 OFFCURVE",
"983 1226 CURVE",
"983 31 LINE",
"1059 76 LINE",
"794 51 LINE",
"794 0 LINE"
);
},
{
closed = 1;
nodes = (
"521 0 LINE",
"521 51 LINE",
"233 76 LINE",
"38 51 LINE",
"38 0 LINE"
);
},
{
closed = 1;
nodes = (
"260 20 LINE",
"980 1279 LINE",
"913 1322 LINE",
"155 20 LINE"
);
},
{
closed = 1;
nodes = (
"1576 610 LINE",
"1576 671 LINE",
"592 671 LINE",
"553 610 LINE"
);
},
{
closed = 1;
nodes = (
"1605 419 LINE",
"1605 878 LINE",
"1554 878 LINE",
"1554 419 LINE"
);
}
);
width = 1965;
},
{
anchors = (
{
name = bottom;
position = "{1020, 0}";
},
{
name = top;
position = "{1284, 1358}";
},
{
name = us;
position = "{2030, 848}";
}
);
layerId = "5F1B95D2-E37F-4604-99C9-24FF8B5B0DBF";
paths = (
{
closed = 1;
nodes = (
"1808 0 LINE",
"1808 340 LINE",
"1787 340 LINE",
"1705 96 LINE SMOOTH",
"1690 52 OFFCURVE",
"1645 40 OFFCURVE",
"1582 40 CURVE SMOOTH",
"1009 40 LINE",
"1051 30 LINE",
"1051 1318 LINE",
"1530 1318 LINE SMOOTH",
"1605 1318 OFFCURVE",
"1639 1303 OFFCURVE",
"1653 1254 CURVE SMOOTH",
"1719 1014 LINE",
"1739 1014 LINE",
"1739 1358 LINE",
"743 1358 LINE",
"743 1297 LINE",
"821 1297 OFFCURVE",
"898 1281 OFFCURVE",
"948 1238 CURVE",
"948 21 LINE",
"991 60 LINE",
"746 40 LINE",
"746 0 LINE"
);
},
{
closed = 1;
nodes = (
"474 0 LINE",
"474 40 LINE",
"205 60 LINE",
"37 40 LINE",
"37 0 LINE"
);
},
{
closed = 1;
nodes = (
"231 18 LINE",
"955 1300 LINE",
"901 1330 LINE",
"146 18 LINE"
);
},
{
closed = 1;
nodes = (
"1483 612 LINE",
"1483 672 LINE",
"564 672 LINE",
"535 612 LINE"
);
},
{
closed = 1;
nodes = (
"1515 422 LINE",
"1515 874 LINE",
"1454 874 LINE",
"1454 422 LINE"
);
}
);
width = 1844;
},
{
anchors = (
{
name = bottom;
position = "{1173, 0}";
},
{
name = top;
position = "{1407, 1358}";
},
{
name = us;
position = "{2249, 848}";
}
);
layerId = "D7B0979E-F273-40C0-A245-443BBF311E2D";
paths = (
{
closed = 1;
nodes = (
"2186 0 LINE",
"2186 358 LINE",
"2120 358 LINE",
"2011 167 LINE SMOOTH",
"1992 135 OFFCURVE",
"1927 111 OFFCURVE",
"1888 111 CURVE SMOOTH",
"1276 111 LINE",
"1414 36 LINE",
"1414 1247 LINE",
"1806 1247 LINE SMOOTH",
"1881 1247 OFFCURVE",
"1905 1235 OFFCURVE",
"1929 1201 CURVE SMOOTH",
"2064 993 LINE",
"2132 993 LINE",
"2132 1358 LINE",
"707 1358 LINE",
"707 1258 LINE",
"848 1258 OFFCURVE",
"988 1209 OFFCURVE",
"1053 1133 CURVE",
"1053 51 LINE",
"1195 137 LINE",
"890 86 LINE",
"890 0 LINE"
);
},
{
closed = 1;
nodes = (
"615 0 LINE",
"615 86 LINE",
"289 116 LINE",
"40 86 LINE",
"40 0 LINE"
);
},
{
closed = 1;
nodes = (
"336 43 LINE",
"1030 1237 LINE",
"937 1306 LINE",
"191 43 LINE"
);
},
{
closed = 1;
nodes = (
"1762 582 LINE",
"1762 693 LINE",
"648 693 LINE",
"589 582 LINE"
);
},
{
closed = 1;
nodes = (
"1836 413 LINE",
"1836 886 LINE",
"1700 886 LINE",
"1700 413 LINE"
);
}
);
width = 2205;
},
{
anchors = (
{
name = bottom;
position = "{1100, 0}";
},
{
name = top;
position = "{1354, 1358}";
},
{
name = us;
position = "{2154, 848}";
}
);
layerId = "263E301B-CB05-4AC6-937D-92FF8A6DC5EF";
paths = (
{
closed = 1;
nodes = (
"2013 0 LINE",
"2013 346 LINE",
"1975 346 LINE",
"1893 139 LINE SMOOTH",
"1880 107 OFFCURVE",
"1818 83 OFFCURVE",
"1770 83 CURVE SMOOTH",
"1130 83 LINE",
"1210 31 LINE",
"1210 1275 LINE",
"1701 1275 LINE SMOOTH",
"1778 1275 OFFCURVE",
"1809 1261 OFFCURVE",
"1824 1224 CURVE SMOOTH",
"1911 1003 LINE",
"1949 1003 LINE",
"1949 1358 LINE",
"758 1358 LINE",
"758 1278 LINE",
"864 1278 OFFCURVE",
"962 1250 OFFCURVE",
"1011 1191 CURVE",
"1011 29 LINE",
"1092 100 LINE",
"824 59 LINE",
"824 0 LINE"
);
},
{
closed = 1;
nodes = (
"523 0 LINE",
"523 59 LINE",
"232 89 LINE",
"35 59 LINE",
"35 0 LINE"
);
},
{
closed = 1;
nodes = (
"263 30 LINE",
"1008 1275 LINE",
"939 1322 LINE",
"154 30 LINE"
);
},
{
closed = 1;
nodes = (
"1650 599 LINE",
"1650 682 LINE",
"610 682 LINE",
"571 599 LINE"
);
},
{
closed = 1;
nodes = (
"1699 416 LINE",
"1699 880 LINE",
"1609 880 LINE",
"1609 416 LINE"
);
}
);
width = 2049;
},
{
anchors = (
{
name = bottom;
position = "{1019, 0}";
},
{
name = top;
position = "{1273, 1358}";
},
{
name = us;
position = "{2029, 848}";
}
);
layerId = "6B146B31-FE8A-4408-B9B5-0C900DD2277D";
paths = (
{
closed = 1;
nodes = (
"1829 0 LINE",
"1829 345 LINE",
"1796 345 LINE",
"1697 126 LINE SMOOTH",
"1675 77 OFFCURVE",
"1635 70 OFFCURVE",
"1574 70 CURVE SMOOTH",
"1042 70 LINE",
"1108 32 LINE",
"1108 1288 LINE",
"1519 1288 LINE SMOOTH",
"1591 1288 OFFCURVE",
"1621 1273 OFFCURVE",
"1642 1222 CURVE SMOOTH",
"1732 1011 LINE",
"1765 1011 LINE",
"1765 1358 LINE",
"685 1358 LINE",
"685 1290 LINE",
"775 1290 OFFCURVE",
"872 1265 OFFCURVE",
"933 1216 CURVE",
"933 32 LINE",
"1003 98 LINE",
"742 56 LINE",
"742 0 LINE"
);
},
{
closed = 1;
nodes = (
"496 0 LINE",
"496 56 LINE",
"212 86 LINE",
"21 56 LINE",
"21 0 LINE"
);
},
{
closed = 1;
nodes = (
"248 28 LINE",
"930 1283 LINE",
"866 1322 LINE",
"147 28 LINE"
);
},
{
closed = 1;
nodes = (
"1478 606 LINE",
"1478 676 LINE",
"552 676 LINE",
"514 606 LINE"
);
},
{
closed = 1;
nodes = (
"1520 421 LINE",
"1520 875 LINE",
"1439 875 LINE",
"1439 421 LINE"
);
}
);
width = 1860;
},
{
anchors = (
{
name = bottom;
position = "{1038, 0}";
},
{
name = top;
position = "{1245, 1358}";
},
{
name = us;
position = "{2017, 848}";
}
);
layerId = "5E933A09-8E8D-4B36-A510-2D2E8DB125C4";
paths = (
{
closed = 1;
nodes = (
"1947 0 LINE",
"1947 358 LINE",
"1883 358 LINE",
"1782 169 LINE SMOOTH",
"1764 135 OFFCURVE",
"1721 113 OFFCURVE",
"1671 113 CURVE SMOOTH",
"1141 113 LINE",
"1257 36 LINE",
"1257 1245 LINE",
"1594 1245 LINE SMOOTH",
"1670 1245 OFFCURVE",
"1687 1229 OFFCURVE",
"1705 1200 CURVE SMOOTH",
"1834 992 LINE",
"1899 992 LINE",
"1899 1358 LINE",
"613 1358 LINE",
"613 1256 LINE",
"745 1256 OFFCURVE",
"875 1201 OFFCURVE",
"926 1127 CURVE",
"926 54 LINE",
"1062 142 LINE",
"782 87 LINE",
"782 0 LINE"
);
},
{
closed = 1;
nodes = (
"524 0 LINE",
"524 87 LINE",
"232 117 LINE",
"12 87 LINE",
"12 0 LINE"
);
},
{
closed = 1;
nodes = (
"268 43 LINE",
"894 1233 LINE",
"821 1303 LINE",
"146 43 LINE"
);
},
{
closed = 1;
nodes = (
"1547 580 LINE",
"1547 693 LINE",
"556 693 LINE",
"499 580 LINE"
);
},
{
closed = 1;
nodes = (
"1618 412 LINE",
"1618 885 LINE",
"1487 885 LINE",
"1487 412 LINE"
);
}
);
width = 1965;
}
);
leftKerningGroup = AE;
leftMetricsKey = A;
note = AE;
rightKerningGroup = E;
rightMetricsKey = E;
unicode = 00C6;
},
{
glyphname = B;
lastChange = "2019-12-24 04:23:57 +0000";
layers = (
{
anchors = (
{
name = bottom;
position = "{593, 0}";
},
{
name = top;
position = "{593, 1358}";
},
{
name = us;
position = "{1243, 848}";
}
);
layerId = "C5B93EC9-9EB6-4975-AE33-1741B73E6074";
paths = (
{
closed = 1;
nodes = (
"637 0 LINE SMOOTH",
"1040 0 OFFCURVE",
"1173 146 OFFCURVE",
"1173 351 CURVE SMOOTH",
"1173 533 OFFCURVE",
"1069 669 OFFCURVE",
"832 732 CURVE",
"1015 795 OFFCURVE",
"1079 887 OFFCURVE",
"1079 1031 CURVE SMOOTH",
"1079 1242 OFFCURVE",
"905 1358 OFFCURVE",
"635 1358 CURVE SMOOTH",
"251 1358 LINE",
"251 0 LINE"
);
},
{
closed = 1;
nodes = (
"353 0 LINE",
"353 76 LINE",
"62 51 LINE",
"62 0 LINE"
);
},
{
closed = 1;
nodes = (
"434 693 LINE",
"568 693 OFFCURVE",
"652 686 OFFCURVE",
"713 667 CURVE SMOOTH",
"867 618 OFFCURVE",
"960 526 OFFCURVE",
"960 377 CURVE SMOOTH",
"960 159 OFFCURVE",
"863 51 OFFCURVE",
"588 51 CURVE SMOOTH",
"434 51 LINE"
);
},
{
closed = 1;
nodes = (
"353 1358 LINE",
"62 1358 LINE",
"62 1307 LINE",
"353 1282 LINE"
);
},
{
closed = 1;
nodes = (
"434 1307 LINE",
"749 1305 OFFCURVE",
"873 1233 OFFCURVE",
"873 1019 CURVE SMOOTH",
"873 818 OFFCURVE",
"746 744 OFFCURVE",
"434 744 CURVE"
);
}
);
width = 1255;
},
{
anchors = (
{
name = bottom;
position = "{558, 0}";
},
{
name = top;
position = "{558, 1358}";
},
{
name = us;
position = "{1192, 848}";
}
);
layerId = "5F1B95D2-E37F-4604-99C9-24FF8B5B0DBF";
paths = (
{
closed = 1;
nodes = (
"591 0 LINE SMOOTH",
"998 0 OFFCURVE",
"1077 163 OFFCURVE",
"1077 345 CURVE SMOOTH",
"1077 530 OFFCURVE",
"988 665 OFFCURVE",
"738 730 CURVE",
"929 793 OFFCURVE",
"979 883 OFFCURVE",
"979 1036 CURVE SMOOTH",
"979 1253 OFFCURVE",
"821 1358 OFFCURVE",
"590 1358 CURVE SMOOTH",
"272 1358 LINE",
"272 0 LINE"
);
},
{
closed = 1;
nodes = (
"337 0 LINE",
"337 60 LINE",
"72 40 LINE",
"72 0 LINE"
);
},
{
closed = 1;
nodes = (
"371 697 LINE",
"536 697 OFFCURVE",
"628 691 OFFCURVE",
"697 669 CURVE SMOOTH",
"869 614 OFFCURVE",
"967 518 OFFCURVE",
"967 377 CURVE SMOOTH",
"967 154 OFFCURVE",
"853 42 OFFCURVE",
"566 42 CURVE SMOOTH",
"371 42 LINE"
);
},
{
closed = 1;
nodes = (
"337 1358 LINE",
"72 1358 LINE",
"72 1318 LINE",
"337 1298 LINE"
);
},
{
closed = 1;
nodes = (
"371 1316 LINE",
"733 1316 OFFCURVE",
"871 1257 OFFCURVE",
"871 1035 CURVE SMOOTH",
"871 808 OFFCURVE",
"730 737 OFFCURVE",
"371 737 CURVE"
);
}
);
width = 1175;
},
{
anchors = (
{
name = bottom;
position = "{658, 0}";
},
{
name = top;
position = "{658, 1358}";
},
{
name = us;
position = "{1340, 848}";
}
);
layerId = "D7B0979E-F273-40C0-A245-443BBF311E2D";
paths = (
{
closed = 1;
nodes = (
"724 0 LINE SMOOTH",
"1119 0 OFFCURVE",
"1360 112 OFFCURVE",
"1360 363 CURVE SMOOTH",
"1360 539 OFFCURVE",
"1226 677 OFFCURVE",
"1015 736 CURVE",
"1182 799 OFFCURVE",
"1274 895 OFFCURVE",
"1274 1021 CURVE SMOOTH",
"1274 1220 OFFCURVE",
"1068 1358 OFFCURVE",
"720 1358 CURVE SMOOTH",
"204 1358 LINE",
"204 0 LINE"
);
},
{
closed = 1;
nodes = (
"380 0 LINE",
"380 113 LINE",
"37 86 LINE",
"37 0 LINE"
);
},
{
closed = 1;
nodes = (
"555 669 LINE",
"627 669 OFFCURVE",
"695 660 OFFCURVE",
"740 647 CURVE SMOOTH",
"859 613 OFFCURVE",
"941 529 OFFCURVE",
"941 369 CURVE SMOOTH",
"941 187 OFFCURVE",
"878 101 OFFCURVE",
"627 101 CURVE SMOOTH",
"555 101 LINE"
);
},
{
closed = 1;
nodes = (
"380 1358 LINE",
"37 1358 LINE",
"37 1267 LINE",
"380 1237 LINE"
);
},
{
closed = 1;
nodes = (
"555 1255 LINE",
"776 1249 OFFCURVE",
"872 1167 OFFCURVE",
"872 1008 CURVE SMOOTH",
"872 855 OFFCURVE",
"773 777 OFFCURVE",
"555 777 CURVE"
);
}
);
width = 1412;
},
{
anchors = (
{
name = bottom;
position = "{606, 0}";
},
{
name = top;
position = "{606, 1358}";
},
{
name = us;
position = "{1263, 848}";
}
);
layerId = "263E301B-CB05-4AC6-937D-92FF8A6DC5EF";
paths = (
{
closed = 1;
nodes = (
"663 0 LINE SMOOTH",
"1084 0 OFFCURVE",
"1224 145 OFFCURVE",
"1224 351 CURVE SMOOTH",
"1224 533 OFFCURVE",
"1120 674 OFFCURVE",
"889 732 CURVE",
"1064 795 OFFCURVE",
"1126 887 OFFCURVE",
"1126 1031 CURVE SMOOTH",
"1126 1241 OFFCURVE",
"944 1358 OFFCURVE",
"662 1358 CURVE SMOOTH",
"262 1358 LINE",
"262 0 LINE"
);
},
{
closed = 1;
nodes = (
"375 0 LINE",
"375 85 LINE",
"72 59 LINE",
"72 0 LINE"
);
},
{
closed = 1;
nodes = (
"448 679 LINE",
"594 679 OFFCURVE",
"678 673 OFFCURVE",
"741 655 CURVE SMOOTH",
"901 609 OFFCURVE",
"1003 517 OFFCURVE",
"1003 371 CURVE SMOOTH",
"1003 176 OFFCURVE",
"912 80 OFFCURVE",
"598 80 CURVE SMOOTH",
"448 80 LINE"
);
},
{
closed = 1;
nodes = (
"375 1358 LINE",
"72 1358 LINE",
"72 1289 LINE",
"375 1261 LINE"
);
},
{
closed = 1;
nodes = (
"448 1277 LINE",
"788 1275 OFFCURVE",
"910 1216 OFFCURVE",
"910 1026 CURVE SMOOTH",
"910 835 OFFCURVE",
"770 760 OFFCURVE",
"448 760 CURVE"
);
}
);
width = 1338;
},
{
anchors = (
{
name = bottom;
position = "{589, 0}";
},
{
name = top;
position = "{589, 1358}";
},
{
name = us;
position = "{1255, 848}";
}
);
layerId = "6B146B31-FE8A-4408-B9B5-0C900DD2277D";
paths = (
{
closed = 1;
nodes = (
"619 0 LINE SMOOTH",
"1004 0 OFFCURVE",
"1127 148 OFFCURVE",
"1127 351 CURVE SMOOTH",
"1127 533 OFFCURVE",
"1024 664 OFFCURVE",
"781 732 CURVE",
"972 795 OFFCURVE",
"1037 886 OFFCURVE",
"1037 1031 CURVE SMOOTH",
"1037 1243 OFFCURVE",
"872 1358 OFFCURVE",
"617 1358 CURVE SMOOTH",
"251 1358 LINE",
"251 0 LINE"
);
},
{
closed = 1;
nodes = (
"340 0 LINE",
"340 84 LINE",
"62 56 LINE",
"62 0 LINE"
);
},
{
closed = 1;
nodes = (
"427 683 LINE",
"551 683 OFFCURVE",
"635 675 OFFCURVE",
"694 655 CURVE SMOOTH",
"844 605 OFFCURVE",
"927 517 OFFCURVE",
"927 371 CURVE SMOOTH",
"927 170 OFFCURVE",
"823 69 OFFCURVE",
"587 69 CURVE SMOOTH",
"427 69 LINE"
);
},
{
closed = 1;
nodes = (
"340 1358 LINE",
"62 1358 LINE",
"62 1302 LINE",
"340 1274 LINE"
);
},
{
closed = 1;
nodes = (
"427 1289 LINE",
"719 1287 OFFCURVE",
"846 1220 OFFCURVE",
"846 1027 CURVE SMOOTH",
"846 821 OFFCURVE",
"732 754 OFFCURVE",
"427 753 CURVE"
);
}
);
width = 1178;
},
{
anchors = (
{
name = bottom;
position = "{559, 0}";
},
{
name = top;
position = "{559, 1358}";
},
{
name = us;
position = "{1528, 848}";
}
);
layerId = "5E933A09-8E8D-4B36-A510-2D2E8DB125C4";
paths = (
{
closed = 1;
nodes = (
"623 0 LINE SMOOTH",
"970 0 OFFCURVE",
"1199 110 OFFCURVE",
"1199 365 CURVE SMOOTH",
"1199 538 OFFCURVE",
"1076 679 OFFCURVE",
"894 737 CURVE",
"1036 798 OFFCURVE",
"1123 892 OFFCURVE",
"1123 1019 CURVE SMOOTH",
"1123 1219 OFFCURVE",
"935 1358 OFFCURVE",
"618 1358 CURVE SMOOTH",
"156 1358 LINE",
"156 0 LINE"
);
},
{
closed = 1;
nodes = (
"346 0 LINE",
"346 117 LINE",
"36 87 LINE",
"36 0 LINE"
);
},
{
closed = 1;
nodes = (
"497 667 LINE",
"549 667 OFFCURVE",
"593 663 OFFCURVE",
"631 646 CURVE SMOOTH",
"722 605 OFFCURVE",
"785 530 OFFCURVE",
"785 369 CURVE SMOOTH",
"785 131 OFFCURVE",
"684 104 OFFCURVE",
"553 104 CURVE SMOOTH",
"497 104 LINE"
);
},
{
closed = 1;
nodes = (
"346 1358 LINE",
"36 1358 LINE",
"36 1266 LINE",
"346 1236 LINE"
);
},
{
closed = 1;
nodes = (
"497 1255 LINE",
"667 1249 OFFCURVE",
"745 1166 OFFCURVE",
"745 1007 CURVE SMOOTH",
"745 859 OFFCURVE",
"666 783 OFFCURVE",
"497 779 CURVE"
);
}
);
width = 1255;
}
);
leftMetricsKey = H;
note = B;
rightKerningGroup = B;
rightMetricsKey = O;
unicode = 0042;
},
{
glyphname = C;
lastChange = "2019-12-24 04:25:30 +0000";
layers = (
{
anchors = (
{
name = bottom;
position = "{765, 0}";
},
{
name = top;
position = "{809, 1358}";
},
{
name = us;
position = "{1593, 848}";
}
);
layerId = "C5B93EC9-9EB6-4975-AE33-1741B73E6074";
paths = (
{
closed = 1;
nodes = (
"948 -27 OFFCURVE",
"1121 27 OFFCURVE",
"1281 193 CURVE",
"1233 193 LINE",
"1253 0 LINE",
"1304 0 LINE",
"1349 432 LINE",
"1298 432 LINE",
"1258 198 OFFCURVE",
"1105 30 OFFCURVE",
"835 30 CURVE SMOOTH",
"489 30 OFFCURVE",
"301 327 OFFCURVE",
"301 693 CURVE SMOOTH",
"301 1079 OFFCURVE",
"508 1328 OFFCURVE",
"818 1328 CURVE SMOOTH",
"1058 1328 OFFCURVE",
"1227 1187 OFFCURVE",
"1292 948 CURVE",
"1343 948 LINE",
"1347 1370 LINE",
"1296 1370 LINE",
"1265 1184 LINE",
"1305 1184 LINE",
"1161 1322 OFFCURVE",
"1000 1385 OFFCURVE",
"807 1385 CURVE SMOOTH",
"378 1385 OFFCURVE",
"82 1072 OFFCURVE",
"82 657 CURVE SMOOTH",
"82 245 OFFCURVE",
"372 -27 OFFCURVE",
"771 -27 CURVE SMOOTH"
);
}
);
width = 1411;
},
{
anchors = (
{
name = bottom;
position = "{752, 0}";
},
{
name = top;
position = "{782, 1358}";
},
{
name = us;
position = "{1528, 848}";
}
);
layerId = "5F1B95D2-E37F-4604-99C9-24FF8B5B0DBF";
paths = (
{
closed = 1;
nodes = (
"935 -27 OFFCURVE",
"1106 31 OFFCURVE",
"1259 195 CURVE",
"1198 195 LINE",
"1219 0 LINE",
"1259 0 LINE",
"1305 432 LINE",
"1265 432 LINE",
"1228 186 OFFCURVE",
"1072 15 OFFCURVE",
"795 15 CURVE SMOOTH",
"439 15 OFFCURVE",
"210 299 OFFCURVE",
"210 693 CURVE SMOOTH",
"210 1083 OFFCURVE",
"440 1343 OFFCURVE",
"777 1343 CURVE SMOOTH",
"1000 1343 OFFCURVE",
"1184 1237 OFFCURVE",
"1260 948 CURVE",
"1300 948 LINE",
"1303 1370 LINE",
"1263 1370 LINE",
"1232 1181 LINE",
"1270 1181 LINE",
"1128 1322 OFFCURVE",
"979 1385 OFFCURVE",
"791 1385 CURVE SMOOTH",
"380 1385 OFFCURVE",
"97 1079 OFFCURVE",
"97 661 CURVE SMOOTH",
"97 245 OFFCURVE",
"377 -27 OFFCURVE",
"759 -27 CURVE SMOOTH"
);
}
);
width = 1377;
},
{
anchors = (
{
name = bottom;
position = "{791, 0}";
},
{
name = top;
position = "{863, 1358}";
},
{
name = us;
position = "{1723, 848}";
}
);
layerId = "D7B0979E-F273-40C0-A245-443BBF311E2D";
paths = (
{
closed = 1;
nodes = (
"974 -27 OFFCURVE",
"1151 19 OFFCURVE",
"1325 189 CURVE",
"1241 189 LINE",
"1259 0 LINE",
"1394 0 LINE",
"1437 432 LINE",
"1315 432 LINE",
"1273 230 OFFCURVE",
"1142 78 OFFCURVE",
"915 78 CURVE SMOOTH",
"589 78 OFFCURVE",
"483 393 OFFCURVE",
"483 693 CURVE SMOOTH",
"483 1065 OFFCURVE",
"644 1289 OFFCURVE",
"900 1289 CURVE SMOOTH",
"1147 1289 OFFCURVE",
"1267 1085 OFFCURVE",
"1305 948 CURVE",
"1429 948 LINE",
"1435 1370 LINE",
"1316 1370 LINE",
"1285 1190 LINE",
"1375 1190 LINE",
"1227 1322 OFFCURVE",
"1042 1385 OFFCURVE",
"839 1385 CURVE SMOOTH",
"374 1385 OFFCURVE",
"52 1058 OFFCURVE",
"52 649 CURVE SMOOTH",
"52 245 OFFCURVE",
"362 -27 OFFCURVE",
"795 -27 CURVE SMOOTH"
);
}
);
width = 1474;
},
{
anchors = (
{
name = bottom;
position = "{817, 0}";
},
{
name = top;
position = "{866, 1358}";
},
{
name = us;
position = "{1666, 848}";
}
);
layerId = "263E301B-CB05-4AC6-937D-92FF8A6DC5EF";
paths = (
{
closed = 1;
nodes = (
"1010 -27 OFFCURVE",
"1189 27 OFFCURVE",
"1355 193 CURVE",
"1276 193 LINE",
"1296 0 LINE",
"1379 0 LINE",
"1425 432 LINE",
"1346 432 LINE",
"1307 208 OFFCURVE",
"1157 49 OFFCURVE",
"893 49 CURVE SMOOTH",
"534 49 OFFCURVE",
"340 338 OFFCURVE",
"340 693 CURVE SMOOTH",
"340 1071 OFFCURVE",
"554 1315 OFFCURVE",
"876 1315 CURVE SMOOTH",
"1112 1315 OFFCURVE",
"1277 1176 OFFCURVE",
"1340 948 CURVE",
"1419 948 LINE",
"1423 1370 LINE",
"1345 1370 LINE",
"1314 1184 LINE",
"1380 1184 LINE",
"1230 1322 OFFCURVE",
"1063 1385 OFFCURVE",
"864 1385 CURVE SMOOTH",
"420 1385 OFFCURVE",
"114 1072 OFFCURVE",
"114 657 CURVE SMOOTH",
"114 245 OFFCURVE",
"414 -27 OFFCURVE",
"827 -27 CURVE SMOOTH"
);
}
);
width = 1497;
},
{
anchors = (
{
name = bottom;
position = "{712, 0}";
},
{
name = top;
position = "{750, 1358}";
},
{
name = us;
position = "{1513, 848}";
}
);
layerId = "6B146B31-FE8A-4408-B9B5-0C900DD2277D";
paths = (
{
closed = 1;
nodes = (
"886 -27 OFFCURVE",
"1053 27 OFFCURVE",
"1206 193 CURVE",
"1133 193 LINE",
"1153 0 LINE",
"1227 0 LINE",
"1270 432 LINE",
"1199 432 LINE",
"1161 207 OFFCURVE",
"1022 46 OFFCURVE",
"775 46 CURVE SMOOTH",
"441 46 OFFCURVE",
"258 334 OFFCURVE",
"258 693 CURVE SMOOTH",
"258 1071 OFFCURVE",
"458 1316 OFFCURVE",
"759 1316 CURVE SMOOTH",
"976 1316 OFFCURVE",
"1132 1183 OFFCURVE",
"1193 948 CURVE",
"1264 948 LINE",
"1269 1370 LINE",
"1198 1370 LINE",
"1167 1183 LINE",
"1229 1183 LINE",
"1090 1322 OFFCURVE",
"935 1385 OFFCURVE",
"749 1385 CURVE SMOOTH",
"335 1385 OFFCURVE",
"50 1073 OFFCURVE",
"50 657 CURVE SMOOTH",
"50 245 OFFCURVE",
"331 -27 OFFCURVE",
"714 -27 CURVE SMOOTH"
);
}
);
width = 1332;
},
{
anchors = (
{
name = bottom;
position = "{768, 0}";
},
{
name = top;
position = "{812, 1358}";
},
{
name = us;
position = "{1596, 848}";
}
);
layerId = "5E933A09-8E8D-4B36-A510-2D2E8DB125C4";
paths = (
{
closed = 1;
nodes = (
"927 -27 OFFCURVE",
"1099 17 OFFCURVE",
"1264 188 CURVE",
"1182 188 LINE",
"1202 0 LINE",
"1334 0 LINE",
"1375 432 LINE",
"1255 432 LINE",
"1212 229 OFFCURVE",
"1081 79 OFFCURVE",
"872 79 CURVE SMOOTH",
"563 79 OFFCURVE",
"465 399 OFFCURVE",
"465 694 CURVE SMOOTH",
"465 1062 OFFCURVE",
"622 1286 OFFCURVE",
"860 1286 CURVE SMOOTH",
"1091 1286 OFFCURVE",
"1211 1076 OFFCURVE",
"1246 948 CURVE",
"1367 948 LINE",
"1374 1370 LINE",
"1254 1370 LINE",
"1226 1189 LINE",
"1314 1189 LINE",
"1171 1325 OFFCURVE",
"991 1385 OFFCURVE",
"802 1385 CURVE SMOOTH",
"359 1385 OFFCURVE",
"49 1058 OFFCURVE",
"49 647 CURVE SMOOTH",
"49 246 OFFCURVE",
"349 -27 OFFCURVE",
"762 -27 CURVE SMOOTH"
);
}
);
width = 1411;
}
);
leftKerningGroup = C;
leftMetricsKey = O;
note = C;
rightKerningGroup = C;
rightMetricsKey = "=H";
unicode = 0043;
},
{
glyphname = D;
lastChange = "2019-12-24 04:26:40 +0000";
layers = (
{
anchors = (
{
name = bottom;
position = "{727, 0}";
},
{
name = center;
position = "{777, 679}";
},
{
name = overlay;
position = "{361, 673}";
},
{
name = top;
position = "{692, 1358}";
}
);
layerId = "C5B93EC9-9EB6-4975-AE33-1741B73E6074";
paths = (
{
closed = 1;
nodes = (
"751 0 LINE SMOOTH",
"1204 0 OFFCURVE",
"1479 289 OFFCURVE",
"1479 716 CURVE SMOOTH",
"1479 1117 OFFCURVE",
"1185 1358 OFFCURVE",
"705 1358 CURVE SMOOTH",
"251 1358 LINE",
"251 0 LINE"
);
},
{
closed = 1;
nodes = (
"437 1307 LINE",
"611 1307 LINE SMOOTH",
"1045 1307 OFFCURVE",
"1261 1104 OFFCURVE",
"1261 702 CURVE SMOOTH",
"1261 289 OFFCURVE",
"1088 51 OFFCURVE",
"627 51 CURVE SMOOTH",
"437 51 LINE"
);
},
{
closed = 1;
nodes = (
"347 1358 LINE",
"62 1358 LINE",
"62 1307 LINE",
"347 1282 LINE"
);
},
{
closed = 1;
nodes = (
"342 0 LINE",
"342 76 LINE",
"62 51 LINE",
"62 0 LINE"
);
}
);
width = 1561;
},
{
anchors = (
{
name = bottom;
position = "{700, 0}";
},
{
name = center;
position = "{750, 679}";
},
{
name = overlay;
position = "{342, 673}";
},
{
name = top;
position = "{666, 1358}";
}
);
layerId = "5F1B95D2-E37F-4604-99C9-24FF8B5B0DBF";
paths = (
{
closed = 1;
nodes = (
"670 0 LINE SMOOTH",
"1130 0 OFFCURVE",
"1379 300 OFFCURVE",
"1379 719 CURVE SMOOTH",
"1379 1109 OFFCURVE",
"1110 1358 OFFCURVE",
"633 1358 CURVE SMOOTH",
"272 1358 LINE",
"272 0 LINE"
);
},
{
closed = 1;
nodes = (
"374 1318 LINE",
"587 1318 LINE SMOOTH",
"1017 1318 OFFCURVE",
"1267 1113 OFFCURVE",
"1267 696 CURVE SMOOTH",
"1267 267 OFFCURVE",
"1053 40 OFFCURVE",
"585 40 CURVE SMOOTH",
"374 40 LINE"
);
},
{
closed = 1;
nodes = (
"331 1358 LINE",
"72 1358 LINE",
"72 1318 LINE",
"331 1298 LINE"
);
},
{
closed = 1;
nodes = (
"325 0 LINE",
"325 60 LINE",
"72 40 LINE",
"72 0 LINE"
);
}
);
width = 1477;
},
{
anchors = (
{
name = bottom;
position = "{776, 0}";
},
{
name = center;
position = "{826, 679}";
},
{
name = overlay;
position = "{394, 673}";
},
{
name = top;
position = "{739, 1358}";
}
);
layerId = "D7B0979E-F273-40C0-A245-443BBF311E2D";
paths = (
{
closed = 1;
nodes = (
"908 0 LINE SMOOTH",
"1347 0 OFFCURVE",
"1674 267 OFFCURVE",
"1674 710 CURVE SMOOTH",
"1674 1133 OFFCURVE",
"1330 1358 OFFCURVE",
"844 1358 CURVE SMOOTH",
"204 1358 LINE",
"204 0 LINE"
);
},
{
closed = 1;
nodes = (
"561 1255 LINE",
"654 1255 LINE SMOOTH",
"1096 1255 OFFCURVE",
"1244 1066 OFFCURVE",
"1244 714 CURVE SMOOTH",
"1244 349 OFFCURVE",
"1153 98 OFFCURVE",
"706 98 CURVE SMOOTH",
"561 98 LINE"
);
},
{
closed = 1;
nodes = (
"374 1358 LINE",
"37 1358 LINE",
"37 1267 LINE",
"374 1236 LINE"
);
},
{
closed = 1;
nodes = (
"371 0 LINE",
"371 114 LINE",
"37 86 LINE",
"37 0 LINE"
);
}
);
width = 1726;
},
{
anchors = (
{
name = bottom;
position = "{720, 0}";
},
{
name = center;
position = "{820, 679}";
},
{
name = overlay;
position = "{374, 673}";
},
{
name = top;
position = "{719, 1358}";
}
);
layerId = "263E301B-CB05-4AC6-937D-92FF8A6DC5EF";
paths = (
{
closed = 1;
nodes = (
"816 0 LINE SMOOTH",
"1243 0 OFFCURVE",
"1535 272 OFFCURVE",
"1535 726 CURVE SMOOTH",
"1535 1120 OFFCURVE",
"1225 1358 OFFCURVE",
"759 1358 CURVE SMOOTH",
"262 1358 LINE",
"262 0 LINE"
);
},
{
closed = 1;
nodes = (
"454 1277 LINE",
"635 1277 LINE SMOOTH",
"1086 1277 OFFCURVE",
"1310 1076 OFFCURVE",
"1310 720 CURVE SMOOTH",
"1310 318 OFFCURVE",
"1142 79 OFFCURVE",
"673 79 CURVE SMOOTH",
"454 79 LINE"
);
},
{
closed = 1;
nodes = (
"368 1358 LINE",
"72 1358 LINE",
"72 1289 LINE",
"368 1261 LINE"
);
},
{
closed = 1;
nodes = (
"359 0 LINE",
"359 84 LINE",
"72 59 LINE",
"72 0 LINE"
);
}
);
width = 1649;
},
{
anchors = (
{
name = bottom;
position = "{743, 0}";
},
{
name = center;
position = "{743, 679}";
},
{
name = overlay;
position = "{357, 673}";
},
{
name = top;
position = "{674, 1358}";
}
);
layerId = "6B146B31-FE8A-4408-B9B5-0C900DD2277D";
paths = (
{
closed = 1;
nodes = (
"692 0 LINE SMOOTH",
"1171 0 OFFCURVE",
"1428 306 OFFCURVE",
"1428 706 CURVE SMOOTH",
"1428 1113 OFFCURVE",
"1152 1358 OFFCURVE",
"658 1358 CURVE SMOOTH",
"251 1358 LINE",
"251 0 LINE"
);
},
{
closed = 1;
nodes = (
"427 1289 LINE",
"596 1289 LINE SMOOTH",
"1012 1289 OFFCURVE",
"1222 1100 OFFCURVE",
"1222 683 CURVE SMOOTH",
"1222 291 OFFCURVE",
"1042 72 OFFCURVE",
"589 72 CURVE SMOOTH",
"427 72 LINE"
);
},
{
closed = 1;
nodes = (
"335 1358 LINE",
"62 1358 LINE",
"62 1302 LINE",
"335 1276 LINE"
);
},
{
closed = 1;
nodes = (
"334 0 LINE",
"334 82 LINE",
"62 56 LINE",
"62 0 LINE"
);
}
);
width = 1479;
},
{
anchors = (
{
name = bottom;
position = "{670, 566}";
},
{
name = center;
position = "{441, 674}";
},
{
name = overlay;
position = "{365, 682}";
},
{
name = top;
position = "{641, 1358}";
}
);
layerId = "5E933A09-8E8D-4B36-A510-2D2E8DB125C4";
paths = (
{
closed = 1;
nodes = (
"813 0 LINE SMOOTH",
"1200 0 OFFCURVE",
"1505 266 OFFCURVE",
"1505 710 CURVE SMOOTH",
"1505 1135 OFFCURVE",
"1188 1358 OFFCURVE",
"753 1358 CURVE SMOOTH",
"172 1358 LINE",
"172 0 LINE"
);
},
{
closed = 1;
nodes = (
"516 1255 LINE",
"578 1255 LINE SMOOTH",
"835 1255 OFFCURVE",
"1088 1182 OFFCURVE",
"1088 715 CURVE SMOOTH",
"1088 183 OFFCURVE",
"863 100 OFFCURVE",
"618 100 CURVE SMOOTH",
"516 100 LINE"
);
},
{
closed = 1;
nodes = (
"349 1358 LINE",
"36 1358 LINE",
"36 1266 LINE",
"349 1234 LINE"
);
},
{
closed = 1;
nodes = (
"345 0 LINE",
"345 119 LINE",
"36 87 LINE",
"36 0 LINE"
);
}
);
width = 1561;
}
);
leftMetricsKey = H;
note = D;
rightKerningGroup = O;
rightMetricsKey = O;
unicode = 0044;
},
{
glyphname = Eth;
lastChange = "2019-12-24 04:27:42 +0000";
layers = (
{
anchors = (
{
name = bottom;
position = "{727, 0}";
},
{
name = top;
position = "{692, 1358}";
}
);
layerId = "C5B93EC9-9EB6-4975-AE33-1741B73E6074";
paths = (
{
closed = 1;
nodes = (
"751 0 LINE SMOOTH",
"1204 0 OFFCURVE",
"1479 289 OFFCURVE",
"1479 716 CURVE SMOOTH",
"1479 1117 OFFCURVE",
"1185 1358 OFFCURVE",
"705 1358 CURVE SMOOTH",
"251 1358 LINE",
"251 0 LINE"
);
},
{
closed = 1;
nodes = (
"437 1307 LINE",
"611 1307 LINE SMOOTH",
"1045 1307 OFFCURVE",
"1261 1104 OFFCURVE",
"1261 702 CURVE SMOOTH",
"1261 289 OFFCURVE",
"1088 51 OFFCURVE",
"627 51 CURVE SMOOTH",
"437 51 LINE"
);
},
{
closed = 1;
nodes = (
"347 1358 LINE",
"62 1358 LINE",
"62 1307 LINE",
"347 1282 LINE"
);
},
{
closed = 1;
nodes = (
"342 0 LINE",
"342 76 LINE",
"62 51 LINE",
"62 0 LINE"
);
},
{
closed = 1;
nodes = (
"667 634 LINE",
"667 715 LINE",
"80 715 LINE",
"80 634 LINE"
);
}
);
width = 1561;
},
{
anchors = (
{
name = bottom;
position = "{700, 0}";
},
{
name = top;
position = "{666, 1358}";
}
);
layerId = "5F1B95D2-E37F-4604-99C9-24FF8B5B0DBF";
paths = (
{
closed = 1;
nodes = (
"670 0 LINE SMOOTH",
"1130 0 OFFCURVE",
"1379 300 OFFCURVE",
"1379 719 CURVE SMOOTH",
"1379 1109 OFFCURVE",
"1110 1358 OFFCURVE",
"633 1358 CURVE SMOOTH",
"272 1358 LINE",
"272 0 LINE"
);
},
{
closed = 1;
nodes = (
"374 1318 LINE",
"587 1318 LINE SMOOTH",
"1017 1318 OFFCURVE",
"1267 1113 OFFCURVE",
"1267 696 CURVE SMOOTH",
"1267 267 OFFCURVE",
"1053 40 OFFCURVE",
"585 40 CURVE SMOOTH",
"374 40 LINE"
);
},
{
closed = 1;
nodes = (
"331 1358 LINE",
"72 1358 LINE",
"72 1318 LINE",
"331 1298 LINE"
);
},
{
closed = 1;
nodes = (
"325 0 LINE",
"325 60 LINE",
"72 40 LINE",
"72 0 LINE"
);
},
{
closed = 1;
nodes = (
"613 656 LINE",
"613 698 LINE",
"73 698 LINE",
"73 656 LINE"
);
}
);
width = 1477;
},
{
anchors = (
{
name = bottom;
position = "{776, 0}";
},
{
name = top;
position = "{739, 1358}";
}
);
layerId = "D7B0979E-F273-40C0-A245-443BBF311E2D";
paths = (
{
closed = 1;
nodes = (
"908 0 LINE SMOOTH",
"1347 0 OFFCURVE",
"1674 267 OFFCURVE",
"1674 710 CURVE SMOOTH",
"1674 1133 OFFCURVE",
"1330 1358 OFFCURVE",
"844 1358 CURVE SMOOTH",
"204 1358 LINE",
"204 0 LINE"
);
},
{
closed = 1;
nodes = (
"558 1255 LINE",
"654 1255 LINE SMOOTH",
"1096 1255 OFFCURVE",
"1244 1066 OFFCURVE",
"1244 714 CURVE SMOOTH",
"1244 349 OFFCURVE",
"1153 98 OFFCURVE",
"706 98 CURVE SMOOTH",
"558 98 LINE"
);
},
{
closed = 1;
nodes = (
"374 1358 LINE",
"37 1358 LINE",
"37 1267 LINE",
"374 1236 LINE"
);
},
{
closed = 1;
nodes = (
"371 0 LINE",
"371 114 LINE",
"37 86 LINE",
"37 0 LINE"
);
},
{
closed = 1;
nodes = (
"770 618 LINE",
"770 723 LINE",
"89 723 LINE",
"89 618 LINE"
);
}
);
width = 1726;
},
{
anchors = (
{
name = bottom;
position = "{720, 0}";
},
{
name = top;
position = "{719, 1358}";
}
);
layerId = "263E301B-CB05-4AC6-937D-92FF8A6DC5EF";
paths = (
{
closed = 1;
nodes = (
"816 0 LINE SMOOTH",
"1243 0 OFFCURVE",
"1535 272 OFFCURVE",
"1535 726 CURVE SMOOTH",
"1535 1120 OFFCURVE",
"1225 1358 OFFCURVE",
"759 1358 CURVE SMOOTH",
"262 1358 LINE",
"262 0 LINE"
);
},
{
closed = 1;
nodes = (
"454 1277 LINE",
"635 1277 LINE SMOOTH",
"1086 1277 OFFCURVE",
"1310 1076 OFFCURVE",
"1310 720 CURVE SMOOTH",
"1310 318 OFFCURVE",
"1142 79 OFFCURVE",
"673 79 CURVE SMOOTH",
"454 79 LINE"
);
},
{
closed = 1;
nodes = (
"368 1358 LINE",
"72 1358 LINE",
"72 1289 LINE",
"368 1261 LINE"
);
},
{
closed = 1;
nodes = (
"359 0 LINE",
"359 84 LINE",
"72 59 LINE",
"72 0 LINE"
);
},
{
closed = 1;
nodes = (
"681 634 LINE",
"681 715 LINE",
"91 715 LINE",
"91 634 LINE"
);
}
);
width = 1649;
},
{
anchors = (
{
name = bottom;
position = "{743, 0}";
},
{
name = top;
position = "{674, 1358}";
}
);
layerId = "6B146B31-FE8A-4408-B9B5-0C900DD2277D";
paths = (
{
closed = 1;
nodes = (
"692 0 LINE SMOOTH",
"1171 0 OFFCURVE",
"1428 306 OFFCURVE",
"1428 706 CURVE SMOOTH",
"1428 1113 OFFCURVE",
"1152 1358 OFFCURVE",
"658 1358 CURVE SMOOTH",
"251 1358 LINE",
"251 0 LINE"
);
},
{
closed = 1;
nodes = (
"427 1289 LINE",
"596 1289 LINE SMOOTH",
"1012 1289 OFFCURVE",
"1222 1100 OFFCURVE",
"1222 683 CURVE SMOOTH",
"1222 291 OFFCURVE",
"1042 72 OFFCURVE",
"589 72 CURVE SMOOTH",
"427 72 LINE"
);
},
{
closed = 1;
nodes = (
"335 1358 LINE",
"62 1358 LINE",
"62 1302 LINE",
"335 1276 LINE"
);
},
{
closed = 1;
nodes = (
"334 0 LINE",
"334 82 LINE",
"62 56 LINE",
"62 0 LINE"
);
},
{
closed = 1;
nodes = (
"660 634 LINE",
"660 715 LINE",
"79 715 LINE",
"79 634 LINE"
);
}
);
width = 1479;
},
{
anchors = (
{
name = bottom;
position = "{725, 0}";
},
{
name = top;
position = "{690, 1358}";
}
);
layerId = "5E933A09-8E8D-4B36-A510-2D2E8DB125C4";
paths = (
{
closed = 1;
nodes = (
"811 0 LINE SMOOTH",
"1199 0 OFFCURVE",
"1505 266 OFFCURVE",
"1505 710 CURVE SMOOTH",
"1505 1135 OFFCURVE",
"1187 1358 OFFCURVE",
"751 1358 CURVE SMOOTH",
"170 1358 LINE",
"170 0 LINE"
);
},
{
closed = 1;
nodes = (
"514 1255 LINE",
"575 1255 LINE SMOOTH",
"842 1255 OFFCURVE",
"1088 1177 OFFCURVE",
"1088 715 CURVE SMOOTH",
"1088 183 OFFCURVE",
"862 100 OFFCURVE",
"616 100 CURVE SMOOTH",
"514 100 LINE"
);
},
{
closed = 1;
nodes = (
"349 1358 LINE",
"36 1358 LINE",
"36 1266 LINE",
"349 1234 LINE"
);
},
{
closed = 1;
nodes = (
"345 0 LINE",
"345 119 LINE",
"36 87 LINE",
"36 0 LINE"
);
},
{
closed = 1;
nodes = (
"654 634 LINE",
"654 744 LINE",
"61 744 LINE",
"61 634 LINE"
);
}
);
width = 1561;
}
);
leftMetricsKey = D;
note = Eth;
rightKerningGroup = O;
rightMetricsKey = "=D";
unicode = 00D0;
},
{
glyphname = E;
lastChange = "2019-12-24 04:29:25 +0000";
layers = (
{
anchors = (
{
name = bottom;
position = "{722, 0}";
},
{
name = ogonek;
position = "{1131, 10}";
},
{
name = top;
position = "{713, 1358}";
}
);
layerId = "C5B93EC9-9EB6-4975-AE33-1741B73E6074";
paths = (
{
closed = 1;
nodes = (
"436 21 LINE",
"436 1337 LINE",
"250 1337 LINE",
"250 21 LINE"
);
},
{
closed = 1;
nodes = (
"1291 0 LINE",
"1291 346 LINE",
"1246 346 LINE",
"1157 107 LINE SMOOTH",
"1142 67 OFFCURVE",
"1089 51 OFFCURVE",
"1034 51 CURVE SMOOTH",
"251 51 LINE",
"251 0 LINE"
);
},
{
closed = 1;
nodes = (
"1159 1007 LINE",
"1159 1358 LINE",
"251 1358 LINE",
"251 1307 LINE",
"903 1307 LINE SMOOTH",
"979 1307 OFFCURVE",
"1010 1293 OFFCURVE",
"1026 1249 CURVE SMOOTH",
"1114 1007 LINE"
);
},
{
closed = 1;
nodes = (
"881 658 LINE",
"881 719 LINE",
"331 719 LINE",
"331 658 LINE"
);
},
{
closed = 1;
nodes = (
"908 447 LINE",
"908 945 LINE",
"857 945 LINE",
"857 447 LINE"
);
},
{
closed = 1;
nodes = (
"347 1358 LINE",
"62 1358 LINE",
"62 1307 LINE",
"347 1282 LINE"
);
},
{
closed = 1;
nodes = (
"342 0 LINE",
"342 76 LINE",
"62 51 LINE",
"62 0 LINE"
);
}
);
width = 1322;
},
{
anchors = (
{
name = bottom;
position = "{747, 0}";
},
{
name = ogonek;
position = "{1076, 10}";
},
{
name = top;
position = "{670, 1358}";
}
);
layerId = "5F1B95D2-E37F-4604-99C9-24FF8B5B0DBF";
paths = (
{
closed = 1;
nodes = (
"373 25 LINE",
"373 1333 LINE",
"271 1333 LINE",
"271 25 LINE"
);
},
{
closed = 1;
nodes = (
"1250 0 LINE",
"1250 340 LINE",
"1210 340 LINE",
"1139 96 LINE SMOOTH",
"1126 51 OFFCURVE",
"1080 40 OFFCURVE",
"1016 40 CURVE SMOOTH",
"272 40 LINE",
"272 0 LINE"
);
},
{
closed = 1;
nodes = (
"1118 1014 LINE",
"1118 1358 LINE",
"272 1358 LINE",
"272 1318 LINE",
"896 1318 LINE SMOOTH",
"971 1318 OFFCURVE",
"1021 1307 OFFCURVE",
"1031 1254 CURVE SMOOTH",
"1078 1014 LINE"
);
},
{
closed = 1;
nodes = (
"877 672 LINE",
"877 714 LINE",
"336 714 LINE",
"336 672 LINE"
);
},
{
closed = 1;
nodes = (
"895 440 LINE",
"895 960 LINE",
"855 960 LINE",
"855 440 LINE"
);
},
{
closed = 1;
nodes = (
"331 1358 LINE",
"72 1358 LINE",
"72 1318 LINE",
"331 1298 LINE"
);
},
{
closed = 1;
nodes = (
"325 0 LINE",
"325 60 LINE",
"72 40 LINE",
"72 0 LINE"
);
}
);
width = 1286;
},
{
anchors = (
{
name = bottom;
position = "{667, 0}";
},
{
name = ogonek;
position = "{1236, 10}";
},
{
name = top;
position = "{774, 1358}";
}
);
layerId = "D7B0979E-F273-40C0-A245-443BBF311E2D";
paths = (
{
closed = 1;
nodes = (
"557 13 LINE",
"557 1345 LINE",
"203 1345 LINE",
"203 13 LINE"
);
},
{
closed = 1;
nodes = (
"1368 0 LINE",
"1368 358 LINE",
"1289 358 LINE",
"1164 167 LINE SMOOTH",
"1143 135 OFFCURVE",
"1078 111 OFFCURVE",
"1041 111 CURVE SMOOTH",
"204 111 LINE",
"204 0 LINE"
);
},
{
closed = 1;
nodes = (
"1236 993 LINE",
"1236 1358 LINE",
"204 1358 LINE",
"204 1247 LINE",
"888 1247 LINE SMOOTH",
"966 1247 OFFCURVE",
"986 1236 OFFCURVE",
"1011 1201 CURVE SMOOTH",
"1157 993 LINE"
);
},
{
closed = 1;
nodes = (
"884 624 LINE",
"884 735 LINE",
"316 735 LINE",
"316 624 LINE"
);
},
{
closed = 1;
nodes = (
"958 461 LINE",
"958 915 LINE",
"829 915 LINE",
"829 461 LINE"
);
},
{
closed = 1;
nodes = (
"374 1358 LINE",
"37 1358 LINE",
"37 1272 LINE",
"374 1241 LINE"
);
},
{
closed = 1;
nodes = (
"371 0 LINE",
"371 114 LINE",
"37 86 LINE",
"37 0 LINE"
);
}
);
width = 1387;
},
{
anchors = (
{
name = bottom;
position = "{735, 0}";
},
{
name = ogonek;
position = "{1168, 10}";
},
{
name = top;
position = "{749, 1358}";
}
);
layerId = "263E301B-CB05-4AC6-937D-92FF8A6DC5EF";
paths = (
{
closed = 1;
nodes = (
"452 16 LINE",
"452 1342 LINE",
"260 1342 LINE",
"260 16 LINE"
);
},
{
closed = 1;
nodes = (
"1338 0 LINE",
"1338 346 LINE",
"1299 346 LINE",
"1209 139 LINE SMOOTH",
"1195 107 OFFCURVE",
"1134 83 OFFCURVE",
"1086 83 CURVE SMOOTH",
"262 83 LINE",
"262 0 LINE"
);
},
{
closed = 1;
nodes = (
"1202 1003 LINE",
"1202 1358 LINE",
"262 1358 LINE",
"262 1275 LINE",
"947 1275 LINE SMOOTH",
"1026 1275 OFFCURVE",
"1054 1261 OFFCURVE",
"1070 1224 CURVE SMOOTH",
"1163 1003 LINE"
);
},
{
closed = 1;
nodes = (
"910 647 LINE",
"910 729 LINE",
"341 729 LINE",
"341 647 LINE"
);
},
{
closed = 1;
nodes = (
"957 444 LINE",
"957 946 LINE",
"872 946 LINE",
"872 444 LINE"
);
},
{
closed = 1;
nodes = (
"368 1358 LINE",
"72 1358 LINE",
"72 1299 LINE",
"368 1271 LINE"
);
},
{
closed = 1;
nodes = (
"359 0 LINE",
"359 84 LINE",
"72 59 LINE",
"72 0 LINE"
);
}
);
width = 1374;
},
{
anchors = (
{
name = bottom;
position = "{720, 0}";
},
{
name = ogonek;
position = "{1102, 10}";
},
{
name = top;
position = "{686, 1358}";
}
);
layerId = "6B146B31-FE8A-4408-B9B5-0C900DD2277D";
paths = (
{
closed = 1;
nodes = (
"427 27 LINE",
"427 1331 LINE",
"251 1331 LINE",
"251 27 LINE"
);
},
{
closed = 1;
nodes = (
"1252 0 LINE",
"1252 345 LINE",
"1202 345 LINE",
"1115 126 LINE SMOOTH",
"1096 76 OFFCURVE",
"1054 70 OFFCURVE",
"992 70 CURVE SMOOTH",
"251 70 LINE",
"251 0 LINE"
);
},
{
closed = 1;
nodes = (
"1125 1011 LINE",
"1125 1358 LINE",
"251 1358 LINE",
"251 1288 LINE",
"869 1288 LINE SMOOTH",
"941 1288 OFFCURVE",
"973 1274 OFFCURVE",
"992 1222 CURVE SMOOTH",
"1075 1011 LINE"
);
},
{
closed = 1;
nodes = (
"863 653 LINE",
"863 724 LINE",
"331 724 LINE",
"331 653 LINE"
);
},
{
closed = 1;
nodes = (
"902 449 LINE",
"902 945 LINE",
"818 945 LINE",
"818 449 LINE"
);
},
{
closed = 1;
nodes = (
"335 1358 LINE",
"62 1358 LINE",
"62 1302 LINE",
"335 1276 LINE"
);
},
{
closed = 1;
nodes = (
"334 0 LINE",
"334 82 LINE",
"62 56 LINE",
"62 0 LINE"
);
}
);
width = 1283;
},
{
anchors = (
{
name = bottom;
position = "{606, 0}";
},
{
name = ogonek;
position = "{1179, 10}";
},
{
name = top;
position = "{724, 1358}";
}
);
layerId = "5E933A09-8E8D-4B36-A510-2D2E8DB125C4";
paths = (
{
closed = 1;
nodes = (
"549 12 LINE",
"549 1346 LINE",
"185 1346 LINE",
"185 12 LINE"
);
},
{
closed = 1;
nodes = (
"1304 0 LINE",
"1304 358 LINE",
"1225 358 LINE",
"1098 169 LINE SMOOTH",
"1072 131 OFFCURVE",
"1033 113 OFFCURVE",
"978 113 CURVE SMOOTH",
"186 113 LINE",
"186 0 LINE"
);
},
{
closed = 1;
nodes = (
"1175 992 LINE",
"1175 1358 LINE",
"186 1358 LINE",
"186 1245 LINE",
"829 1245 LINE SMOOTH",
"904 1245 OFFCURVE",
"925 1234 OFFCURVE",
"949 1200 CURVE SMOOTH",
"1096 992 LINE"
);
},
{
closed = 1;
nodes = (
"826 622 LINE",
"826 734 LINE",
"310 734 LINE",
"310 622 LINE"
);
},
{
closed = 1;
nodes = (
"901 463 LINE",
"901 914 LINE",
"769 914 LINE",
"769 463 LINE"
);
},
{
closed = 1;
nodes = (
"373 1358 LINE",
"36 1358 LINE",
"36 1271 LINE",
"373 1239 LINE"
);
},
{
closed = 1;
nodes = (
"368 0 LINE",
"368 119 LINE",
"36 87 LINE",
"36 0 LINE"
);
}
);
width = 1322;
}
);
leftMetricsKey = H;
note = E;
rightKerningGroup = E;
rightMetricsKey = "=H/2";
unicode = 0045;
},
{
glyphname = Eogonek;
lastChange = "2019-12-24 04:30:13 +0000";
layers = (
{
anchors = (
{
name = bottom;
position = "{722, 0}";
},
{
name = top;
position = "{713, 1358}";
}
);
layerId = "C5B93EC9-9EB6-4975-AE33-1741B73E6074";
paths = (
{
closed = 1;
nodes = (
"1168 -491 OFFCURVE",
"1227 -456 OFFCURVE",
"1284 -382 CURVE",
"1261 -343 LINE",
"1229 -370 OFFCURVE",
"1197 -381 OFFCURVE",
"1156 -381 CURVE SMOOTH",
"1077 -381 OFFCURVE",
"1037 -339 OFFCURVE",
"1037 -253 CURVE SMOOTH",
"1037 -169 OFFCURVE",
"1096 -29 OFFCURVE",
"1291 0 CURVE",
"1114 38 LINE",
"965 -87 OFFCURVE",
"892 -203 OFFCURVE",
"892 -315 CURVE SMOOTH",
"892 -415 OFFCURVE",
"963 -491 OFFCURVE",
"1076 -491 CURVE SMOOTH"
);
},
{
closed = 1;
nodes = (
"436 21 LINE",
"436 1337 LINE",
"250 1337 LINE",
"250 21 LINE"
);
},
{
closed = 1;
nodes = (
"1291 0 LINE",
"1291 346 LINE",
"1246 346 LINE",
"1157 107 LINE SMOOTH",
"1142 67 OFFCURVE",
"1089 51 OFFCURVE",
"1034 51 CURVE SMOOTH",
"251 51 LINE",
"251 0 LINE"
);
},
{
closed = 1;
nodes = (
"1159 1007 LINE",
"1159 1358 LINE",
"251 1358 LINE",
"251 1307 LINE",
"903 1307 LINE SMOOTH",
"979 1307 OFFCURVE",
"1010 1293 OFFCURVE",
"1026 1249 CURVE SMOOTH",
"1114 1007 LINE"
);
},
{
closed = 1;
nodes = (
"881 658 LINE",
"881 719 LINE",
"331 719 LINE",
"331 658 LINE"
);
},
{
closed = 1;
nodes = (
"908 447 LINE",
"908 945 LINE",
"857 945 LINE",
"857 447 LINE"
);
},
{
closed = 1;
nodes = (
"347 1358 LINE",
"62 1358 LINE",
"62 1307 LINE",
"347 1282 LINE"
);
},
{
closed = 1;
nodes = (
"342 0 LINE",
"342 76 LINE",
"62 51 LINE",
"62 0 LINE"
);
}
);
width = 1322;
},
{
anchors = (
{
name = bottom;
position = "{747, 0}";
},
{
name = top;
position = "{670, 1358}";
}
);
layerId = "5F1B95D2-E37F-4604-99C9-24FF8B5B0DBF";
paths = (
{
closed = 1;
nodes = (
"1139 -500 OFFCURVE",
"1185 -469 OFFCURVE",
"1246 -393 CURVE",
"1226 -363 LINE",
"1200 -384 OFFCURVE",
"1162 -396 OFFCURVE",
"1125 -396 CURVE SMOOTH",
"1041 -396 OFFCURVE",
"998 -351 OFFCURVE",
"998 -263 CURVE SMOOTH",
"998 -179 OFFCURVE",
"1060 -35 OFFCURVE",
"1250 0 CURVE",
"1105 30 LINE",
"963 -93 OFFCURVE",
"892 -212 OFFCURVE",
"892 -328 CURVE SMOOTH",
"892 -416 OFFCURVE",
"959 -500 OFFCURVE",
"1053 -500 CURVE SMOOTH"
);
},
{
closed = 1;
nodes = (
"373 25 LINE",
"373 1333 LINE",
"271 1333 LINE",
"271 25 LINE"
);
},
{
closed = 1;
nodes = (
"1250 0 LINE",
"1250 340 LINE",
"1222 340 LINE",
"1151 96 LINE SMOOTH",
"1138 51 OFFCURVE",
"1092 40 OFFCURVE",
"1028 40 CURVE SMOOTH",
"272 40 LINE",
"272 0 LINE"
);
},
{
closed = 1;
nodes = (
"1118 1014 LINE",
"1118 1358 LINE",
"272 1358 LINE",
"272 1318 LINE",
"908 1318 LINE SMOOTH",
"983 1318 OFFCURVE",
"1019 1303 OFFCURVE",
"1031 1254 CURVE SMOOTH",
"1090 1014 LINE"
);
},
{
closed = 1;
nodes = (
"877 672 LINE",
"877 714 LINE",
"336 714 LINE",
"336 672 LINE"
);
},
{
closed = 1;
nodes = (
"895 440 LINE",
"895 960 LINE",
"855 960 LINE",
"855 440 LINE"
);
},
{
closed = 1;
nodes = (
"331 1358 LINE",
"72 1358 LINE",
"72 1318 LINE",
"331 1298 LINE"
);
},
{
closed = 1;
nodes = (
"325 0 LINE",
"325 60 LINE",
"72 40 LINE",
"72 0 LINE"
);
}
);
width = 1286;
},
{
anchors = (
{
name = bottom;
position = "{667, 0}";
},
{
name = top;
position = "{774, 1358}";
}
);
layerId = "D7B0979E-F273-40C0-A245-443BBF311E2D";
paths = (
{
closed = 1;
nodes = (
"1221 -473 OFFCURVE",
"1306 -430 OFFCURVE",
"1355 -360 CURVE",
"1326 -303 LINE",
"1282 -342 OFFCURVE",
"1262 -351 OFFCURVE",
"1213 -351 CURVE SMOOTH",
"1144 -351 OFFCURVE",
"1110 -315 OFFCURVE",
"1110 -233 CURVE SMOOTH",
"1110 -149 OFFCURVE",
"1163 -17 OFFCURVE",
"1368 0 CURVE",
"1127 54 LINE",
"964 -75 OFFCURVE",
"887 -185 OFFCURVE",
"887 -289 CURVE SMOOTH",
"887 -413 OFFCURVE",
"966 -473 OFFCURVE",
"1117 -473 CURVE SMOOTH"
);
},
{
closed = 1;
nodes = (
"557 13 LINE",
"557 1345 LINE",
"203 1345 LINE",
"203 13 LINE"
);
},
{
closed = 1;
nodes = (
"1368 0 LINE",
"1368 358 LINE",
"1289 358 LINE",
"1164 167 LINE SMOOTH",
"1143 135 OFFCURVE",
"1078 111 OFFCURVE",
"1041 111 CURVE SMOOTH",
"204 111 LINE",
"204 0 LINE"
);
},
{
closed = 1;
nodes = (
"1236 993 LINE",
"1236 1358 LINE",
"204 1358 LINE",
"204 1247 LINE",
"888 1247 LINE SMOOTH",
"966 1247 OFFCURVE",
"986 1236 OFFCURVE",
"1011 1201 CURVE SMOOTH",
"1157 993 LINE"
);
},
{
closed = 1;
nodes = (
"884 624 LINE",
"884 735 LINE",
"316 735 LINE",
"316 624 LINE"
);
},
{
closed = 1;
nodes = (
"958 461 LINE",
"958 915 LINE",
"829 915 LINE",
"829 461 LINE"
);
},
{
closed = 1;
nodes = (
"374 1358 LINE",
"37 1358 LINE",
"37 1272 LINE",
"374 1241 LINE"
);
},
{
closed = 1;
nodes = (
"371 0 LINE",
"371 114 LINE",
"37 86 LINE",
"37 0 LINE"
);
}
);
width = 1387;
},
{
anchors = (
{
name = bottom;
position = "{735, 0}";
},
{
name = top;
position = "{749, 1358}";
}
);
layerId = "263E301B-CB05-4AC6-937D-92FF8A6DC5EF";
paths = (
{
closed = 1;
nodes = (
"1216 -480 OFFCURVE",
"1275 -445 OFFCURVE",
"1333 -371 CURVE",
"1309 -331 LINE",
"1277 -359 OFFCURVE",
"1245 -369 OFFCURVE",
"1204 -369 CURVE SMOOTH",
"1125 -369 OFFCURVE",
"1085 -328 OFFCURVE",
"1085 -242 CURVE SMOOTH",
"1085 -158 OFFCURVE",
"1148 -20 OFFCURVE",
"1338 0 CURVE",
"1161 49 LINE",
"1011 -76 OFFCURVE",
"939 -192 OFFCURVE",
"939 -304 CURVE SMOOTH",
"939 -404 OFFCURVE",
"1010 -480 OFFCURVE",
"1124 -480 CURVE SMOOTH"
);
},
{
closed = 1;
nodes = (
"452 16 LINE",
"452 1342 LINE",
"260 1342 LINE",
"260 16 LINE"
);
},
{
closed = 1;
nodes = (
"1338 0 LINE",
"1338 346 LINE",
"1299 346 LINE",
"1209 139 LINE SMOOTH",
"1195 107 OFFCURVE",
"1134 83 OFFCURVE",
"1086 83 CURVE SMOOTH",
"262 83 LINE",
"262 0 LINE"
);
},
{
closed = 1;
nodes = (
"1202 1003 LINE",
"1202 1358 LINE",
"262 1358 LINE",
"262 1275 LINE",
"947 1275 LINE SMOOTH",
"1026 1275 OFFCURVE",
"1054 1261 OFFCURVE",
"1070 1224 CURVE SMOOTH",
"1163 1003 LINE"
);
},
{
closed = 1;
nodes = (
"910 647 LINE",
"910 729 LINE",
"341 729 LINE",
"341 647 LINE"
);
},
{
closed = 1;
nodes = (
"957 444 LINE",
"957 946 LINE",
"872 946 LINE",
"872 444 LINE"
);
},
{
closed = 1;
nodes = (
"368 1358 LINE",
"72 1358 LINE",
"72 1299 LINE",
"368 1271 LINE"
);
},
{
closed = 1;
nodes = (
"359 0 LINE",
"359 84 LINE",
"72 59 LINE",
"72 0 LINE"
);
}
);
width = 1374;
},
{
anchors = (
{
name = bottom;
position = "{720, 0}";
},
{
name = top;
position = "{686, 1358}";
}
);
layerId = "6B146B31-FE8A-4408-B9B5-0C900DD2277D";
paths = (
{
closed = 1;
nodes = (
"1129 -502 OFFCURVE",
"1187 -467 OFFCURVE",
"1243 -393 CURVE",
"1221 -356 LINE",
"1190 -381 OFFCURVE",
"1157 -393 OFFCURVE",
"1116 -393 CURVE SMOOTH",
"1037 -393 OFFCURVE",
"997 -350 OFFCURVE",
"997 -264 CURVE SMOOTH",
"997 -180 OFFCURVE",
"1052 -38 OFFCURVE",
"1252 0 CURVE",
"1076 26 LINE",
"928 -98 OFFCURVE",
"855 -214 OFFCURVE",
"855 -326 CURVE SMOOTH",
"855 -426 OFFCURVE",
"926 -502 OFFCURVE",
"1037 -502 CURVE SMOOTH"
);
},
{
closed = 1;
nodes = (
"427 27 LINE",
"427 1331 LINE",
"251 1331 LINE",
"251 27 LINE"
);
},
{
closed = 1;
nodes = (
"1252 0 LINE",
"1252 345 LINE",
"1202 345 LINE",
"1115 126 LINE SMOOTH",
"1095 76 OFFCURVE",
"1054 70 OFFCURVE",
"992 70 CURVE SMOOTH",
"251 70 LINE",
"251 0 LINE"
);
},
{
closed = 1;
nodes = (
"1125 1011 LINE",
"1125 1358 LINE",
"251 1358 LINE",
"251 1288 LINE",
"869 1288 LINE SMOOTH",
"941 1288 OFFCURVE",
"972 1274 OFFCURVE",
"992 1222 CURVE SMOOTH",
"1075 1011 LINE"
);
},
{
closed = 1;
nodes = (
"863 653 LINE",
"863 724 LINE",
"331 724 LINE",
"331 653 LINE"
);
},
{
closed = 1;
nodes = (
"902 449 LINE",
"902 945 LINE",
"818 945 LINE",
"818 449 LINE"
);
},
{
closed = 1;
nodes = (
"335 1358 LINE",
"62 1358 LINE",
"62 1302 LINE",
"335 1276 LINE"
);
},
{
closed = 1;
nodes = (
"334 0 LINE",
"334 82 LINE",
"62 56 LINE",
"62 0 LINE"
);
}
);
width = 1283;
},
{
anchors = (
{
name = bottom;
position = "{606, 0}";
},
{
name = top;
position = "{724, 1358}";
}
);
layerId = "5E933A09-8E8D-4B36-A510-2D2E8DB125C4";
paths = (
{
closed = 1;
nodes = (
"1150 -469 OFFCURVE",
"1229 -424 OFFCURVE",
"1269 -355 CURVE",
"1242 -298 LINE",
"1206 -336 OFFCURVE",
"1185 -347 OFFCURVE",
"1143 -347 CURVE SMOOTH",
"1082 -347 OFFCURVE",
"1053 -309 OFFCURVE",
"1053 -228 CURVE SMOOTH",
"1053 -144 OFFCURVE",
"1102 -16 OFFCURVE",
"1304 0 CURVE",
"1060 59 LINE",
"915 -70 OFFCURVE",
"846 -183 OFFCURVE",
"846 -283 CURVE SMOOTH",
"846 -411 OFFCURVE",
"917 -469 OFFCURVE",
"1056 -469 CURVE SMOOTH"
);
},
{
closed = 1;
nodes = (
"549 12 LINE",
"549 1346 LINE",
"185 1346 LINE",
"185 12 LINE"
);
},
{
closed = 1;
nodes = (
"1304 0 LINE",
"1304 358 LINE",
"1225 358 LINE",
"1098 169 LINE SMOOTH",
"1072 131 OFFCURVE",
"1033 113 OFFCURVE",
"978 113 CURVE SMOOTH",
"186 113 LINE",
"186 0 LINE"
);
},
{
closed = 1;
nodes = (
"1175 992 LINE",
"1175 1358 LINE",
"186 1358 LINE",
"186 1245 LINE",
"829 1245 LINE SMOOTH",
"904 1245 OFFCURVE",
"925 1234 OFFCURVE",
"949 1200 CURVE SMOOTH",
"1096 992 LINE"
);
},
{
closed = 1;
nodes = (
"826 622 LINE",
"826 734 LINE",
"310 734 LINE",
"310 622 LINE"
);
},
{
closed = 1;
nodes = (
"901 463 LINE",
"901 914 LINE",
"769 914 LINE",
"769 463 LINE"
);
},
{
closed = 1;
nodes = (
"373 1358 LINE",
"36 1358 LINE",
"36 1271 LINE",
"373 1239 LINE"
);
},
{
closed = 1;
nodes = (
"368 0 LINE",
"368 119 LINE",
"36 87 LINE",
"36 0 LINE"
);
}
);
width = 1322;
}
);
leftMetricsKey = "=E";
widthMetricsKey = E;
note = Eogonek;
rightKerningGroup = E;
unicode = 0118;
},
{
glyphname = F;
lastChange = "2019-12-24 04:31:35 +0000";
layers = (
{
anchors = (
{
name = bottom;
position = "{580, 0}";
},
{
name = top;
position = "{580, 1358}";
}
);
layerId = "C5B93EC9-9EB6-4975-AE33-1741B73E6074";
paths = (
{
closed = 1;
nodes = (
"437 29 LINE",
"437 1320 LINE",
"251 1320 LINE",
"251 29 LINE"
);
},
{
closed = 1;
nodes = (
"1134 990 LINE",
"1134 1358 LINE",
"251 1358 LINE",
"251 1307 LINE",
"867 1307 LINE SMOOTH",
"946 1307 OFFCURVE",
"980 1293 OFFCURVE",
"997 1246 CURVE SMOOTH",
"1087 990 LINE"
);
},
{
closed = 1;
nodes = (
"641 0 LINE",
"641 51 LINE",
"355 76 LINE",
"65 51 LINE",
"65 0 LINE"
);
},
{
closed = 1;
nodes = (
"821 627 LINE",
"821 688 LINE",
"321 688 LINE",
"321 627 LINE"
);
},
{
closed = 1;
nodes = (
"849 368 LINE",
"849 946 LINE",
"798 946 LINE",
"798 368 LINE"
);
},
{
closed = 1;
nodes = (
"356 1358 LINE",
"62 1358 LINE",
"62 1307 LINE",
"356 1282 LINE"
);
}
);
width = 1165;
},
{
anchors = (
{
name = bottom;
position = "{554, 0}";
},
{
name = top;
position = "{554, 1358}";
}
);
layerId = "5F1B95D2-E37F-4604-99C9-24FF8B5B0DBF";
paths = (
{
closed = 1;
nodes = (
"374 22 LINE",
"374 1327 LINE",
"272 1327 LINE",
"272 22 LINE"
);
},
{
closed = 1;
nodes = (
"1061 990 LINE",
"1061 1358 LINE",
"272 1358 LINE",
"272 1318 LINE",
"843 1318 LINE SMOOTH",
"924 1318 OFFCURVE",
"965 1303 OFFCURVE",
"977 1249 CURVE SMOOTH",
"1033 990 LINE"
);
},
{
closed = 1;
nodes = (
"580 0 LINE",
"580 40 LINE",
"331 60 LINE",
"75 40 LINE",
"75 0 LINE"
);
},
{
closed = 1;
nodes = (
"799 637 LINE",
"799 679 LINE",
"328 679 LINE",
"328 637 LINE"
);
},
{
closed = 1;
nodes = (
"817 371 LINE",
"817 947 LINE",
"777 947 LINE",
"777 371 LINE"
);
},
{
closed = 1;
nodes = (
"352 1358 LINE",
"72 1358 LINE",
"72 1318 LINE",
"352 1298 LINE"
);
}
);
width = 1097;
},
{
anchors = (
{
name = bottom;
position = "{627, 0}";
},
{
name = top;
position = "{627, 1358}";
}
);
layerId = "D7B0979E-F273-40C0-A245-443BBF311E2D";
paths = (
{
closed = 1;
nodes = (
"558 43 LINE",
"558 1306 LINE",
"204 1306 LINE",
"204 43 LINE"
);
},
{
closed = 1;
nodes = (
"1275 990 LINE",
"1275 1358 LINE",
"204 1358 LINE",
"204 1247 LINE",
"910 1247 LINE SMOOTH",
"985 1247 OFFCURVE",
"1004 1235 OFFCURVE",
"1032 1202 CURVE SMOOTH",
"1190 990 LINE"
);
},
{
closed = 1;
nodes = (
"758 0 LINE",
"758 86 LINE",
"398 116 LINE",
"40 86 LINE",
"40 0 LINE"
);
},
{
closed = 1;
nodes = (
"860 601 LINE",
"860 714 LINE",
"302 714 LINE",
"302 601 LINE"
);
},
{
closed = 1;
nodes = (
"937 362 LINE",
"937 944 LINE",
"805 944 LINE",
"805 362 LINE"
);
},
{
closed = 1;
nodes = (
"359 1358 LINE",
"37 1358 LINE",
"37 1267 LINE",
"359 1237 LINE"
);
}
);
width = 1294;
},
{
anchors = (
{
name = bottom;
position = "{593, 0}";
},
{
name = top;
position = "{593, 1358}";
}
);
layerId = "263E301B-CB05-4AC6-937D-92FF8A6DC5EF";
paths = (
{
closed = 1;
nodes = (
"454 30 LINE",
"454 1318 LINE",
"262 1318 LINE",
"262 30 LINE"
);
},
{
closed = 1;
nodes = (
"1177 990 LINE",
"1177 1358 LINE",
"262 1358 LINE",
"262 1275 LINE",
"907 1275 LINE SMOOTH",
"988 1275 OFFCURVE",
"1018 1261 OFFCURVE",
"1035 1222 CURVE SMOOTH",
"1134 990 LINE"
);
},
{
closed = 1;
nodes = (
"662 0 LINE",
"662 59 LINE",
"373 89 LINE",
"78 59 LINE",
"78 0 LINE"
);
},
{
closed = 1;
nodes = (
"834 615 LINE",
"834 699 LINE",
"339 699 LINE",
"339 615 LINE"
);
},
{
closed = 1;
nodes = (
"883 364 LINE",
"883 950 LINE",
"795 950 LINE",
"795 364 LINE"
);
},
{
closed = 1;
nodes = (
"367 1358 LINE",
"72 1358 LINE",
"72 1289 LINE",
"367 1261 LINE"
);
}
);
width = 1213;
},
{
anchors = (
{
name = bottom;
position = "{577, 0}";
},
{
name = top;
position = "{577, 1358}";
}
);
layerId = "6B146B31-FE8A-4408-B9B5-0C900DD2277D";
paths = (
{
closed = 1;
nodes = (
"427 28 LINE",
"427 1323 LINE",
"251 1323 LINE",
"251 28 LINE"
);
},
{
closed = 1;
nodes = (
"1098 990 LINE",
"1098 1358 LINE",
"251 1358 LINE",
"251 1288 LINE",
"836 1288 LINE SMOOTH",
"914 1288 OFFCURVE",
"950 1274 OFFCURVE",
"968 1218 CURVE SMOOTH",
"1047 990 LINE"
);
},
{
closed = 1;
nodes = (
"627 0 LINE",
"627 56 LINE",
"346 86 LINE",
"62 56 LINE",
"62 0 LINE"
);
},
{
closed = 1;
nodes = (
"817 623 LINE",
"817 693 LINE",
"314 693 LINE",
"314 623 LINE"
);
},
{
closed = 1;
nodes = (
"857 372 LINE",
"857 942 LINE",
"774 942 LINE",
"774 372 LINE"
);
},
{
closed = 1;
nodes = (
"355 1358 LINE",
"62 1358 LINE",
"62 1302 LINE",
"355 1274 LINE"
);
}
);
width = 1129;
},
{
anchors = (
{
name = bottom;
position = "{543, 0}";
},
{
name = top;
position = "{543, 1358}";
}
);
layerId = "5E933A09-8E8D-4B36-A510-2D2E8DB125C4";
paths = (
{
closed = 1;
nodes = (
"516 43 LINE",
"516 1306 LINE",
"173 1306 LINE",
"173 43 LINE"
);
},
{
closed = 1;
nodes = (
"1147 991 LINE",
"1147 1358 LINE",
"173 1358 LINE",
"173 1245 LINE",
"804 1245 LINE SMOOTH",
"881 1245 OFFCURVE",
"895 1226 OFFCURVE",
"913 1201 CURVE SMOOTH",
"1067 991 LINE"
);
},
{
closed = 1;
nodes = (
"672 0 LINE",
"672 87 LINE",
"353 117 LINE",
"39 87 LINE",
"39 0 LINE"
);
},
{
closed = 1;
nodes = (
"751 602 LINE",
"751 715 LINE",
"279 715 LINE",
"279 602 LINE"
);
},
{
closed = 1;
nodes = (
"827 361 LINE",
"827 944 LINE",
"701 944 LINE",
"701 361 LINE"
);
},
{
closed = 1;
nodes = (
"334 1358 LINE",
"36 1358 LINE",
"36 1266 LINE",
"334 1236 LINE"
);
}
);
width = 1165;
}
);
leftMetricsKey = H;
note = F;
rightKerningGroup = F;
rightMetricsKey = "=H/2";
unicode = 0046;
},
{
glyphname = G;
lastChange = "2019-12-24 04:34:27 +0000";
layers = (
{
anchors = (
{
name = bottom;
position = "{822, 0}";
},
{
name = top;
position = "{799, 1358}";
}
);
layerId = "C5B93EC9-9EB6-4975-AE33-1741B73E6074";
paths = (
{
closed = 1;
nodes = (
"912 -27 OFFCURVE",
"1005 -22 OFFCURVE",
"1184 15 CURVE SMOOTH",
"1286 36 OFFCURVE",
"1326 42 OFFCURVE",
"1360 46 CURVE",
"1360 98 LINE",
"1334 98 OFFCURVE",
"1319 114 OFFCURVE",
"1319 156 CURVE SMOOTH",
"1319 520 LINE",
"1234 476 LINE",
"1453 501 LINE",
"1453 552 LINE",
"902 552 LINE",
"902 501 LINE",
"1207 476 LINE",
"1133 520 LINE",
"1133 49 LINE",
"1223 166 LINE",
"1105 60 OFFCURVE",
"953 30 OFFCURVE",
"844 30 CURVE SMOOTH",
"515 30 OFFCURVE",
"301 284 OFFCURVE",
"301 675 CURVE SMOOTH",
"301 1064 OFFCURVE",
"513 1328 OFFCURVE",
"822 1328 CURVE SMOOTH",
"1053 1328 OFFCURVE",
"1223 1189 OFFCURVE",
"1289 948 CURVE",
"1340 948 LINE",
"1345 1370 LINE",
"1294 1370 LINE",
"1264 1184 LINE",
"1303 1184 LINE",
"1159 1322 OFFCURVE",
"997 1385 OFFCURVE",
"804 1385 CURVE SMOOTH",
"388 1385 OFFCURVE",
"82 1080 OFFCURVE",
"82 667 CURVE SMOOTH",
"82 253 OFFCURVE",
"386 -27 OFFCURVE",
"869 -27 CURVE SMOOTH"
);
}
);
width = 1496;
},
{
anchors = (
{
name = bottom;
position = "{804, 0}";
},
{
name = top;
position = "{750, 1358}";
}
);
layerId = "5F1B95D2-E37F-4604-99C9-24FF8B5B0DBF";
paths = (
{
closed = 1;
nodes = (
"890 -27 OFFCURVE",
"994 -22 OFFCURVE",
"1159 17 CURVE SMOOTH",
"1253 39 OFFCURVE",
"1285 45 OFFCURVE",
"1327 54 CURVE",
"1327 83 LINE",
"1301 83 OFFCURVE",
"1289 106 OFFCURVE",
"1289 154 CURVE SMOOTH",
"1289 511 LINE",
"1245 482 LINE",
"1434 502 LINE",
"1434 542 LINE",
"955 542 LINE",
"955 502 LINE",
"1230 482 LINE",
"1188 511 LINE",
"1188 55 LINE",
"1232 149 LINE",
"1114 43 OFFCURVE",
"926 15 OFFCURVE",
"815 15 CURVE SMOOTH",
"451 15 OFFCURVE",
"210 276 OFFCURVE",
"210 672 CURVE SMOOTH",
"210 1056 OFFCURVE",
"456 1343 OFFCURVE",
"784 1343 CURVE SMOOTH",
"1025 1343 OFFCURVE",
"1191 1205 OFFCURVE",
"1257 948 CURVE",
"1297 948 LINE",
"1300 1370 LINE",
"1260 1370 LINE",
"1229 1181 LINE",
"1268 1181 LINE",
"1126 1322 OFFCURVE",
"976 1385 OFFCURVE",
"788 1385 CURVE SMOOTH",
"375 1385 OFFCURVE",
"97 1087 OFFCURVE",
"97 675 CURVE SMOOTH",
"97 264 OFFCURVE",
"373 -27 OFFCURVE",
"852 -27 CURVE SMOOTH"
);
}
);
width = 1484;
},
{
anchors = (
{
name = bottom;
position = "{858, 0}";
},
{
name = top;
position = "{897, 1358}";
}
);
layerId = "D7B0979E-F273-40C0-A245-443BBF311E2D";
paths = (
{
closed = 1;
nodes = (
"956 -27 OFFCURVE",
"1027 -21 OFFCURVE",
"1234 11 CURVE SMOOTH",
"1352 29 OFFCURVE",
"1408 36 OFFCURVE",
"1426 30 CURVE",
"1426 128 LINE",
"1400 128 OFFCURVE",
"1379 130 OFFCURVE",
"1379 160 CURVE SMOOTH",
"1379 538 LINE",
"1212 450 LINE",
"1491 480 LINE",
"1491 572 LINE",
"796 572 LINE",
"796 480 LINE",
"1161 450 LINE",
"1023 538 LINE",
"1023 37 LINE",
"1205 200 LINE",
"1087 108 OFFCURVE",
"1007 78 OFFCURVE",
"902 78 CURVE SMOOTH",
"643 78 OFFCURVE",
"483 311 OFFCURVE",
"483 681 CURVE SMOOTH",
"483 1074 OFFCURVE",
"627 1289 OFFCURVE",
"898 1289 CURVE SMOOTH",
"1085 1289 OFFCURVE",
"1244 1153 OFFCURVE",
"1305 948 CURVE",
"1426 948 LINE",
"1435 1370 LINE",
"1311 1370 LINE",
"1283 1190 LINE",
"1373 1190 LINE",
"1225 1322 OFFCURVE",
"1039 1385 OFFCURVE",
"836 1385 CURVE SMOOTH",
"414 1385 OFFCURVE",
"52 1066 OFFCURVE",
"52 651 CURVE SMOOTH",
"52 231 OFFCURVE",
"412 -27 OFFCURVE",
"903 -27 CURVE SMOOTH"
);
}
);
width = 1517;
},
{
anchors = (
{
name = bottom;
position = "{880, 0}";
},
{
name = top;
position = "{863, 1358}";
}
);
layerId = "263E301B-CB05-4AC6-937D-92FF8A6DC5EF";
paths = (
{
closed = 1;
nodes = (
"970 -27 OFFCURVE",
"1063 -20 OFFCURVE",
"1263 18 CURVE SMOOTH",
"1377 40 OFFCURVE",
"1427 48 OFFCURVE",
"1436 46 CURVE",
"1436 99 LINE",
"1410 99 OFFCURVE",
"1393 114 OFFCURVE",
"1393 156 CURVE SMOOTH",
"1393 517 LINE",
"1305 451 LINE",
"1527 481 LINE",
"1527 552 LINE",
"968 552 LINE",
"968 481 LINE",
"1276 451 LINE",
"1200 517 LINE",
"1200 49 LINE",
"1292 167 LINE",
"1170 75 OFFCURVE",
"1014 49 OFFCURVE",
"899 49 CURVE SMOOTH",
"557 49 OFFCURVE",
"340 289 OFFCURVE",
"340 667 CURVE SMOOTH",
"340 1052 OFFCURVE",
"559 1315 OFFCURVE",
"878 1315 CURVE SMOOTH",
"1104 1315 OFFCURVE",
"1270 1180 OFFCURVE",
"1336 948 CURVE",
"1414 948 LINE",
"1419 1370 LINE",
"1339 1370 LINE",
"1310 1184 LINE",
"1375 1184 LINE",
"1226 1322 OFFCURVE",
"1058 1385 OFFCURVE",
"858 1385 CURVE SMOOTH",
"428 1385 OFFCURVE",
"114 1079 OFFCURVE",
"114 664 CURVE SMOOTH",
"114 253 OFFCURVE",
"418 -27 OFFCURVE",
"951 -27 CURVE SMOOTH"
);
}
);
width = 1577;
},
{
anchors = (
{
name = bottom;
position = "{763, 0}";
},
{
name = top;
position = "{732, 1358}";
}
);
layerId = "6B146B31-FE8A-4408-B9B5-0C900DD2277D";
paths = (
{
closed = 1;
nodes = (
"853 -27 OFFCURVE",
"947 -23 OFFCURVE",
"1103 12 CURVE SMOOTH",
"1193 32 OFFCURVE",
"1222 37 OFFCURVE",
"1282 46 CURVE",
"1282 96 LINE",
"1257 96 OFFCURVE",
"1244 113 OFFCURVE",
"1244 156 CURVE SMOOTH",
"1244 522 LINE",
"1163 461 LINE",
"1378 491 LINE",
"1378 551 LINE",
"839 551 LINE",
"839 491 LINE",
"1139 461 LINE",
"1068 522 LINE",
"1068 49 LINE",
"1154 165 LINE",
"1040 73 OFFCURVE",
"890 46 OFFCURVE",
"787 46 CURVE SMOOTH",
"470 46 OFFCURVE",
"258 300 OFFCURVE",
"258 682 CURVE SMOOTH",
"258 1059 OFFCURVE",
"464 1316 OFFCURVE",
"764 1316 CURVE SMOOTH",
"977 1316 OFFCURVE",
"1133 1183 OFFCURVE",
"1193 948 CURVE",
"1264 948 LINE",
"1269 1370 LINE",
"1198 1370 LINE",
"1167 1183 LINE",
"1229 1183 LINE",
"1090 1322 OFFCURVE",
"935 1385 OFFCURVE",
"749 1385 CURVE SMOOTH",
"348 1385 OFFCURVE",
"50 1081 OFFCURVE",
"50 670 CURVE SMOOTH",
"50 254 OFFCURVE",
"353 -27 OFFCURVE",
"787 -27 CURVE SMOOTH"
);
}
);
width = 1421;
},
{
anchors = (
{
name = bottom;
position = "{843, 0}";
},
{
name = top;
position = "{887, 1358}";
}
);
layerId = "5E933A09-8E8D-4B36-A510-2D2E8DB125C4";
paths = (
{
closed = 1;
nodes = (
"945 -27 OFFCURVE",
"1014 -22 OFFCURVE",
"1202 9 CURVE SMOOTH",
"1306 26 OFFCURVE",
"1375 29 OFFCURVE",
"1409 30 CURVE",
"1409 132 LINE",
"1378 132 OFFCURVE",
"1362 140 OFFCURVE",
"1362 169 CURVE SMOOTH",
"1362 540 LINE",
"1216 449 LINE",
"1471 479 LINE",
"1471 574 LINE",
"835 574 LINE",
"835 479 LINE",
"1165 449 LINE",
"1027 540 LINE",
"1027 31 LINE",
"1185 182 LINE",
"1077 104 OFFCURVE",
"994 79 OFFCURVE",
"904 79 CURVE SMOOTH",
"659 79 OFFCURVE",
"516 303 OFFCURVE",
"516 683 CURVE SMOOTH",
"516 1085 OFFCURVE",
"650 1286 OFFCURVE",
"910 1286 CURVE SMOOTH",
"1096 1286 OFFCURVE",
"1223 1172 OFFCURVE",
"1284 948 CURVE",
"1408 948 LINE",
"1416 1370 LINE",
"1291 1370 LINE",
"1262 1189 LINE",
"1353 1189 LINE",
"1208 1322 OFFCURVE",
"1020 1385 OFFCURVE",
"821 1385 CURVE SMOOTH",
"411 1385 OFFCURVE",
"49 1067 OFFCURVE",
"49 648 CURVE SMOOTH",
"49 229 OFFCURVE",
"410 -27 OFFCURVE",
"892 -27 CURVE SMOOTH"
);
}
);
width = 1496;
}
);
leftKerningGroup = C;
leftMetricsKey = "=O";
note = G;
rightKerningGroup = G;
rightMetricsKey = "=H*0.7";
unicode = 0047;
},
{
glyphname = uni021C;
lastChange = "2019-12-24 04:35:40 +0000";
layers = (
{
anchors = (
{
name = bottom;
position = "{515, 0}";
},
{
name = top;
position = "{516, 1358}";
}
);
layerId = "C5B93EC9-9EB6-4975-AE33-1741B73E6074";
paths = (
{
closed = 1;
nodes = (
"573 -137 OFFCURVE",
"983 74 OFFCURVE",
"983 431 CURVE SMOOTH",
"983 617 OFFCURVE",
"878 750 OFFCURVE",
"651 780 CURVE",
"651 729 LINE",
"824 839 OFFCURVE",
"905 947 OFFCURVE",
"905 1088 CURVE SMOOTH",
"905 1283 OFFCURVE",
"754 1385 OFFCURVE",
"537 1385 CURVE SMOOTH",
"366 1385 OFFCURVE",
"246 1325 OFFCURVE",
"116 1166 CURVE",
"165 1166 LINE",
"143 1370 LINE",
"92 1370 LINE",
"92 948 LINE",
"143 948 LINE",
"165 1156 OFFCURVE",
"299 1309 OFFCURVE",
"479 1309 CURVE SMOOTH",
"611 1309 OFFCURVE",
"699 1219 OFFCURVE",
"699 1069 CURVE SMOOTH",
"699 893 OFFCURVE",
"571 788 OFFCURVE",
"323 653 CURVE",
"362 596 LINE",
"435 659 OFFCURVE",
"499 675 OFFCURVE",
"551 675 CURVE SMOOTH",
"689 675 OFFCURVE",
"770 564 OFFCURVE",
"770 423 CURVE SMOOTH",
"770 118 OFFCURVE",
"409 -86 OFFCURVE",
"82 -86 CURVE",
"82 -137 LINE"
);
}
);
width = 1065;
},
{
anchors = (
{
name = bottom;
position = "{497, 0}";
},
{
name = top;
position = "{498, 1358}";
}
);
layerId = "5F1B95D2-E37F-4604-99C9-24FF8B5B0DBF";
paths = (
{
closed = 1;
nodes = (
"489 -156 OFFCURVE",
"924 89 OFFCURVE",
"924 451 CURVE SMOOTH",
"924 630 OFFCURVE",
"819 745 OFFCURVE",
"617 768 CURVE",
"617 736 LINE",
"772 852 OFFCURVE",
"843 964 OFFCURVE",
"843 1095 CURVE SMOOTH",
"843 1289 OFFCURVE",
"687 1386 OFFCURVE",
"516 1386 CURVE SMOOTH",
"373 1386 OFFCURVE",
"257 1322 OFFCURVE",
"131 1152 CURVE",
"170 1152 LINE",
"147 1370 LINE",
"107 1370 LINE",
"107 948 LINE",
"147 948 LINE",
"155 1156 OFFCURVE",
"308 1320 OFFCURVE",
"494 1320 CURVE SMOOTH",
"630 1320 OFFCURVE",
"735 1227 OFFCURVE",
"735 1067 CURVE SMOOTH",
"735 864 OFFCURVE",
"565 769 OFFCURVE",
"359 653 CURVE",
"389 610 LINE",
"459 666 OFFCURVE",
"521 682 OFFCURVE",
"574 682 CURVE SMOOTH",
"715 682 OFFCURVE",
"814 567 OFFCURVE",
"814 413 CURVE SMOOTH",
"814 83 OFFCURVE",
"372 -116 OFFCURVE",
"103 -116 CURVE",
"103 -156 LINE"
);
}
);
width = 1022;
},
{
anchors = (
{
name = bottom;
position = "{551, 0}";
},
{
name = top;
position = "{552, 1358}";
}
);
layerId = "D7B0979E-F273-40C0-A245-443BBF311E2D";
paths = (
{
closed = 1;
nodes = (
"741 -135 OFFCURVE",
"1101 21 OFFCURVE",
"1101 391 CURVE SMOOTH",
"1101 591 OFFCURVE",
"996 760 OFFCURVE",
"719 804 CURVE",
"719 715 LINE",
"928 813 OFFCURVE",
"1029 913 OFFCURVE",
"1029 1074 CURVE SMOOTH",
"1029 1271 OFFCURVE",
"888 1383 OFFCURVE",
"579 1383 CURVE SMOOTH",
"352 1383 OFFCURVE",
"224 1331 OFFCURVE",
"86 1194 CURVE",
"192 1194 LINE",
"172 1370 LINE",
"62 1370 LINE",
"62 948 LINE",
"172 948 LINE",
"219 1156 OFFCURVE",
"300 1287 OFFCURVE",
"449 1287 CURVE SMOOTH",
"573 1287 OFFCURVE",
"627 1203 OFFCURVE",
"627 1073 CURVE SMOOTH",
"627 951 OFFCURVE",
"583 826 OFFCURVE",
"251 653 CURVE",
"308 568 LINE",
"387 645 OFFCURVE",
"455 661 OFFCURVE",
"505 661 CURVE SMOOTH",
"637 661 OFFCURVE",
"682 558 OFFCURVE",
"682 443 CURVE SMOOTH",
"682 210 OFFCURVE",
"483 12 OFFCURVE",
"40 12 CURVE",
"40 -135 LINE"
);
}
);
width = 1153;
},
{
anchors = (
{
name = bottom;
position = "{536, 0}";
},
{
name = top;
position = "{537, 1358}";
}
);
layerId = "263E301B-CB05-4AC6-937D-92FF8A6DC5EF";
paths = (
{
closed = 1;
nodes = (
"594 -151 OFFCURVE",
"1018 63 OFFCURVE",
"1018 428 CURVE SMOOTH",
"1018 616 OFFCURVE",
"907 750 OFFCURVE",
"674 780 CURVE",
"674 729 LINE",
"852 839 OFFCURVE",
"937 950 OFFCURVE",
"937 1092 CURVE SMOOTH",
"937 1283 OFFCURVE",
"787 1385 OFFCURVE",
"562 1385 CURVE SMOOTH",
"383 1385 OFFCURVE",
"274 1325 OFFCURVE",
"118 1167 CURVE",
"190 1167 LINE",
"168 1370 LINE",
"93 1370 LINE",
"93 948 LINE",
"168 948 LINE",
"198 1155 OFFCURVE",
"324 1308 OFFCURVE",
"503 1308 CURVE SMOOTH",
"644 1308 OFFCURVE",
"720 1219 OFFCURVE",
"720 1074 CURVE SMOOTH",
"720 888 OFFCURVE",
"589 785 OFFCURVE",
"331 653 CURVE",
"373 595 LINE",
"443 659 OFFCURVE",
"510 675 OFFCURVE",
"566 675 CURVE SMOOTH",
"714 675 OFFCURVE",
"797 564 OFFCURVE",
"797 423 CURVE SMOOTH",
"797 128 OFFCURVE",
"424 -69 OFFCURVE",
"83 -69 CURVE",
"83 -151 LINE"
);
}
);
width = 1132;
},
{
anchors = (
{
name = bottom;
position = "{494, 0}";
},
{
name = top;
position = "{495, 1358}";
}
);
layerId = "6B146B31-FE8A-4408-B9B5-0C900DD2277D";
paths = (
{
closed = 1;
nodes = (
"548 -151 OFFCURVE",
"945 67 OFFCURVE",
"945 434 CURVE SMOOTH",
"945 618 OFFCURVE",
"846 749 OFFCURVE",
"627 778 CURVE",
"627 729 LINE",
"793 840 OFFCURVE",
"870 944 OFFCURVE",
"870 1084 CURVE SMOOTH",
"870 1283 OFFCURVE",
"718 1385 OFFCURVE",
"511 1385 CURVE SMOOTH",
"349 1385 OFFCURVE",
"218 1325 OFFCURVE",
"114 1164 CURVE",
"181 1164 LINE",
"160 1370 LINE",
"92 1370 LINE",
"92 948 LINE",
"160 948 LINE",
"171 1156 OFFCURVE",
"297 1310 OFFCURVE",
"456 1310 CURVE SMOOTH",
"579 1310 OFFCURVE",
"679 1219 OFFCURVE",
"679 1064 CURVE SMOOTH",
"679 896 OFFCURVE",
"553 790 OFFCURVE",
"316 653 CURVE",
"353 597 LINE",
"428 660 OFFCURVE",
"489 676 OFFCURVE",
"537 676 CURVE SMOOTH",
"665 676 OFFCURVE",
"745 564 OFFCURVE",
"745 422 CURVE SMOOTH",
"745 122 OFFCURVE",
"392 -76 OFFCURVE",
"82 -76 CURVE",
"82 -151 LINE"
);
}
);
width = 996;
},
{
anchors = (
{
name = bottom;
position = "{514, 0}";
},
{
name = top;
position = "{515, 1358}";
}
);
layerId = "5E933A09-8E8D-4B36-A510-2D2E8DB125C4";
paths = (
{
closed = 1;
nodes = (
"690 -132 OFFCURVE",
"1009 18 OFFCURVE",
"1009 389 CURVE SMOOTH",
"1009 589 OFFCURVE",
"917 761 OFFCURVE",
"657 808 CURVE",
"657 712 LINE",
"853 810 OFFCURVE",
"945 911 OFFCURVE",
"945 1075 CURVE SMOOTH",
"945 1269 OFFCURVE",
"820 1383 OFFCURVE",
"527 1383 CURVE SMOOTH",
"307 1383 OFFCURVE",
"196 1326 OFFCURVE",
"70 1195 CURVE",
"169 1195 LINE",
"154 1370 LINE",
"50 1370 LINE",
"50 948 LINE",
"154 948 LINE",
"199 1158 OFFCURVE",
"277 1287 OFFCURVE",
"408 1287 CURVE SMOOTH",
"518 1287 OFFCURVE",
"571 1201 OFFCURVE",
"571 1076 CURVE SMOOTH",
"571 962 OFFCURVE",
"536 833 OFFCURVE",
"215 652 CURVE",
"271 565 LINE",
"338 642 OFFCURVE",
"399 661 OFFCURVE",
"446 661 CURVE SMOOTH",
"563 661 OFFCURVE",
"598 553 OFFCURVE",
"598 445 CURVE SMOOTH",
"598 219 OFFCURVE",
"446 19 OFFCURVE",
"28 19 CURVE",
"28 -132 LINE"
);
}
);
width = 1065;
}
);
note = uni021C;
rightMetricsKey = O;
unicode = 021C;
},
{
glyphname = H;
lastChange = "2019-12-24 04:38:02 +0000";
layers = (
{
anchors = (
{
name = bottom;
position = "{831, 0}";
},
{
name = center;
position = "{831, 679}";
},
{
name = ogonek;
position = "{1568, 10}";
},
{
name = top;
position = "{831, 1358}";
},
{
name = topleft;
position = "{32, 1358}";
}
);
layerId = "C5B93EC9-9EB6-4975-AE33-1741B73E6074";
paths = (
{
closed = 1;
nodes = (
"450 20 LINE",
"450 1338 LINE",
"263 1338 LINE",
"263 20 LINE"
);
},
{
closed = 1;
nodes = (
"1459 20 LINE",
"1459 1338 LINE",
"1273 1338 LINE",
"1273 20 LINE"
);
},
{
closed = 1;
nodes = (
"1312 670 LINE",
"1312 731 LINE",
"396 731 LINE",
"396 670 LINE"
);
},
{
closed = 1;
nodes = (
"652 0 LINE",
"652 51 LINE",
"359 76 LINE",
"62 51 LINE",
"62 0 LINE"
);
},
{
closed = 1;
nodes = (
"1660 0 LINE",
"1660 51 LINE",
"1368 76 LINE",
"1071 51 LINE",
"1071 0 LINE"
);
},
{
closed = 1;
nodes = (
"652 1307 LINE",
"652 1358 LINE",
"62 1358 LINE",
"62 1307 LINE",
"351 1282 LINE"
);
},
{
closed = 1;
nodes = (
"1660 1307 LINE",
"1660 1358 LINE",
"1071 1358 LINE",
"1071 1307 LINE",
"1360 1282 LINE"
);
}
);
width = 1722;
},
{
anchors = (
{
name = bottom;
position = "{798, 0}";
},
{
name = center;
position = "{798, 679}";
},
{
name = ogonek;
position = "{1537, 10}";
},
{
name = top;
position = "{798, 1358}";
},
{
name = topleft;
position = "{24, 1358}";
}
);
layerId = "5F1B95D2-E37F-4604-99C9-24FF8B5B0DBF";
paths = (
{
closed = 1;
nodes = (
"382 29 LINE",
"382 1327 LINE",
"280 1327 LINE",
"280 29 LINE"
);
},
{
closed = 1;
nodes = (
"1379 29 LINE",
"1379 1327 LINE",
"1277 1327 LINE",
"1277 29 LINE"
);
},
{
closed = 1;
nodes = (
"1324 680 LINE",
"1324 722 LINE",
"340 722 LINE",
"340 680 LINE"
);
},
{
closed = 1;
nodes = (
"590 0 LINE",
"590 40 LINE",
"335 60 LINE",
"72 40 LINE",
"72 0 LINE"
);
},
{
closed = 1;
nodes = (
"1586 0 LINE",
"1586 40 LINE",
"1332 60 LINE",
"1069 40 LINE",
"1069 0 LINE"
);
},
{
closed = 1;
nodes = (
"590 1318 LINE",
"590 1358 LINE",
"72 1358 LINE",
"72 1318 LINE",
"330 1298 LINE"
);
},
{
closed = 1;
nodes = (
"1586 1318 LINE",
"1586 1358 LINE",
"1069 1358 LINE",
"1069 1318 LINE",
"1327 1298 LINE"
);
}
);
width = 1658;
},
{
anchors = (
{
name = bottom;
position = "{892, 0}";
},
{
name = center;
position = "{892, 679}";
},
{
name = ogonek;
position = "{1625, 10}";
},
{
name = top;
position = "{892, 1358}";
},
{
name = topleft;
position = "{43, 1358}";
}
);
layerId = "D7B0979E-F273-40C0-A245-443BBF311E2D";
paths = (
{
closed = 1;
nodes = (
"581 41 LINE",
"581 1306 LINE",
"224 1306 LINE",
"224 41 LINE"
);
},
{
closed = 1;
nodes = (
"1614 41 LINE",
"1614 1306 LINE",
"1260 1306 LINE",
"1260 41 LINE"
);
},
{
closed = 1;
nodes = (
"1283 644 LINE",
"1283 754 LINE",
"503 754 LINE",
"503 644 LINE"
);
},
{
closed = 1;
nodes = (
"771 0 LINE",
"771 86 LINE",
"402 116 LINE",
"37 86 LINE",
"37 0 LINE"
);
},
{
closed = 1;
nodes = (
"1803 0 LINE",
"1803 86 LINE",
"1435 116 LINE",
"1070 86 LINE",
"1070 0 LINE"
);
},
{
closed = 1;
nodes = (
"771 1272 LINE",
"771 1358 LINE",
"37 1358 LINE",
"37 1272 LINE",
"388 1242 LINE"
);
},
{
closed = 1;
nodes = (
"1803 1272 LINE",
"1803 1358 LINE",
"1070 1358 LINE",
"1070 1272 LINE",
"1421 1242 LINE"
);
}
);
width = 1840;
},
{
anchors = (
{
name = bottom;
position = "{844, 0}";
},
{
name = center;
position = "{844, 679}";
},
{
name = ogonek;
position = "{1581, 10}";
},
{
name = top;
position = "{844, 1358}";
},
{
name = topleft;
position = "{43, 1358}";
}
);
layerId = "263E301B-CB05-4AC6-937D-92FF8A6DC5EF";
paths = (
{
closed = 1;
nodes = (
"476 33 LINE",
"476 1318 LINE",
"282 1318 LINE",
"282 33 LINE"
);
},
{
closed = 1;
nodes = (
"1518 33 LINE",
"1518 1318 LINE",
"1326 1318 LINE",
"1326 33 LINE"
);
},
{
closed = 1;
nodes = (
"1354 659 LINE",
"1354 740 LINE",
"431 740 LINE",
"431 659 LINE"
);
},
{
closed = 1;
nodes = (
"685 0 LINE",
"685 59 LINE",
"381 89 LINE",
"72 59 LINE",
"72 0 LINE"
);
},
{
closed = 1;
nodes = (
"1726 0 LINE",
"1726 59 LINE",
"1423 89 LINE",
"1116 59 LINE",
"1116 0 LINE"
);
},
{
closed = 1;
nodes = (
"685 1299 LINE",
"685 1358 LINE",
"72 1358 LINE",
"72 1299 LINE",
"372 1269 LINE"
);
},
{
closed = 1;
nodes = (
"1726 1299 LINE",
"1726 1358 LINE",
"1116 1358 LINE",
"1116 1299 LINE",
"1414 1269 LINE"
);
}
);
width = 1798;
},
{
anchors = (
{
name = bottom;
position = "{826, 0}";
},
{
name = center;
position = "{826, 679}";
},
{
name = ogonek;
position = "{1564, 10}";
},
{
name = top;
position = "{826, 1358}";
},
{
name = topleft;
position = "{30, 1358}";
}
);
layerId = "6B146B31-FE8A-4408-B9B5-0C900DD2277D";
paths = (
{
closed = 1;
nodes = (
"432 32 LINE",
"432 1323 LINE",
"256 1323 LINE",
"256 32 LINE"
);
},
{
closed = 1;
nodes = (
"1406 32 LINE",
"1406 1323 LINE",
"1230 1323 LINE",
"1230 32 LINE"
);
},
{
closed = 1;
nodes = (
"1280 665 LINE",
"1280 736 LINE",
"369 736 LINE",
"369 665 LINE"
);
},
{
closed = 1;
nodes = (
"627 0 LINE",
"627 56 LINE",
"346 86 LINE",
"62 56 LINE",
"62 0 LINE"
);
},
{
closed = 1;
nodes = (
"1601 0 LINE",
"1601 56 LINE",
"1322 86 LINE",
"1036 56 LINE",
"1036 0 LINE"
);
},
{
closed = 1;
nodes = (
"627 1302 LINE",
"627 1358 LINE",
"62 1358 LINE",
"62 1302 LINE",
"340 1272 LINE"
);
},
{
closed = 1;
nodes = (
"1601 1302 LINE",
"1601 1358 LINE",
"1036 1358 LINE",
"1036 1302 LINE",
"1314 1272 LINE"
);
}
);
width = 1663;
},
{
anchors = (
{
name = bottom;
position = "{859, 566}";
},
{
name = center;
position = "{859, 113}";
},
{
name = ogonek;
position = "{1540, 10}";
},
{
name = top;
position = "{859, 1358}";
},
{
name = topleft;
position = "{5, 1358}";
}
);
layerId = "5E933A09-8E8D-4B36-A510-2D2E8DB125C4";
paths = (
{
closed = 1;
nodes = (
"550 40 LINE",
"550 1306 LINE",
"207 1306 LINE",
"207 40 LINE"
);
},
{
closed = 1;
nodes = (
"1517 40 LINE",
"1517 1306 LINE",
"1174 1306 LINE",
"1174 40 LINE"
);
},
{
closed = 1;
nodes = (
"1204 644 LINE",
"1204 757 LINE",
"463 757 LINE",
"463 644 LINE"
);
},
{
closed = 1;
nodes = (
"721 0 LINE",
"721 87 LINE",
"376 117 LINE",
"36 87 LINE",
"36 0 LINE"
);
},
{
closed = 1;
nodes = (
"1686 0 LINE",
"1686 87 LINE",
"1342 117 LINE",
"1003 87 LINE",
"1003 0 LINE"
);
},
{
closed = 1;
nodes = (
"721 1271 LINE",
"721 1358 LINE",
"36 1358 LINE",
"36 1271 LINE",
"363 1241 LINE"
);
},
{
closed = 1;
nodes = (
"1686 1271 LINE",
"1686 1358 LINE",
"1003 1358 LINE",
"1003 1271 LINE",
"1339 1241 LINE"
);
}
);
width = 1722;
}
);
note = H;
rightKerningGroup = H;
unicode = 0048;
},
{
glyphname = I;
lastChange = "2019-12-24 04:39:31 +0000";
layers = (
{
anchors = (
{
name = bottom;
position = "{344, 0}";
},
{
name = ogonek;
position = "{586, 10}";
},
{
name = top;
position = "{341, 1358}";
}
);
layerId = "C5B93EC9-9EB6-4975-AE33-1741B73E6074";
paths = (
{
closed = 1;
nodes = (
"443 20 LINE",
"443 1338 LINE",
"256 1338 LINE",
"256 20 LINE"
);
},
{
closed = 1;
nodes = (
"638 0 LINE",
"638 51 LINE",
"352 76 LINE",
"62 51 LINE",
"62 0 LINE"
);
},
{
closed = 1;
nodes = (
"638 1307 LINE",
"638 1358 LINE",
"62 1358 LINE",
"62 1307 LINE",
"344 1282 LINE"
);
}
);
width = 700;
},
{
anchors = (
{
name = bottom;
position = "{324, 0}";
},
{
name = ogonek;
position = "{549, 10}";
},
{
name = top;
position = "{321, 1358}";
}
);
layerId = "5F1B95D2-E37F-4604-99C9-24FF8B5B0DBF";
paths = (
{
closed = 1;
nodes = (
"375 22 LINE",
"375 1327 LINE",
"273 1327 LINE",
"273 22 LINE"
);
},
{
closed = 1;
nodes = (
"577 0 LINE",
"577 40 LINE",
"328 60 LINE",
"72 40 LINE",
"72 0 LINE"
);
},
{
closed = 1;
nodes = (
"577 1318 LINE",
"577 1358 LINE",
"72 1358 LINE",
"72 1318 LINE",
"323 1294 LINE"
);
}
);
width = 649;
},
{
anchors = (
{
name = bottom;
position = "{379, 0}";
},
{
name = ogonek;
position = "{655, 10}";
},
{
name = top;
position = "{376, 1358}";
}
);
layerId = "D7B0979E-F273-40C0-A245-443BBF311E2D";
paths = (
{
closed = 1;
nodes = (
"574 43 LINE",
"574 1306 LINE",
"217 1306 LINE",
"217 43 LINE"
);
},
{
closed = 1;
nodes = (
"755 0 LINE",
"755 86 LINE",
"395 116 LINE",
"37 86 LINE",
"37 0 LINE"
);
},
{
closed = 1;
nodes = (
"755 1272 LINE",
"755 1358 LINE",
"37 1358 LINE",
"37 1272 LINE",
"381 1242 LINE"
);
}
);
width = 792;
},
{
anchors = (
{
name = bottom;
position = "{364, 0}";
},
{
name = ogonek;
position = "{619, 10}";
},
{
name = top;
position = "{358, 1358}";
}
);
layerId = "263E301B-CB05-4AC6-937D-92FF8A6DC5EF";
paths = (
{
closed = 1;
nodes = (
"462 30 LINE",
"462 1318 LINE",
"268 1318 LINE",
"268 30 LINE"
);
},
{
closed = 1;
nodes = (
"656 0 LINE",
"656 59 LINE",
"367 89 LINE",
"72 59 LINE",
"72 0 LINE"
);
},
{
closed = 1;
nodes = (
"656 1299 LINE",
"656 1358 LINE",
"72 1358 LINE",
"72 1299 LINE",
"358 1269 LINE"
);
}
);
width = 728;
},
{
anchors = (
{
name = bottom;
position = "{334, 0}";
},
{
name = ogonek;
position = "{561, 10}";
},
{
name = top;
position = "{334, 1358}";
}
);
layerId = "6B146B31-FE8A-4408-B9B5-0C900DD2277D";
paths = (
{
closed = 1;
nodes = (
"432 28 LINE",
"432 1323 LINE",
"256 1323 LINE",
"256 28 LINE"
);
},
{
closed = 1;
nodes = (
"627 0 LINE",
"627 56 LINE",
"346 86 LINE",
"62 56 LINE",
"62 0 LINE"
);
},
{
closed = 1;
nodes = (
"627 1302 LINE",
"627 1358 LINE",
"62 1358 LINE",
"62 1302 LINE",
"340 1272 LINE"
);
}
);
width = 689;
},
{
anchors = (
{
name = bottom;
position = "{352, 0}";
},
{
name = ogonek;
position = "{611, 10}";
},
{
name = top;
position = "{349, 1358}";
}
);
layerId = "5E933A09-8E8D-4B36-A510-2D2E8DB125C4";
paths = (
{
closed = 1;
nodes = (
"522 43 LINE",
"522 1306 LINE",
"179 1306 LINE",
"179 43 LINE"
);
},
{
closed = 1;
nodes = (
"664 0 LINE",
"664 87 LINE",
"347 117 LINE",
"36 87 LINE",
"36 0 LINE"
);
},
{
closed = 1;
nodes = (
"664 1271 LINE",
"664 1358 LINE",
"36 1358 LINE",
"36 1271 LINE",
"334 1241 LINE"
);
}
);
width = 700;
}
);
leftMetricsKey = H;
note = I;
rightKerningGroup = H;
rightMetricsKey = H;
unicode = 0049;
},
{
glyphname = J;
lastChange = "2019-12-24 04:40:21 +0000";
layers = (
{
anchors = (
{
name = bottom;
position = "{369, 0}";
},
{
name = top;
position = "{373, 1358}";
}
);
guideLines = (
{
position = "{621, 273}";
}
);
layerId = "C5B93EC9-9EB6-4975-AE33-1741B73E6074";
paths = (
{
closed = 1;
nodes = (
"405 -545 OFFCURVE",
"472 -282 OFFCURVE",
"472 273 CURVE SMOOTH",
"472 1338 LINE",
"285 1338 LINE",
"285 133 LINE SMOOTH",
"285 -349 OFFCURVE",
"276 -434 OFFCURVE",
"222 -434 CURVE SMOOTH",
"186 -434 OFFCURVE",
"167 -415 OFFCURVE",
"148 -393 CURVE SMOOTH",
"125 -367 OFFCURVE",
"99 -341 OFFCURVE",
"39 -341 CURVE SMOOTH",
"-30 -341 OFFCURVE",
"-72 -378 OFFCURVE",
"-72 -438 CURVE SMOOTH",
"-72 -504 OFFCURVE",
"-21 -545 OFFCURVE",
"98 -545 CURVE SMOOTH"
);
},
{
closed = 1;
nodes = (
"666 1307 LINE",
"666 1358 LINE",
"89 1358 LINE",
"89 1307 LINE",
"373 1282 LINE"
);
}
);
width = 712;
},
{
anchors = (
{
name = bottom;
position = "{288, 0}";
},
{
name = top;
position = "{292, 1358}";
}
);
background = {
paths = (
{
closed = 0;
nodes = (
"67 -545 LINE SMOOTH"
);
}
);
};
guideLines = (
{
position = "{621, 273}";
}
);
layerId = "5F1B95D2-E37F-4604-99C9-24FF8B5B0DBF";
paths = (
{
closed = 1;
nodes = (
"306 -545 OFFCURVE",
"341 -361 OFFCURVE",
"341 273 CURVE SMOOTH",
"341 1327 LINE",
"240 1327 LINE",
"240 135 LINE SMOOTH",
"240 -361 OFFCURVE",
"232 -448 OFFCURVE",
"169 -448 CURVE SMOOTH",
"142 -448 OFFCURVE",
"126 -433 OFFCURVE",
"108 -416 CURVE SMOOTH",
"87 -396 OFFCURVE",
"64 -375 OFFCURVE",
"20 -375 CURVE SMOOTH",
"-36 -375 OFFCURVE",
"-75 -408 OFFCURVE",
"-75 -457 CURVE SMOOTH",
"-75 -492 OFFCURVE",
"-55 -545 OFFCURVE",
"67 -545 CURVE SMOOTH"
);
},
{
closed = 1;
nodes = (
"542 1318 LINE",
"542 1358 LINE",
"37 1358 LINE",
"37 1318 LINE",
"290 1298 LINE"
);
}
);
width = 602;
},
{
anchors = (
{
name = bottom;
position = "{531, 0}";
},
{
name = top;
position = "{535, 1358}";
}
);
guideLines = (
{
position = "{621, 273}";
}
);
layerId = "D7B0979E-F273-40C0-A245-443BBF311E2D";
paths = (
{
closed = 1;
nodes = (
"612 -545 OFFCURVE",
"732 -158 OFFCURVE",
"732 273 CURVE SMOOTH",
"732 1306 LINE",
"375 1306 LINE",
"375 129 LINE SMOOTH",
"375 -300 OFFCURVE",
"369 -352 OFFCURVE",
"321 -352 CURVE SMOOTH",
"277 -352 OFFCURVE",
"257 -330 OFFCURVE",
"241 -311 CURVE SMOOTH",
"219 -284 OFFCURVE",
"175 -255 OFFCURVE",
"111 -255 CURVE SMOOTH",
"26 -255 OFFCURVE",
"-37 -298 OFFCURVE",
"-37 -392 CURVE SMOOTH",
"-37 -495 OFFCURVE",
"58 -545 OFFCURVE",
"174 -545 CURVE SMOOTH"
);
},
{
closed = 1;
nodes = (
"914 1272 LINE",
"914 1358 LINE",
"193 1358 LINE",
"193 1272 LINE",
"539 1242 LINE"
);
}
);
width = 932;
},
{
anchors = (
{
name = bottom;
position = "{371, 0}";
},
{
name = top;
position = "{378, 1358}";
}
);
guideLines = (
{
position = "{621, 273}";
}
);
layerId = "263E301B-CB05-4AC6-937D-92FF8A6DC5EF";
paths = (
{
closed = 1;
nodes = (
"412 -545 OFFCURVE",
"480 -282 OFFCURVE",
"480 273 CURVE SMOOTH",
"480 1320 LINE",
"285 1320 LINE",
"285 133 LINE SMOOTH",
"285 -349 OFFCURVE",
"276 -434 OFFCURVE",
"222 -434 CURVE SMOOTH",
"186 -434 OFFCURVE",
"167 -415 OFFCURVE",
"148 -393 CURVE SMOOTH",
"125 -367 OFFCURVE",
"99 -341 OFFCURVE",
"39 -341 CURVE SMOOTH",
"-30 -341 OFFCURVE",
"-72 -378 OFFCURVE",
"-72 -438 CURVE SMOOTH",
"-72 -504 OFFCURVE",
"-21 -545 OFFCURVE",
"98 -545 CURVE SMOOTH"
);
},
{
closed = 1;
nodes = (
"675 1300 LINE",
"675 1358 LINE",
"89 1358 LINE",
"89 1300 LINE",
"373 1270 LINE"
);
}
);
width = 721;
},
{
anchors = (
{
name = bottom;
position = "{363, 0}";
},
{
name = top;
position = "{363, 1358}";
}
);
background = {
paths = (
{
closed = 1;
nodes = (
"106 -545 OFFCURVE",
"161 -528 OFFCURVE",
"214 -494 CURVE SMOOTH",
"375 -386 OFFCURVE",
"439 -198 OFFCURVE",
"450 73 CURVE SMOOTH",
"456 213 OFFCURVE",
"458 356 OFFCURVE",
"458 507 CURVE SMOOTH",
"458 1322 LINE",
"282 1322 LINE",
"282 132 LINE SMOOTH",
"282 -124 OFFCURVE",
"272 -427 OFFCURVE",
"181 -427 CURVE SMOOTH",
"156 -427 OFFCURVE",
"130 -407 OFFCURVE",
"114 -388 CURVE SMOOTH",
"95 -366 OFFCURVE",
"59 -339 OFFCURVE",
"13 -339 CURVE SMOOTH",
"-44 -339 OFFCURVE",
"-89 -379 OFFCURVE",
"-89 -435 CURVE SMOOTH",
"-89 -499 OFFCURVE",
"-28 -545 OFFCURVE",
"53 -545 CURVE SMOOTH"
);
},
{
closed = 1;
nodes = (
"651 1302 LINE",
"651 1358 LINE",
"87 1358 LINE",
"87 1302 LINE",
"366 1272 LINE"
);
}
);
};
guideLines = (
{
position = "{621, 273}";
}
);
layerId = "6B146B31-FE8A-4408-B9B5-0C900DD2277D";
paths = (
{
closed = 1;
nodes = (
"396 -545 OFFCURVE",
"461 -282 OFFCURVE",
"461 273 CURVE SMOOTH",
"461 1320 LINE",
"285 1320 LINE",
"285 133 LINE SMOOTH",
"285 -349 OFFCURVE",
"276 -434 OFFCURVE",
"222 -434 CURVE SMOOTH",
"186 -434 OFFCURVE",
"167 -415 OFFCURVE",
"148 -393 CURVE SMOOTH",
"125 -367 OFFCURVE",
"99 -341 OFFCURVE",
"39 -341 CURVE SMOOTH",
"-30 -341 OFFCURVE",
"-72 -378 OFFCURVE",
"-72 -438 CURVE SMOOTH",
"-72 -504 OFFCURVE",
"-21 -545 OFFCURVE",
"98 -545 CURVE SMOOTH"
);
},
{
closed = 1;
nodes = (
"651 1302 LINE",
"651 1358 LINE",
"87 1358 LINE",
"87 1302 LINE",
"366 1272 LINE"
);
}
);
width = 698;
},
{
anchors = (
{
name = bottom;
position = "{419, 0}";
},
{
name = top;
position = "{423, 1358}";
}
);
guideLines = (
{
position = "{621, 273}";
}
);
layerId = "5E933A09-8E8D-4B36-A510-2D2E8DB125C4";
paths = (
{
closed = 1;
nodes = (
"496 -545 OFFCURVE",
"613 -158 OFFCURVE",
"613 273 CURVE SMOOTH",
"613 1306 LINE",
"269 1306 LINE",
"269 129 LINE SMOOTH",
"269 -300 OFFCURVE",
"263 -352 OFFCURVE",
"215 -352 CURVE SMOOTH",
"171 -352 OFFCURVE",
"151 -330 OFFCURVE",
"135 -311 CURVE SMOOTH",
"113 -284 OFFCURVE",
"69 -255 OFFCURVE",
"5 -255 CURVE SMOOTH",
"-80 -255 OFFCURVE",
"-143 -298 OFFCURVE",
"-143 -392 CURVE SMOOTH",
"-143 -495 OFFCURVE",
"-48 -545 OFFCURVE",
"68 -545 CURVE SMOOTH"
);
},
{
closed = 1;
nodes = (
"739 1271 LINE",
"739 1358 LINE",
"140 1358 LINE",
"140 1271 LINE",
"423 1241 LINE"
);
}
);
width = 712;
}
);
leftKerningGroup = J;
note = J;
rightKerningGroup = J;
unicode = 004A;
},
{
glyphname = K;
lastChange = "2019-12-24 04:42:34 +0000";
layers = (
{
anchors = (
{
name = bottom;
position = "{697, 0}";
},
{
name = top;
position = "{697, 1358}";
}
);
layerId = "C5B93EC9-9EB6-4975-AE33-1741B73E6074";
paths = (
{
closed = 1;
nodes = (
"1261 20 LINE",
"636 747 LINE",
"1151 1338 LINE",
"1014 1338 LINE",
"571 815 LINE SMOOTH",
"551 792 OFFCURVE",
"497 732 OFFCURVE",
"467 732 CURVE SMOOTH",
"397 732 LINE",
"397 628 LINE",
"467 628 LINE SMOOTH",
"514 628 OFFCURVE",
"566 583 OFFCURVE",
"605 534 CURVE SMOOTH",
"1020 20 LINE"
);
},
{
closed = 1;
nodes = (
"638 0 LINE",
"638 51 LINE",
"352 76 LINE",
"62 51 LINE",
"62 0 LINE"
);
},
{
closed = 1;
nodes = (
"443 20 LINE",
"443 1338 LINE",
"256 1338 LINE",
"256 20 LINE"
);
},
{
closed = 1;
nodes = (
"1363 0 LINE",
"1363 51 LINE",
"1110 67 LINE",
"799 51 LINE",
"799 0 LINE"
);
},
{
closed = 1;
nodes = (
"638 1307 LINE",
"638 1358 LINE",
"62 1358 LINE",
"62 1307 LINE",
"344 1282 LINE"
);
},
{
closed = 1;
nodes = (
"1242 1307 LINE",
"1242 1358 LINE",
"832 1358 LINE",
"832 1307 LINE",
"1038 1282 LINE"
);
}
);
width = 1402;
},
{
anchors = (
{
name = bottom;
position = "{640, 0}";
},
{
name = top;
position = "{640, 1358}";
}
);
layerId = "5F1B95D2-E37F-4604-99C9-24FF8B5B0DBF";
paths = (
{
closed = 1;
nodes = (
"1138 22 LINE",
"539 737 LINE",
"1045 1327 LINE",
"957 1327 LINE",
"527 798 LINE SMOOTH",
"482 742 OFFCURVE",
"434 697 OFFCURVE",
"396 697 CURVE SMOOTH",
"335 697 LINE",
"335 657 LINE",
"396 657 LINE SMOOTH",
"459 657 OFFCURVE",
"526 600 OFFCURVE",
"573 541 CURVE SMOOTH",
"982 22 LINE"
);
},
{
closed = 1;
nodes = (
"577 0 LINE",
"577 40 LINE",
"328 59 LINE",
"72 40 LINE",
"72 0 LINE"
);
},
{
closed = 1;
nodes = (
"375 22 LINE",
"375 1327 LINE",
"273 1327 LINE",
"273 22 LINE"
);
},
{
closed = 1;
nodes = (
"1247 0 LINE",
"1247 40 LINE",
"1038 60 LINE",
"759 40 LINE",
"759 0 LINE"
);
},
{
closed = 1;
nodes = (
"577 1318 LINE",
"577 1358 LINE",
"72 1358 LINE",
"72 1318 LINE",
"323 1299 LINE"
);
},
{
closed = 1;
nodes = (
"1147 1318 LINE",
"1147 1358 LINE",
"791 1358 LINE",
"791 1318 LINE",
"974 1298 LINE"
);
}
);
width = 1285;
},
{
anchors = (
{
name = bottom;
position = "{806, 0}";
},
{
name = top;
position = "{806, 1358}";
}
);
layerId = "D7B0979E-F273-40C0-A245-443BBF311E2D";
paths = (
{
closed = 1;
nodes = (
"1478 43 LINE",
"825 767 LINE",
"1313 1306 LINE",
"1078 1306 LINE",
"654 829 LINE SMOOTH",
"626 798 OFFCURVE",
"618 792 OFFCURVE",
"604 792 CURVE SMOOTH",
"516 792 LINE",
"516 578 LINE",
"597 578 LINE SMOOTH",
"612 578 OFFCURVE",
"638 550 OFFCURVE",
"664 520 CURVE SMOOTH",
"1067 43 LINE"
);
},
{
closed = 1;
nodes = (
"755 0 LINE",
"755 86 LINE",
"395 116 LINE",
"37 86 LINE",
"37 0 LINE"
);
},
{
closed = 1;
nodes = (
"574 43 LINE",
"574 1306 LINE",
"217 1306 LINE",
"217 43 LINE"
);
},
{
closed = 1;
nodes = (
"1590 0 LINE",
"1590 86 LINE",
"1225 114 LINE",
"874 86 LINE",
"874 0 LINE"
);
},
{
closed = 1;
nodes = (
"755 1272 LINE",
"755 1358 LINE",
"37 1358 LINE",
"37 1272 LINE",
"381 1242 LINE"
);
},
{
closed = 1;
nodes = (
"1427 1272 LINE",
"1427 1358 LINE",
"909 1358 LINE",
"909 1272 LINE",
"1161 1244 LINE"
);
}
);
width = 1631;
},
{
anchors = (
{
name = bottom;
position = "{711, 0}";
},
{
name = top;
position = "{711, 1358}";
}
);
layerId = "263E301B-CB05-4AC6-937D-92FF8A6DC5EF";
paths = (
{
closed = 1;
nodes = (
"1303 30 LINE",
"663 749 LINE",
"1178 1318 LINE",
"1036 1318 LINE",
"593 815 LINE SMOOTH",
"571 792 OFFCURVE",
"518 736 OFFCURVE",
"487 736 CURVE SMOOTH",
"420 736 LINE",
"420 624 LINE",
"487 624 LINE SMOOTH",
"537 624 OFFCURVE",
"586 582 OFFCURVE",
"625 534 CURVE SMOOTH",
"1047 30 LINE"
);
},
{
closed = 1;
nodes = (
"656 0 LINE",
"656 59 LINE",
"367 89 LINE",
"72 59 LINE",
"72 0 LINE"
);
},
{
closed = 1;
nodes = (
"462 30 LINE",
"462 1318 LINE",
"268 1318 LINE",
"268 30 LINE"
);
},
{
closed = 1;
nodes = (
"1405 0 LINE",
"1405 59 LINE",
"1135 88 LINE",
"825 59 LINE",
"825 0 LINE"
);
},
{
closed = 1;
nodes = (
"656 1299 LINE",
"656 1358 LINE",
"72 1358 LINE",
"72 1299 LINE",
"358 1269 LINE"
);
},
{
closed = 1;
nodes = (
"1278 1299 LINE",
"1278 1358 LINE",
"859 1358 LINE",
"859 1299 LINE",
"1073 1270 LINE"
);
}
);
width = 1461;
},
{
anchors = (
{
name = bottom;
position = "{690, 0}";
},
{
name = top;
position = "{690, 1358}";
}
);
layerId = "6B146B31-FE8A-4408-B9B5-0C900DD2277D";
paths = (
{
closed = 1;
nodes = (
"1207 28 LINE",
"614 744 LINE",
"1100 1323 LINE",
"971 1323 LINE",
"557 815 LINE SMOOTH",
"539 792 OFFCURVE",
"483 726 OFFCURVE",
"454 726 CURVE SMOOTH",
"381 726 LINE",
"381 633 LINE",
"454 633 LINE SMOOTH",
"498 633 OFFCURVE",
"554 585 OFFCURVE",
"594 534 CURVE SMOOTH",
"986 28 LINE"
);
},
{
closed = 1;
nodes = (
"627 0 LINE",
"627 56 LINE",
"346 86 LINE",
"62 56 LINE",
"62 0 LINE"
);
},
{
closed = 1;
nodes = (
"432 28 LINE",
"432 1323 LINE",
"256 1323 LINE",
"256 28 LINE"
);
},
{
closed = 1;
nodes = (
"1325 0 LINE",
"1325 56 LINE",
"1076 87 LINE",
"782 56 LINE",
"782 0 LINE"
);
},
{
closed = 1;
nodes = (
"627 1302 LINE",
"627 1358 LINE",
"62 1358 LINE",
"62 1302 LINE",
"340 1272 LINE"
);
},
{
closed = 1;
nodes = (
"1211 1302 LINE",
"1211 1358 LINE",
"813 1358 LINE",
"813 1302 LINE",
"1011 1270 LINE"
);
}
);
width = 1345;
},
{
anchors = (
{
name = bottom;
position = "{693, 0}";
},
{
name = top;
position = "{693, 1358}";
}
);
layerId = "5E933A09-8E8D-4B36-A510-2D2E8DB125C4";
paths = (
{
closed = 1;
nodes = (
"1292 43 LINE",
"711 769 LINE",
"1140 1306 LINE",
"937 1306 LINE",
"565 831 LINE SMOOTH",
"545 805 OFFCURVE",
"535 797 OFFCURVE",
"511 797 CURVE SMOOTH",
"445 797 LINE",
"445 576 LINE",
"502 576 LINE SMOOTH",
"522 576 OFFCURVE",
"548 543 OFFCURVE",
"568 517 CURVE SMOOTH",
"924 43 LINE"
);
},
{
closed = 1;
nodes = (
"652 0 LINE",
"652 87 LINE",
"341 117 LINE",
"36 87 LINE",
"36 0 LINE"
);
},
{
closed = 1;
nodes = (
"507 43 LINE",
"507 1306 LINE",
"164 1306 LINE",
"164 43 LINE"
);
},
{
closed = 1;
nodes = (
"1390 0 LINE",
"1390 87 LINE",
"1072 119 LINE",
"756 87 LINE",
"756 0 LINE"
);
},
{
closed = 1;
nodes = (
"652 1271 LINE",
"652 1358 LINE",
"36 1358 LINE",
"36 1271 LINE",
"330 1241 LINE"
);
},
{
closed = 1;
nodes = (
"1242 1271 LINE",
"1242 1358 LINE",
"788 1358 LINE",
"788 1271 LINE",
"1014 1241 LINE"
);
}
);
width = 1402;
}
);
leftMetricsKey = H;
note = K;
rightKerningGroup = K;
rightMetricsKey = A;
unicode = 004B;
},
{
glyphname = L;
lastChange = "2019-12-24 04:46:48 +0000";
layers = (
{
anchors = (
{
name = bottom;
position = "{677, 0}";
},
{
name = center;
position = "{363, 679}";
},
{
name = overlay;
position = "{343, 679}";
},
{
name = top;
position = "{360, 1358}";
},
{
name = topright;
position = "{822, 789}";
}
);
layerId = "C5B93EC9-9EB6-4975-AE33-1741B73E6074";
paths = (
{
closed = 1;
nodes = (
"437 29 LINE",
"437 1320 LINE",
"250 1320 LINE",
"250 29 LINE"
);
},
{
closed = 1;
nodes = (
"1253 0 LINE",
"1253 388 LINE",
"1202 388 LINE",
"1112 116 LINE SMOOTH",
"1097 70 OFFCURVE",
"1053 51 OFFCURVE",
"970 51 CURVE SMOOTH",
"254 51 LINE",
"254 0 LINE"
);
},
{
closed = 1;
nodes = (
"638 1307 LINE",
"638 1358 LINE",
"62 1358 LINE",
"62 1307 LINE",
"344 1282 LINE"
);
},
{
closed = 1;
nodes = (
"342 0 LINE",
"342 76 LINE",
"62 51 LINE",
"62 0 LINE"
);
}
);
width = 1312;
},
{
anchors = (
{
name = bottom;
position = "{614, 0}";
},
{
name = center;
position = "{326, 679}";
},
{
name = overlay;
position = "{326, 679}";
},
{
name = top;
position = "{321, 1358}";
},
{
name = topright;
position = "{727, 800}";
}
);
layerId = "5F1B95D2-E37F-4604-99C9-24FF8B5B0DBF";
paths = (
{
closed = 1;
nodes = (
"375 22 LINE",
"375 1327 LINE",
"273 1327 LINE",
"273 22 LINE"
);
},
{
closed = 1;
nodes = (
"1193 0 LINE",
"1193 378 LINE",
"1165 378 LINE",
"1095 103 LINE SMOOTH",
"1084 59 OFFCURVE",
"1041 40 OFFCURVE",
"955 40 CURVE SMOOTH",
"272 40 LINE",
"272 0 LINE"
);
},
{
closed = 1;
nodes = (
"577 1318 LINE",
"577 1358 LINE",
"72 1358 LINE",
"72 1318 LINE",
"323 1298 LINE"
);
},
{
closed = 1;
nodes = (
"326 0 LINE",
"326 60 LINE",
"72 40 LINE",
"72 0 LINE"
);
}
);
width = 1250;
},
{
anchors = (
{
name = bottom;
position = "{798, 0}";
},
{
name = center;
position = "{382, 679}";
},
{
name = overlay;
position = "{376, 679}";
},
{
name = top;
position = "{433, 1358}";
},
{
name = topright;
position = "{1007, 767}";
}
);
layerId = "D7B0979E-F273-40C0-A245-443BBF311E2D";
paths = (
{
closed = 1;
nodes = (
"556 43 LINE",
"556 1306 LINE",
"199 1306 LINE",
"199 43 LINE"
);
},
{
closed = 1;
nodes = (
"1368 0 LINE",
"1368 408 LINE",
"1271 408 LINE",
"1141 170 LINE SMOOTH",
"1116 124 OFFCURVE",
"1067 101 OFFCURVE",
"995 101 CURVE SMOOTH",
"213 101 LINE",
"213 0 LINE"
);
},
{
closed = 1;
nodes = (
"755 1272 LINE",
"755 1358 LINE",
"37 1358 LINE",
"37 1272 LINE",
"381 1242 LINE"
);
},
{
closed = 1;
nodes = (
"369 0 LINE",
"369 116 LINE",
"37 86 LINE",
"37 0 LINE"
);
}
);
width = 1430;
},
{
anchors = (
{
name = bottom;
position = "{691, 0}";
},
{
name = center;
position = "{382, 679}";
},
{
name = overlay;
position = "{361, 679}";
},
{
name = top;
position = "{373, 1358}";
},
{
name = topright;
position = "{862, 821}";
}
);
layerId = "263E301B-CB05-4AC6-937D-92FF8A6DC5EF";
paths = (
{
closed = 1;
nodes = (
"456 30 LINE",
"456 1318 LINE",
"262 1318 LINE",
"262 30 LINE"
);
},
{
closed = 1;
nodes = (
"1299 0 LINE",
"1299 389 LINE",
"1250 389 LINE",
"1154 146 LINE SMOOTH",
"1136 99 OFFCURVE",
"1093 79 OFFCURVE",
"1011 79 CURVE SMOOTH",
"265 79 LINE",
"265 0 LINE"
);
},
{
closed = 1;
nodes = (
"656 1299 LINE",
"656 1358 LINE",
"72 1358 LINE",
"72 1299 LINE",
"358 1269 LINE"
);
},
{
closed = 1;
nodes = (
"358 0 LINE",
"358 85 LINE",
"72 59 LINE",
"72 0 LINE"
);
}
);
width = 1383;
},
{
anchors = (
{
name = bottom;
position = "{670, 0}";
},
{
name = center;
position = "{353, 679}";
},
{
name = overlay;
position = "{341, 679}";
},
{
name = top;
position = "{355, 1358}";
},
{
name = topright;
position = "{787, 758}";
}
);
layerId = "6B146B31-FE8A-4408-B9B5-0C900DD2277D";
paths = (
{
closed = 1;
nodes = (
"426 28 LINE",
"426 1323 LINE",
"250 1323 LINE",
"250 28 LINE"
);
},
{
closed = 1;
nodes = (
"1214 0 LINE",
"1214 386 LINE",
"1163 386 LINE",
"1080 134 LINE SMOOTH",
"1065 89 OFFCURVE",
"1023 70 OFFCURVE",
"938 70 CURVE SMOOTH",
"254 70 LINE",
"254 0 LINE"
);
},
{
closed = 1;
nodes = (
"627 1302 LINE",
"627 1358 LINE",
"62 1358 LINE",
"62 1302 LINE",
"340 1272 LINE"
);
},
{
closed = 1;
nodes = (
"335 0 LINE",
"335 82 LINE",
"62 56 LINE",
"62 0 LINE"
);
}
);
width = 1244;
},
{
anchors = (
{
name = bottom;
position = "{693, 0}";
},
{
name = center;
position = "{378, 679}";
},
{
name = overlay;
position = "{366, 679}";
},
{
name = top;
position = "{387, 1358}";
},
{
name = topright;
position = "{944, 765}";
}
);
layerId = "5E933A09-8E8D-4B36-A510-2D2E8DB125C4";
paths = (
{
closed = 1;
nodes = (
"533 43 LINE",
"533 1306 LINE",
"190 1306 LINE",
"190 43 LINE"
);
},
{
closed = 1;
nodes = (
"1294 0 LINE",
"1294 410 LINE",
"1198 410 LINE",
"1049 174 LINE SMOOTH",
"1020 127 OFFCURVE",
"976 106 OFFCURVE",
"909 106 CURVE SMOOTH",
"201 106 LINE",
"201 0 LINE"
);
},
{
closed = 1;
nodes = (
"696 1271 LINE",
"696 1358 LINE",
"36 1358 LINE",
"36 1271 LINE",
"351 1241 LINE"
);
},
{
closed = 1;
nodes = (
"359 0 LINE",
"359 118 LINE",
"36 87 LINE",
"36 0 LINE"
);
}
);
width = 1312;
}
);
leftMetricsKey = H;
note = L;
rightKerningGroup = L;
rightMetricsKey = "=A*1.5";
unicode = 004C;
},
{
glyphname = M;
lastChange = "2019-12-24 04:47:20 +0000";
layers = (
{
anchors = (
{
name = bottom;
position = "{890, 0}";
},
{
name = top;
position = "{930, 1358}";
}
);
layerId = "C5B93EC9-9EB6-4975-AE33-1741B73E6074";
paths = (
{
closed = 1;
nodes = (
"1552 29 LINE",
"1519 1358 LINE",
"1415 1358 LINE",
"1351 1358 OFFCURVE",
"1308 1339 OFFCURVE",
"1290 1291 CURVE SMOOTH",
"905 279 LINE",
"945 279 LINE",
"529 1285 LINE SMOOTH",
"506 1340 OFFCURVE",
"467 1358 OFFCURVE",
"398 1358 CURVE SMOOTH",
"136 1358 LINE",
"136 1295 LINE",
"261 1295 OFFCURVE",
"346 1254 OFFCURVE",
"432 1048 CURVE SMOOTH",
"842 68 LINE",
"927 68 LINE",
"1376 1241 LINE",
"1338 1242 LINE",
"1365 29 LINE"
);
},
{
closed = 1;
nodes = (
"335 29 LINE",
"411 1289 LINE",
"301 1299 LINE",
"220 29 LINE"
);
},
{
closed = 1;
nodes = (
"513 0 LINE",
"513 58 LINE",
"288 88 LINE",
"56 58 LINE",
"56 0 LINE"
);
},
{
closed = 1;
nodes = (
"1727 0 LINE",
"1727 58 LINE",
"1463 88 LINE",
"1196 58 LINE",
"1196 0 LINE"
);
},
{
closed = 1;
nodes = (
"1690 1295 LINE",
"1690 1358 LINE",
"1462 1358 LINE",
"1462 1265 LINE"
);
}
);
width = 1783;
},
{
anchors = (
{
name = bottom;
position = "{869, 0}";
},
{
name = top;
position = "{869, 1358}";
}
);
layerId = "5F1B95D2-E37F-4604-99C9-24FF8B5B0DBF";
paths = (
{
closed = 1;
nodes = (
"1495 22 LINE",
"1462 1358 LINE",
"1435 1358 LINE",
"1371 1358 OFFCURVE",
"1330 1339 OFFCURVE",
"1310 1291 CURVE SMOOTH",
"895 279 LINE",
"903 279 LINE",
"477 1285 LINE SMOOTH",
"454 1340 OFFCURVE",
"415 1358 OFFCURVE",
"346 1358 CURVE SMOOTH",
"144 1358 LINE",
"144 1318 LINE",
"278 1318 OFFCURVE",
"377 1242 OFFCURVE",
"453 1063 CURVE SMOOTH",
"867 95 LINE",
"884 95 LINE",
"1369 1283 LINE",
"1364 1283 LINE",
"1392 22 LINE"
);
},
{
closed = 1;
nodes = (
"306 22 LINE",
"382 1289 LINE",
"309 1299 LINE",
"228 22 LINE"
);
},
{
closed = 1;
nodes = (
"489 0 LINE",
"489 40 LINE",
"278 60 LINE",
"65 40 LINE",
"65 0 LINE"
);
},
{
closed = 1;
nodes = (
"1670 0 LINE",
"1670 40 LINE",
"1452 60 LINE",
"1224 40 LINE",
"1224 0 LINE"
);
},
{
closed = 1;
nodes = (
"1632 1318 LINE",
"1632 1358 LINE",
"1450 1358 LINE",
"1450 1298 LINE"
);
}
);
width = 1735;
},
{
anchors = (
{
name = bottom;
position = "{898, 0}";
},
{
name = top;
position = "{948, 1358}";
}
);
layerId = "D7B0979E-F273-40C0-A245-443BBF311E2D";
paths = (
{
closed = 1;
nodes = (
"1671 43 LINE",
"1638 1358 LINE",
"1380 1358 LINE",
"1316 1358 OFFCURVE",
"1272 1343 OFFCURVE",
"1255 1291 CURVE SMOOTH",
"921 279 LINE",
"1025 279 LINE",
"628 1285 LINE SMOOTH",
"606 1340 OFFCURVE",
"566 1358 OFFCURVE",
"497 1358 CURVE SMOOTH",
"115 1358 LINE",
"115 1267 LINE",
"222 1267 OFFCURVE",
"285 1266 OFFCURVE",
"385 1018 CURVE SMOOTH",
"788 14 LINE",
"1009 14 LINE",
"1395 1157 LINE",
"1291 1160 LINE",
"1316 43 LINE"
);
},
{
closed = 1;
nodes = (
"388 43 LINE",
"464 1289 LINE",
"280 1299 LINE",
"199 43 LINE"
);
},
{
closed = 1;
nodes = (
"556 0 LINE",
"556 86 LINE",
"303 116 LINE",
"33 86 LINE",
"33 0 LINE"
);
},
{
closed = 1;
nodes = (
"1846 0 LINE",
"1846 86 LINE",
"1490 116 LINE",
"1145 86 LINE",
"1145 0 LINE"
);
},
{
closed = 1;
nodes = (
"1811 1267 LINE",
"1811 1358 LINE",
"1491 1358 LINE",
"1491 1237 LINE"
);
}
);
width = 1879;
},
{
anchors = (
{
name = bottom;
position = "{915, 0}";
},
{
name = top;
position = "{915, 1358}";
}
);
layerId = "263E301B-CB05-4AC6-937D-92FF8A6DC5EF";
paths = (
{
closed = 1;
nodes = (
"1616 30 LINE",
"1586 1358 LINE",
"1476 1358 LINE",
"1409 1358 OFFCURVE",
"1366 1341 OFFCURVE",
"1346 1291 CURVE SMOOTH",
"946 279 LINE",
"993 279 LINE",
"560 1285 LINE SMOOTH",
"536 1340 OFFCURVE",
"496 1358 OFFCURVE",
"424 1358 CURVE SMOOTH",
"154 1358 LINE",
"154 1289 LINE",
"255 1289 OFFCURVE",
"348 1288 OFFCURVE",
"453 1047 CURVE SMOOTH",
"881 67 LINE",
"970 67 LINE",
"1439 1247 LINE",
"1400 1249 LINE",
"1424 30 LINE"
);
},
{
closed = 1;
nodes = (
"355 30 LINE",
"434 1289 LINE",
"319 1299 LINE",
"235 30 LINE"
);
},
{
closed = 1;
nodes = (
"538 0 LINE",
"538 59 LINE",
"304 89 LINE",
"65 59 LINE",
"65 0 LINE"
);
},
{
closed = 1;
nodes = (
"1801 0 LINE",
"1801 59 LINE",
"1527 89 LINE",
"1249 59 LINE",
"1249 0 LINE"
);
},
{
closed = 1;
nodes = (
"1764 1289 LINE",
"1764 1358 LINE",
"1524 1358 LINE",
"1524 1259 LINE"
);
}
);
width = 1866;
},
{
anchors = (
{
name = bottom;
position = "{872, 0}";
},
{
name = top;
position = "{912, 1358}";
}
);
layerId = "6B146B31-FE8A-4408-B9B5-0C900DD2277D";
paths = (
{
closed = 1;
nodes = (
"1551 28 LINE",
"1515 1358 LINE",
"1421 1358 LINE",
"1359 1358 OFFCURVE",
"1319 1339 OFFCURVE",
"1300 1291 CURVE SMOOTH",
"900 279 LINE",
"933 279 LINE",
"504 1285 LINE SMOOTH",
"480 1340 OFFCURVE",
"444 1358 OFFCURVE",
"378 1358 CURVE SMOOTH",
"127 1358 LINE",
"127 1302 LINE",
"277 1302 OFFCURVE",
"349 1214 OFFCURVE",
"420 1050 CURVE SMOOTH",
"842 70 LINE",
"919 70 LINE",
"1378 1236 LINE",
"1344 1236 LINE",
"1374 28 LINE"
);
},
{
closed = 1;
nodes = (
"322 28 LINE",
"396 1289 LINE",
"292 1299 LINE",
"214 28 LINE"
);
},
{
closed = 1;
nodes = (
"495 0 LINE",
"495 56 LINE",
"281 86 LINE",
"56 56 LINE",
"56 0 LINE"
);
},
{
closed = 1;
nodes = (
"1716 0 LINE",
"1716 56 LINE",
"1465 86 LINE",
"1210 56 LINE",
"1210 0 LINE"
);
},
{
closed = 1;
nodes = (
"1680 1302 LINE",
"1680 1358 LINE",
"1465 1358 LINE",
"1465 1272 LINE"
);
}
);
width = 1772;
},
{
anchors = (
{
name = bottom;
position = "{860, 0}";
},
{
name = top;
position = "{890, 1358}";
}
);
layerId = "5E933A09-8E8D-4B36-A510-2D2E8DB125C4";
paths = (
{
closed = 1;
nodes = (
"1596 43 LINE",
"1560 1358 LINE",
"1345 1358 LINE",
"1285 1358 OFFCURVE",
"1246 1339 OFFCURVE",
"1230 1291 CURVE SMOOTH",
"882 279 LINE",
"995 279 LINE",
"579 1285 LINE SMOOTH",
"553 1348 OFFCURVE",
"510 1358 OFFCURVE",
"459 1358 CURVE SMOOTH",
"110 1358 LINE",
"110 1266 LINE",
"204 1266 OFFCURVE",
"237 1262 OFFCURVE",
"340 1017 CURVE SMOOTH",
"766 8 LINE",
"956 8 LINE",
"1351 1151 LINE",
"1239 1151 LINE",
"1268 43 LINE"
);
},
{
closed = 1;
nodes = (
"350 43 LINE",
"419 1289 LINE",
"256 1299 LINE",
"185 43 LINE"
);
},
{
closed = 1;
nodes = (
"512 0 LINE",
"512 87 LINE",
"275 117 LINE",
"32 87 LINE",
"32 0 LINE"
);
},
{
closed = 1;
nodes = (
"1751 0 LINE",
"1751 87 LINE",
"1430 117 LINE",
"1119 87 LINE",
"1119 0 LINE"
);
},
{
closed = 1;
nodes = (
"1711 1266 LINE",
"1711 1358 LINE",
"1408 1358 LINE",
"1408 1236 LINE"
);
}
);
width = 1783;
}
);
leftKerningGroup = M;
leftMetricsKey = "=H*0.9";
note = M;
rightKerningGroup = M;
rightMetricsKey = "=H*0.9";
unicode = 004D;
},
{
glyphname = N;
lastChange = "2019-12-22 15:23:20 +0000";
layers = (
{
anchors = (
{
name = bottom;
position = "{789, 0}";
},
{
name = top;
position = "{789, 1358}";
}
);
layerId = "C5B93EC9-9EB6-4975-AE33-1741B73E6074";
paths = (
{
closed = 1;
nodes = (
"1388 -21 LINE",
"1388 1320 LINE",
"1288 1320 LINE",
"1288 226 LINE",
"1351 263 LINE",
"395 1309 LINE SMOOTH",
"359 1348 OFFCURVE",
"312 1358 OFFCURVE",
"252 1358 CURVE SMOOTH",
"58 1358 LINE",
"58 1300 LINE",
"157 1300 OFFCURVE",
"225 1226 OFFCURVE",
"331 1108 CURVE SMOOTH",
"1339 -21 LINE"
);
},
{
closed = 1;
nodes = (
"332 29 LINE",
"332 1293 LINE",
"233 1293 LINE",
"233 29 LINE"
);
},
{
closed = 1;
nodes = (
"507 0 LINE",
"507 58 LINE",
"287 88 LINE",
"50 58 LINE",
"50 0 LINE"
);
},
{
closed = 1;
nodes = (
"1539 1300 LINE",
"1539 1358 LINE",
"1101 1358 LINE",
"1101 1300 LINE",
"1331 1270 LINE"
);
}
);
width = 1582;
},
{
anchors = (
{
name = bottom;
position = "{743, 0}";
},
{
name = top;
position = "{773, 1358}";
}
);
layerId = "5F1B95D2-E37F-4604-99C9-24FF8B5B0DBF";
paths = (
{
closed = 1;
nodes = (
"1361 -21 LINE",
"1361 1327 LINE",
"1307 1327 LINE",
"1307 136 LINE",
"1340 148 LINE",
"317 1306 LINE SMOOTH",
"281 1346 OFFCURVE",
"238 1358 OFFCURVE",
"178 1358 CURVE SMOOTH",
"58 1358 LINE",
"58 1318 LINE",
"157 1318 OFFCURVE",
"216 1260 OFFCURVE",
"336 1125 CURVE SMOOTH",
"1348 -21 LINE"
);
},
{
closed = 1;
nodes = (
"294 22 LINE",
"294 1288 LINE",
"241 1288 LINE",
"241 22 LINE"
);
},
{
closed = 1;
nodes = (
"469 0 LINE",
"469 40 LINE",
"271 60 LINE",
"58 40 LINE",
"58 0 LINE"
);
},
{
closed = 1;
nodes = (
"1512 1318 LINE",
"1512 1358 LINE",
"1120 1358 LINE",
"1120 1318 LINE",
"1334 1298 LINE"
);
}
);
width = 1562;
},
{
anchors = (
{
name = bottom;
position = "{877, 0}";
},
{
name = top;
position = "{817, 1358}";
}
);
layerId = "D7B0979E-F273-40C0-A245-443BBF311E2D";
paths = (
{
closed = 1;
nodes = (
"1438 -21 LINE",
"1438 1306 LINE",
"1246 1306 LINE",
"1246 246 LINE",
"1415 353 LINE",
"539 1309 LINE SMOOTH",
"503 1346 OFFCURVE",
"456 1358 OFFCURVE",
"396 1358 CURVE SMOOTH",
"54 1358 LINE",
"54 1272 LINE",
"153 1272 OFFCURVE",
"221 1200 OFFCURVE",
"327 1082 CURVE SMOOTH",
"1313 -21 LINE"
);
},
{
closed = 1;
nodes = (
"404 43 LINE",
"404 1303 LINE",
"213 1303 LINE",
"213 43 LINE"
);
},
{
closed = 1;
nodes = (
"579 0 LINE",
"579 86 LINE",
"315 116 LINE",
"30 86 LINE",
"30 0 LINE"
);
},
{
closed = 1;
nodes = (
"1589 1272 LINE",
"1589 1358 LINE",
"1059 1358 LINE",
"1059 1272 LINE",
"1321 1242 LINE"
);
}
);
width = 1615;
},
{
anchors = (
{
name = bottom;
position = "{801, 0}";
},
{
name = top;
position = "{816, 1358}";
}
);
layerId = "263E301B-CB05-4AC6-937D-92FF8A6DC5EF";
paths = (
{
closed = 1;
nodes = (
"1444 -21 LINE",
"1444 1318 LINE",
"1338 1318 LINE",
"1338 226 LINE",
"1413 262 LINE",
"423 1309 LINE SMOOTH",
"386 1348 OFFCURVE",
"337 1358 OFFCURVE",
"275 1358 CURVE SMOOTH",
"66 1358 LINE",
"66 1299 LINE",
"167 1299 OFFCURVE",
"239 1225 OFFCURVE",
"348 1108 CURVE SMOOTH",
"1391 -21 LINE"
);
},
{
closed = 1;
nodes = (
"351 30 LINE",
"351 1298 LINE",
"247 1298 LINE",
"247 30 LINE"
);
},
{
closed = 1;
nodes = (
"532 0 LINE",
"532 59 LINE",
"306 89 LINE",
"58 59 LINE",
"58 0 LINE"
);
},
{
closed = 1;
nodes = (
"1600 1299 LINE",
"1600 1358 LINE",
"1144 1358 LINE",
"1144 1299 LINE",
"1383 1269 LINE"
);
}
);
width = 1650;
},
{
anchors = (
{
name = bottom;
position = "{765, 0}";
},
{
name = top;
position = "{765, 1358}";
}
);
layerId = "6B146B31-FE8A-4408-B9B5-0C900DD2277D";
paths = (
{
closed = 1;
nodes = (
"1339 -21 LINE",
"1339 1323 LINE",
"1247 1323 LINE",
"1247 224 LINE",
"1295 261 LINE",
"371 1309 LINE SMOOTH",
"337 1348 OFFCURVE",
"291 1358 OFFCURVE",
"233 1358 CURVE SMOOTH",
"57 1358 LINE",
"57 1302 LINE",
"154 1302 OFFCURVE",
"219 1227 OFFCURVE",
"321 1109 CURVE SMOOTH",
"1295 -21 LINE"
);
},
{
closed = 1;
nodes = (
"319 28 LINE",
"319 1287 LINE",
"227 1287 LINE",
"227 28 LINE"
);
},
{
closed = 1;
nodes = (
"488 0 LINE",
"488 56 LINE",
"274 86 LINE",
"50 56 LINE",
"50 0 LINE"
);
},
{
closed = 1;
nodes = (
"1485 1302 LINE",
"1485 1358 LINE",
"1066 1358 LINE",
"1066 1302 LINE",
"1286 1272 LINE"
);
}
);
width = 1528;
},
{
anchors = (
{
name = bottom;
position = "{737, 0}";
},
{
name = top;
position = "{767, 1358}";
}
);
layerId = "5E933A09-8E8D-4B36-A510-2D2E8DB125C4";
paths = (
{
closed = 1;
nodes = (
"1406 -21 LINE",
"1406 1306 LINE",
"1225 1306 LINE",
"1225 248 LINE",
"1351 404 LINE",
"519 1309 LINE SMOOTH",
"484 1348 OFFCURVE",
"433 1358 OFFCURVE",
"377 1358 CURVE SMOOTH",
"36 1358 LINE",
"36 1271 LINE",
"134 1271 OFFCURVE",
"200 1199 OFFCURVE",
"307 1079 CURVE SMOOTH",
"1291 -21 LINE"
);
},
{
closed = 1;
nodes = (
"391 43 LINE",
"391 1303 LINE",
"210 1303 LINE",
"210 43 LINE"
);
},
{
closed = 1;
nodes = (
"567 0 LINE",
"567 87 LINE",
"308 117 LINE",
"29 87 LINE",
"29 0 LINE"
);
},
{
closed = 1;
nodes = (
"1557 1271 LINE",
"1557 1358 LINE",
"1037 1358 LINE",
"1037 1271 LINE",
"1302 1241 LINE"
);
}
);
width = 1582;
}
);
leftMetricsKey = "=H*0.8";
note = N;
rightKerningGroup = N;
rightMetricsKey = "=H*0.7";
unicode = 004E;
},
{
glyphname = Eng;
lastChange = "2019-12-22 19:39:50 +0000";
layers = (
{
anchors = (
{
name = bottom;
position = "{290, 0}";
},
{
name = top;
position = "{740, 1358}";
}
);
layerId = "C5B93EC9-9EB6-4975-AE33-1741B73E6074";
paths = (
{
closed = 1;
nodes = (
"1067 -518 OFFCURVE",
"1168 -437 OFFCURVE",
"1231 -314 CURVE SMOOTH",
"1287 -204 OFFCURVE",
"1289 -93 OFFCURVE",
"1289 101 CURVE SMOOTH",
"1289 1320 LINE",
"1191 1320 LINE",
"1191 263 LINE",
"1234 271 LINE",
"405 1305 LINE SMOOTH",
"376 1341 OFFCURVE",
"329 1358 OFFCURVE",
"259 1358 CURVE SMOOTH",
"50 1358 LINE",
"50 1284 LINE",
"171 1284 OFFCURVE",
"192 1279 OFFCURVE",
"295 1151 CURVE SMOOTH",
"1188 42 LINE",
"1188 -96 LINE SMOOTH",
"1188 -268 OFFCURVE",
"1104 -418 OFFCURVE",
"1033 -418 CURVE SMOOTH",
"1011 -418 OFFCURVE",
"992 -406 OFFCURVE",
"966 -382 CURVE SMOOTH",
"940 -358 OFFCURVE",
"912 -346 OFFCURVE",
"881 -346 CURVE SMOOTH",
"825 -346 OFFCURVE",
"800 -374 OFFCURVE",
"800 -419 CURVE SMOOTH",
"800 -476 OFFCURVE",
"846 -518 OFFCURVE",
"914 -518 CURVE SMOOTH"
);
},
{
closed = 1;
nodes = (
"521 0 LINE",
"521 58 LINE",
"294 88 LINE",
"69 58 LINE",
"69 0 LINE"
);
},
{
closed = 1;
nodes = (
"342 29 LINE",
"342 1284 LINE",
"243 1284 LINE",
"243 29 LINE"
);
},
{
closed = 1;
nodes = (
"1435 1300 LINE",
"1435 1358 LINE",
"1016 1358 LINE",
"1016 1300 LINE",
"1243 1270 LINE"
);
}
);
width = 1478;
},
{
anchors = (
{
name = bottom;
position = "{714, -518}";
},
{
name = top;
position = "{714, 1358}";
}
);
layerId = "5F1B95D2-E37F-4604-99C9-24FF8B5B0DBF";
paths = (
{
closed = 1;
nodes = (
"1033 -518 OFFCURVE",
"1122 -427 OFFCURVE",
"1172 -307 CURVE SMOOTH",
"1225 -179 OFFCURVE",
"1227 -44 OFFCURVE",
"1227 129 CURVE SMOOTH",
"1227 1327 LINE",
"1173 1327 LINE",
"1173 186 LINE",
"1204 205 LINE",
"352 1310 LINE SMOOTH",
"318 1354 OFFCURVE",
"267 1358 OFFCURVE",
"213 1358 CURVE SMOOTH",
"58 1358 LINE",
"58 1318 LINE",
"182 1318 OFFCURVE",
"206 1305 OFFCURVE",
"311 1167 CURVE SMOOTH",
"1168 44 LINE",
"1168 -123 LINE SMOOTH",
"1168 -304 OFFCURVE",
"1055 -456 OFFCURVE",
"986 -456 CURVE SMOOTH",
"970 -456 OFFCURVE",
"951 -431 OFFCURVE",
"933 -407 CURVE SMOOTH",
"917 -386 OFFCURVE",
"895 -370 OFFCURVE",
"862 -370 CURVE SMOOTH",
"817 -370 OFFCURVE",
"780 -403 OFFCURVE",
"780 -444 CURVE SMOOTH",
"780 -484 OFFCURVE",
"814 -518 OFFCURVE",
"881 -518 CURVE SMOOTH"
);
},
{
closed = 1;
nodes = (
"488 0 LINE",
"488 40 LINE",
"287 60 LINE",
"80 40 LINE",
"80 0 LINE"
);
},
{
closed = 1;
nodes = (
"312 22 LINE",
"312 1299 LINE",
"258 1299 LINE",
"258 22 LINE"
);
},
{
closed = 1;
nodes = (
"1374 1318 LINE",
"1374 1358 LINE",
"990 1358 LINE",
"990 1318 LINE",
"1201 1298 LINE"
);
}
);
width = 1424;
},
{
anchors = (
{
name = bottom;
position = "{-562, 1036}";
},
{
name = top;
position = "{788, 1358}";
}
);
layerId = "D7B0979E-F273-40C0-A245-443BBF311E2D";
paths = (
{
closed = 1;
nodes = (
"1131 -518 OFFCURVE",
"1255 -457 OFFCURVE",
"1345 -328 CURVE SMOOTH",
"1400 -249 OFFCURVE",
"1409 -191 OFFCURVE",
"1409 45 CURVE SMOOTH",
"1409 1306 LINE",
"1223 1306 LINE",
"1223 417 LINE",
"1290 403 LINE",
"507 1295 LINE SMOOTH",
"489 1316 OFFCURVE",
"449 1358 OFFCURVE",
"347 1358 CURVE SMOOTH",
"30 1358 LINE",
"30 1254 LINE",
"131 1254 OFFCURVE",
"137 1260 OFFCURVE",
"229 1157 CURVE SMOOTH",
"1224 38 LINE",
"1224 -42 LINE SMOOTH",
"1224 -210 OFFCURVE",
"1198 -368 OFFCURVE",
"1123 -368 CURVE SMOOTH",
"1075 -368 OFFCURVE",
"1060 -356 OFFCURVE",
"1034 -332 CURVE SMOOTH",
"1010 -310 OFFCURVE",
"980 -298 OFFCURVE",
"943 -298 CURVE SMOOTH",
"865 -298 OFFCURVE",
"836 -342 OFFCURVE",
"836 -395 CURVE SMOOTH",
"836 -464 OFFCURVE",
"892 -518 OFFCURVE",
"976 -518 CURVE SMOOTH"
);
},
{
closed = 1;
nodes = (
"583 0 LINE",
"583 86 LINE",
"304 116 LINE",
"43 86 LINE",
"43 0 LINE"
);
},
{
closed = 1;
nodes = (
"398 43 LINE",
"398 1254 LINE",
"209 1254 LINE",
"209 43 LINE"
);
},
{
closed = 1;
nodes = (
"1553 1272 LINE",
"1553 1358 LINE",
"1064 1358 LINE",
"1064 1272 LINE",
"1323 1242 LINE"
);
}
);
width = 1579;
},
{
anchors = (
{
name = bottom;
position = "{94, 259}";
},
{
name = top;
position = "{769, 1358}";
}
);
layerId = "263E301B-CB05-4AC6-937D-92FF8A6DC5EF";
paths = (
{
closed = 1;
nodes = (
"1108 -518 OFFCURVE",
"1208 -436 OFFCURVE",
"1274 -314 CURVE SMOOTH",
"1333 -205 OFFCURVE",
"1334 -95 OFFCURVE",
"1334 99 CURVE SMOOTH",
"1334 1318 LINE",
"1232 1318 LINE",
"1232 277 LINE",
"1281 269 LINE",
"419 1305 LINE SMOOTH",
"390 1339 OFFCURVE",
"341 1358 OFFCURVE",
"270 1358 CURVE SMOOTH",
"58 1358 LINE",
"58 1277 LINE",
"189 1277 OFFCURVE",
"207 1269 OFFCURVE",
"279 1183 CURVE SMOOTH",
"1228 42 LINE",
"1228 -50 LINE SMOOTH",
"1228 -266 OFFCURVE",
"1143 -417 OFFCURVE",
"1069 -417 CURVE SMOOTH",
"1046 -417 OFFCURVE",
"1028 -405 OFFCURVE",
"1002 -381 CURVE SMOOTH",
"976 -357 OFFCURVE",
"948 -345 OFFCURVE",
"917 -345 CURVE SMOOTH",
"860 -345 OFFCURVE",
"835 -372 OFFCURVE",
"835 -418 CURVE SMOOTH",
"835 -476 OFFCURVE",
"881 -518 OFFCURVE",
"950 -518 CURVE SMOOTH"
);
},
{
closed = 1;
nodes = (
"539 0 LINE",
"539 59 LINE",
"305 89 LINE",
"77 59 LINE",
"77 0 LINE"
);
},
{
closed = 1;
nodes = (
"354 30 LINE",
"354 1277 LINE",
"251 1277 LINE",
"251 30 LINE"
);
},
{
closed = 1;
nodes = (
"1480 1299 LINE",
"1480 1358 LINE",
"1057 1358 LINE",
"1057 1299 LINE",
"1286 1269 LINE"
);
}
);
width = 1530;
},
{
anchors = (
{
name = bottom;
position = "{717, -518}";
},
{
name = top;
position = "{717, 1358}";
}
);
layerId = "6B146B31-FE8A-4408-B9B5-0C900DD2277D";
paths = (
{
closed = 1;
nodes = (
"1032 -518 OFFCURVE",
"1133 -437 OFFCURVE",
"1193 -314 CURVE SMOOTH",
"1248 -201 OFFCURVE",
"1249 -88 OFFCURVE",
"1249 104 CURVE SMOOTH",
"1249 1323 LINE",
"1157 1323 LINE",
"1157 245 LINE",
"1194 270 LINE",
"395 1305 LINE SMOOTH",
"366 1342 OFFCURVE",
"322 1358 OFFCURVE",
"253 1358 CURVE SMOOTH",
"50 1358 LINE",
"50 1292 LINE",
"161 1292 OFFCURVE",
"195 1279 OFFCURVE",
"320 1118 CURVE SMOOTH",
"1154 42 LINE",
"1154 -144 LINE SMOOTH",
"1154 -271 OFFCURVE",
"1071 -421 OFFCURVE",
"1002 -421 CURVE SMOOTH",
"982 -421 OFFCURVE",
"962 -409 OFFCURVE",
"937 -385 CURVE SMOOTH",
"910 -360 OFFCURVE",
"882 -348 OFFCURVE",
"851 -348 CURVE SMOOTH",
"797 -348 OFFCURVE",
"772 -376 OFFCURVE",
"772 -420 CURVE SMOOTH",
"772 -476 OFFCURVE",
"817 -518 OFFCURVE",
"884 -518 CURVE SMOOTH"
);
},
{
closed = 1;
nodes = (
"509 0 LINE",
"509 56 LINE",
"290 86 LINE",
"69 56 LINE",
"69 0 LINE"
);
},
{
closed = 1;
nodes = (
"336 28 LINE",
"336 1292 LINE",
"243 1292 LINE",
"243 28 LINE"
);
},
{
closed = 1;
nodes = (
"1395 1302 LINE",
"1395 1358 LINE",
"982 1358 LINE",
"982 1302 LINE",
"1205 1272 LINE"
);
}
);
width = 1438;
},
{
anchors = (
{
name = bottom;
position = "{747, 0}";
},
{
name = top;
position = "{747, 1358}";
}
);
layerId = "5E933A09-8E8D-4B36-A510-2D2E8DB125C4";
paths = (
{
closed = 1;
nodes = (
"1061 -518 OFFCURVE",
"1173 -462 OFFCURVE",
"1258 -334 CURVE SMOOTH",
"1316 -246 OFFCURVE",
"1319 -186 OFFCURVE",
"1319 40 CURVE SMOOTH",
"1319 1306 LINE",
"1140 1306 LINE",
"1140 432 LINE",
"1241 416 LINE",
"516 1294 LINE SMOOTH",
"496 1319 OFFCURVE",
"455 1358 OFFCURVE",
"362 1358 CURVE SMOOTH",
"29 1358 LINE",
"29 1253 LINE",
"123 1253 OFFCURVE",
"136 1238 OFFCURVE",
"206 1156 CURVE SMOOTH",
"1152 37 LINE",
"1152 -38 LINE SMOOTH",
"1152 -210 OFFCURVE",
"1131 -365 OFFCURVE",
"1062 -365 CURVE SMOOTH",
"1014 -365 OFFCURVE",
"1000 -353 OFFCURVE",
"978 -329 CURVE SMOOTH",
"956 -305 OFFCURVE",
"925 -293 OFFCURVE",
"892 -293 CURVE SMOOTH",
"818 -293 OFFCURVE",
"789 -342 OFFCURVE",
"789 -393 CURVE SMOOTH",
"789 -461 OFFCURVE",
"843 -518 OFFCURVE",
"924 -518 CURVE SMOOTH"
);
},
{
closed = 1;
nodes = (
"524 0 LINE",
"524 87 LINE",
"279 117 LINE",
"40 87 LINE",
"40 0 LINE"
);
},
{
closed = 1;
nodes = (
"369 43 LINE",
"369 1253 LINE",
"189 1253 LINE",
"189 43 LINE"
);
},
{
closed = 1;
nodes = (
"1453 1271 LINE",
"1453 1358 LINE",
"1005 1358 LINE",
"1005 1271 LINE",
"1241 1241 LINE"
);
}
);
width = 1478;
}
);
leftMetricsKey = N;
rightMetricsKey = N;
unicode = 014A;
},
{
glyphname = O;
lastChange = "2019-12-22 19:40:13 +0000";
layers = (
{
anchors = (
{
name = bottom;
position = "{759, 0}";
},
{
name = center;
position = "{759, 672}";
},
{
name = ogonek;
position = "{872, -4}";
},
{
name = top;
position = "{749, 1358}";
},
{
name = topleft;
position = "{38, 1358}";
},
{
name = topright;
position = "{1449, 1358}";
}
);
layerId = "C5B93EC9-9EB6-4975-AE33-1741B73E6074";
paths = (
{
closed = 1;
nodes = (
"1178 -27 OFFCURVE",
"1444 281 OFFCURVE",
"1444 676 CURVE SMOOTH",
"1444 1089 OFFCURVE",
"1152 1385 OFFCURVE",
"764 1385 CURVE SMOOTH",
"369 1385 OFFCURVE",
"82 1076 OFFCURVE",
"82 660 CURVE SMOOTH",
"82 258 OFFCURVE",
"351 -27 OFFCURVE",
"757 -27 CURVE SMOOTH"
);
},
{
closed = 1;
nodes = (
"498 50 OFFCURVE",
"301 321 OFFCURVE",
"301 713 CURVE SMOOTH",
"301 1073 OFFCURVE",
"511 1310 OFFCURVE",
"757 1310 CURVE SMOOTH",
"1021 1310 OFFCURVE",
"1226 1028 OFFCURVE",
"1226 635 CURVE SMOOTH",
"1226 285 OFFCURVE",
"1033 50 OFFCURVE",
"777 50 CURVE SMOOTH"
);
}
);
width = 1526;
},
{
anchors = (
{
name = bottom;
position = "{707, 0}";
},
{
name = center;
position = "{707, 683}";
},
{
name = ogonek;
position = "{819, -7}";
},
{
name = top;
position = "{712, 1358}";
},
{
name = topleft;
position = "{12, 1358}";
},
{
name = topright;
position = "{1371, 1358}";
}
);
layerId = "5F1B95D2-E37F-4604-99C9-24FF8B5B0DBF";
paths = (
{
closed = 1;
nodes = (
"1133 -27 OFFCURVE",
"1350 323 OFFCURVE",
"1350 678 CURVE SMOOTH",
"1350 1067 OFFCURVE",
"1085 1385 OFFCURVE",
"721 1385 CURVE SMOOTH",
"336 1385 OFFCURVE",
"97 1028 OFFCURVE",
"97 660 CURVE SMOOTH",
"97 298 OFFCURVE",
"327 -27 OFFCURVE",
"723 -27 CURVE SMOOTH"
);
},
{
closed = 1;
nodes = (
"435 15 OFFCURVE",
"210 322 OFFCURVE",
"210 710 CURVE SMOOTH",
"210 1068 OFFCURVE",
"437 1343 OFFCURVE",
"716 1343 CURVE SMOOTH",
"1010 1343 OFFCURVE",
"1238 1039 OFFCURVE",
"1238 645 CURVE SMOOTH",
"1238 294 OFFCURVE",
"1025 15 OFFCURVE",
"736 15 CURVE SMOOTH"
);
}
);
width = 1448;
},
{
anchors = (
{
name = bottom;
position = "{843, 0}";
},
{
name = center;
position = "{843, 650}";
},
{
name = ogonek;
position = "{958, 2}";
},
{
name = top;
position = "{803, 1358}";
},
{
name = topleft;
position = "{70, 1358}";
},
{
name = topright;
position = "{1585, 1358}";
}
);
background = {
paths = (
{
closed = 1;
nodes = (
"1240 -27 OFFCURVE",
"1506 301 OFFCURVE",
"1506 676 CURVE SMOOTH",
"1506 1069 OFFCURVE",
"1214 1385 OFFCURVE",
"826 1385 CURVE SMOOTH",
"431 1385 OFFCURVE",
"144 1056 OFFCURVE",
"144 660 CURVE SMOOTH",
"144 278 OFFCURVE",
"413 -27 OFFCURVE",
"819 -27 CURVE SMOOTH"
);
},
{
closed = 1;
nodes = (
"560 50 OFFCURVE",
"363 341 OFFCURVE",
"363 713 CURVE SMOOTH",
"363 1053 OFFCURVE",
"573 1310 OFFCURVE",
"819 1310 CURVE SMOOTH",
"1083 1310 OFFCURVE",
"1288 1008 OFFCURVE",
"1288 635 CURVE SMOOTH",
"1288 305 OFFCURVE",
"1095 50 OFFCURVE",
"839 50 CURVE SMOOTH"
);
}
);
};
layerId = "D7B0979E-F273-40C0-A245-443BBF311E2D";
paths = (
{
closed = 1;
nodes = (
"1237 -27 OFFCURVE",
"1592 208 OFFCURVE",
"1592 660 CURVE SMOOTH",
"1592 1112 OFFCURVE",
"1255 1385 OFFCURVE",
"830 1385 CURVE SMOOTH",
"425 1385 OFFCURVE",
"52 1112 OFFCURVE",
"52 660 CURVE SMOOTH",
"52 208 OFFCURVE",
"390 -27 OFFCURVE",
"805 -27 CURVE SMOOTH"
);
},
{
closed = 1;
nodes = (
"617 80 OFFCURVE",
"483 317 OFFCURVE",
"483 681 CURVE SMOOTH",
"483 1045 OFFCURVE",
"649 1282 OFFCURVE",
"819 1282 CURVE SMOOTH",
"1012 1282 OFFCURVE",
"1162 1045 OFFCURVE",
"1162 681 CURVE SMOOTH",
"1162 319 OFFCURVE",
"1018 80 OFFCURVE",
"839 80 CURVE SMOOTH"
);
}
);
width = 1644;
},
{
anchors = (
{
name = bottom;
position = "{811, 0}";
},
{
name = center;
position = "{811, 670}";
},
{
name = ogonek;
position = "{929, -4}";
},
{
name = top;
position = "{801, 1358}";
},
{
name = topleft;
position = "{74, 1358}";
},
{
name = topright;
position = "{1487, 1358}";
}
);
layerId = "263E301B-CB05-4AC6-937D-92FF8A6DC5EF";
paths = (
{
closed = 1;
nodes = (
"1252 -27 OFFCURVE",
"1529 299 OFFCURVE",
"1529 675 CURVE SMOOTH",
"1529 1068 OFFCURVE",
"1225 1385 OFFCURVE",
"824 1385 CURVE SMOOTH",
"426 1385 OFFCURVE",
"114 1075 OFFCURVE",
"114 660 CURVE SMOOTH",
"114 277 OFFCURVE",
"394 -27 OFFCURVE",
"814 -27 CURVE SMOOTH"
);
},
{
closed = 1;
nodes = (
"550 54 OFFCURVE",
"340 351 OFFCURVE",
"340 713 CURVE SMOOTH",
"340 1045 OFFCURVE",
"563 1304 OFFCURVE",
"814 1304 CURVE SMOOTH",
"1084 1304 OFFCURVE",
"1304 999 OFFCURVE",
"1304 635 CURVE SMOOTH",
"1304 313 OFFCURVE",
"1098 54 OFFCURVE",
"836 54 CURVE SMOOTH"
);
}
);
width = 1643;
},
{
anchors = (
{
name = bottom;
position = "{704, 0}";
},
{
name = center;
position = "{704, 674}";
},
{
name = ogonek;
position = "{812, -4}";
},
{
name = top;
position = "{695, 1358}";
},
{
name = topleft;
position = "{0, 1358}";
},
{
name = topright;
position = "{1407, 1358}";
}
);
layerId = "6B146B31-FE8A-4408-B9B5-0C900DD2277D";
paths = (
{
closed = 1;
nodes = (
"1102 -27 OFFCURVE",
"1355 303 OFFCURVE",
"1355 676 CURVE SMOOTH",
"1355 1069 OFFCURVE",
"1076 1385 OFFCURVE",
"702 1385 CURVE SMOOTH",
"310 1385 OFFCURVE",
"50 1035 OFFCURVE",
"50 659 CURVE SMOOTH",
"50 280 OFFCURVE",
"307 -27 OFFCURVE",
"698 -27 CURVE SMOOTH"
);
},
{
closed = 1;
nodes = (
"443 44 OFFCURVE",
"258 330 OFFCURVE",
"258 712 CURVE SMOOTH",
"258 1061 OFFCURVE",
"455 1316 OFFCURVE",
"698 1316 CURVE SMOOTH",
"957 1316 OFFCURVE",
"1149 1017 OFFCURVE",
"1149 636 CURVE SMOOTH",
"1149 297 OFFCURVE",
"967 44 OFFCURVE",
"715 44 CURVE SMOOTH"
);
}
);
width = 1406;
},
{
anchors = (
{
name = bottom;
position = "{755, 0}";
},
{
name = center;
position = "{763, 656}";
},
{
name = ogonek;
position = "{882, 2}";
},
{
name = top;
position = "{743, 1358}";
},
{
name = topleft;
position = "{94, 1358}";
},
{
name = topright;
position = "{1437, 1358}";
}
);
layerId = "5E933A09-8E8D-4B36-A510-2D2E8DB125C4";
paths = (
{
closed = 1;
nodes = (
"1164 -27 OFFCURVE",
"1470 254 OFFCURVE",
"1470 672 CURVE SMOOTH",
"1470 1074 OFFCURVE",
"1186 1384 OFFCURVE",
"769 1384 CURVE SMOOTH",
"374 1384 OFFCURVE",
"49 1117 OFFCURVE",
"49 659 CURVE SMOOTH",
"49 237 OFFCURVE",
"339 -27 OFFCURVE",
"744 -27 CURVE SMOOTH"
);
},
{
closed = 1;
nodes = (
"579 85 OFFCURVE",
"465 359 OFFCURVE",
"465 721 CURVE SMOOTH",
"465 1043 OFFCURVE",
"562 1280 OFFCURVE",
"758 1280 CURVE SMOOTH",
"954 1280 OFFCURVE",
"1053 1065 OFFCURVE",
"1053 713 CURVE SMOOTH",
"1053 405 OFFCURVE",
"971 85 OFFCURVE",
"775 85 CURVE SMOOTH"
);
}
);
width = 1526;
}
);
leftKerningGroup = C;
note = O;
rightKerningGroup = O;
unicode = 004F;
},
{
glyphname = OE;
lastChange = "2019-12-22 19:58:30 +0000";
layers = (
{
anchors = (
{
name = bottom;
position = "{1062, 0}";
},
{
name = top;
position = "{1062, 1358}";
}
);
layerId = "C5B93EC9-9EB6-4975-AE33-1741B73E6074";
paths = (
{
closed = 1;
nodes = (
"1209 0 LINE",
"1209 1358 LINE",
"753 1358 LINE",
"340 1358 OFFCURVE",
"82 1019 OFFCURVE",
"82 664 CURVE SMOOTH",
"82 294 OFFCURVE",
"334 0 OFFCURVE",
"749 0 CURVE"
);
},
{
closed = 1;
nodes = (
"541 77 OFFCURVE",
"301 350 OFFCURVE",
"301 732 CURVE SMOOTH",
"301 1021 OFFCURVE",
"465 1282 OFFCURVE",
"757 1282 CURVE SMOOTH",
"868 1282 OFFCURVE",
"959 1273 OFFCURVE",
"1022 1197 CURVE",
"1022 144 LINE",
"968 91 OFFCURVE",
"912 77 OFFCURVE",
"785 77 CURVE SMOOTH"
);
},
{
closed = 1;
nodes = (
"1887 1007 LINE",
"1887 1358 LINE",
"1028 1358 LINE",
"1028 1281 LINE",
"1640 1281 LINE SMOOTH",
"1714 1281 OFFCURVE",
"1745 1268 OFFCURVE",
"1763 1224 CURVE SMOOTH",
"1852 1007 LINE"
);
},
{
closed = 1;
nodes = (
"1985 0 LINE",
"1985 346 LINE",
"1949 346 LINE",
"1857 131 LINE SMOOTH",
"1840 91 OFFCURVE",
"1789 75 OFFCURVE",
"1734 75 CURVE SMOOTH",
"1022 75 LINE",
"1022 0 LINE"
);
},
{
closed = 1;
nodes = (
"1586 650 LINE",
"1586 726 LINE",
"1089 726 LINE",
"1089 650 LINE"
);
},
{
closed = 1;
nodes = (
"1630 447 LINE",
"1630 945 LINE",
"1545 945 LINE",
"1545 447 LINE"
);
}
);
width = 2016;
},
{
anchors = (
{
name = bottom;
position = "{995, 0}";
},
{
name = top;
position = "{995, 1358}";
}
);
layerId = "5F1B95D2-E37F-4604-99C9-24FF8B5B0DBF";
paths = (
{
closed = 1;
nodes = (
"1079 0 LINE",
"1079 1358 LINE",
"709 1358 LINE SMOOTH",
"320 1358 OFFCURVE",
"97 999 OFFCURVE",
"97 668 CURVE SMOOTH",
"97 306 OFFCURVE",
"329 0 OFFCURVE",
"704 0 CURVE SMOOTH"
);
},
{
closed = 1;
nodes = (
"488 42 OFFCURVE",
"210 303 OFFCURVE",
"210 721 CURVE SMOOTH",
"210 1023 OFFCURVE",
"408 1316 OFFCURVE",
"690 1316 CURVE SMOOTH",
"824 1316 OFFCURVE",
"910 1303 OFFCURVE",
"977 1214 CURVE",
"977 112 LINE",
"912 50 OFFCURVE",
"864 42 OFFCURVE",
"708 42 CURVE SMOOTH"
);
},
{
closed = 1;
nodes = (
"1748 1014 LINE",
"1748 1358 LINE",
"974 1358 LINE",
"974 1318 LINE",
"1540 1318 LINE SMOOTH",
"1614 1318 OFFCURVE",
"1650 1304 OFFCURVE",
"1663 1255 CURVE SMOOTH",
"1728 1014 LINE"
);
},
{
closed = 1;
nodes = (
"1852 0 LINE",
"1852 340 LINE",
"1832 340 LINE",
"1750 96 LINE SMOOTH",
"1734 50 OFFCURVE",
"1690 40 OFFCURVE",
"1627 40 CURVE SMOOTH",
"977 40 LINE",
"977 0 LINE"
);
},
{
closed = 1;
nodes = (
"1480 672 LINE",
"1480 714 LINE",
"1018 714 LINE",
"1018 672 LINE"
);
},
{
closed = 1;
nodes = (
"1498 440 LINE",
"1498 960 LINE",
"1458 960 LINE",
"1458 440 LINE"
);
}
);
width = 1888;
},
{
anchors = (
{
name = bottom;
position = "{1196, 0}";
},
{
name = top;
position = "{1196, 1358}";
}
);
layerId = "D7B0979E-F273-40C0-A245-443BBF311E2D";
paths = (
{
closed = 1;
nodes = (
"1469 0 LINE",
"1469 1358 LINE",
"841 1358 LINE",
"380 1358 OFFCURVE",
"52 1059 OFFCURVE",
"52 656 CURVE SMOOTH",
"52 270 OFFCURVE",
"344 0 OFFCURVE",
"839 0 CURVE"
);
},
{
closed = 1;
nodes = (
"647 103 OFFCURVE",
"483 416 OFFCURVE",
"483 754 CURVE SMOOTH",
"483 1041 OFFCURVE",
"579 1262 OFFCURVE",
"891 1262 CURVE SMOOTH",
"956 1262 OFFCURVE",
"1057 1243 OFFCURVE",
"1112 1163 CURVE",
"1112 208 LINE",
"1080 143 OFFCURVE",
"1008 103 OFFCURVE",
"939 103 CURVE SMOOTH"
);
},
{
closed = 1;
nodes = (
"2165 993 LINE",
"2165 1358 LINE",
"1136 1358 LINE",
"1136 1249 LINE",
"1840 1249 LINE SMOOTH",
"1914 1249 OFFCURVE",
"1940 1239 OFFCURVE",
"1963 1204 CURVE SMOOTH",
"2100 993 LINE"
);
},
{
closed = 1;
nodes = (
"2251 0 LINE",
"2251 358 LINE",
"2183 358 LINE",
"2071 157 LINE SMOOTH",
"2054 127 OFFCURVE",
"1987 101 OFFCURVE",
"1948 101 CURVE SMOOTH",
"1112 101 LINE",
"1112 0 LINE"
);
},
{
closed = 1;
nodes = (
"1798 626 LINE",
"1798 730 LINE",
"1231 730 LINE",
"1231 626 LINE"
);
},
{
closed = 1;
nodes = (
"1876 461 LINE",
"1876 915 LINE",
"1739 915 LINE",
"1739 461 LINE"
);
}
);
width = 2270;
},
{
anchors = (
{
name = bottom;
position = "{1173, 0}";
},
{
name = top;
position = "{1173, 1358}";
}
);
layerId = "263E301B-CB05-4AC6-937D-92FF8A6DC5EF";
paths = (
{
closed = 1;
nodes = (
"1282 0 LINE",
"1282 1358 LINE",
"809 1358 LINE",
"382 1358 OFFCURVE",
"114 1020 OFFCURVE",
"114 664 CURVE SMOOTH",
"114 293 OFFCURVE",
"375 0 OFFCURVE",
"805 0 CURVE"
);
},
{
closed = 1;
nodes = (
"590 78 OFFCURVE",
"340 352 OFFCURVE",
"340 733 CURVE SMOOTH",
"340 1022 OFFCURVE",
"510 1280 OFFCURVE",
"814 1280 CURVE SMOOTH",
"928 1280 OFFCURVE",
"1022 1272 OFFCURVE",
"1088 1195 CURVE",
"1088 145 LINE",
"1032 92 OFFCURVE",
"973 78 OFFCURVE",
"844 78 CURVE SMOOTH"
);
},
{
closed = 1;
nodes = (
"1984 1003 LINE",
"1984 1358 LINE",
"1094 1358 LINE",
"1094 1275 LINE",
"1737 1275 LINE SMOOTH",
"1813 1275 OFFCURVE",
"1845 1262 OFFCURVE",
"1860 1225 CURVE SMOOTH",
"1948 1003 LINE"
);
},
{
closed = 1;
nodes = (
"2116 0 LINE",
"2116 346 LINE",
"2078 346 LINE",
"1995 135 LINE SMOOTH",
"1983 105 OFFCURVE",
"1921 79 OFFCURVE",
"1872 79 CURVE SMOOTH",
"1088 79 LINE",
"1088 0 LINE"
);
},
{
closed = 1;
nodes = (
"1669 647 LINE",
"1669 728 LINE",
"1152 728 LINE",
"1152 647 LINE"
);
},
{
closed = 1;
nodes = (
"1718 444 LINE",
"1718 946 LINE",
"1629 946 LINE",
"1629 444 LINE"
);
}
);
width = 2152;
},
{
anchors = (
{
name = bottom;
position = "{947, 0}";
},
{
name = top;
position = "{947, 1358}";
}
);
layerId = "6B146B31-FE8A-4408-B9B5-0C900DD2277D";
paths = (
{
closed = 1;
nodes = (
"1129 0 LINE",
"1129 1358 LINE",
"694 1358 LINE",
"297 1358 OFFCURVE",
"50 1017 OFFCURVE",
"50 665 CURVE SMOOTH",
"50 295 OFFCURVE",
"293 0 OFFCURVE",
"690 0 CURVE"
);
},
{
closed = 1;
nodes = (
"490 76 OFFCURVE",
"258 347 OFFCURVE",
"258 731 CURVE SMOOTH",
"258 1019 OFFCURVE",
"417 1284 OFFCURVE",
"696 1284 CURVE SMOOTH",
"806 1284 OFFCURVE",
"894 1275 OFFCURVE",
"954 1199 CURVE",
"954 141 LINE",
"901 89 OFFCURVE",
"848 76 OFFCURVE",
"723 76 CURVE SMOOTH"
);
},
{
closed = 1;
nodes = (
"1783 1011 LINE",
"1783 1358 LINE",
"959 1358 LINE",
"959 1287 LINE",
"1538 1287 LINE SMOOTH",
"1610 1287 OFFCURVE",
"1640 1274 OFFCURVE",
"1661 1224 CURVE SMOOTH",
"1750 1011 LINE"
);
},
{
closed = 1;
nodes = (
"1847 0 LINE",
"1847 345 LINE",
"1814 345 LINE",
"1714 126 LINE SMOOTH",
"1691 76 OFFCURVE",
"1652 70 OFFCURVE",
"1591 70 CURVE SMOOTH",
"954 70 LINE",
"954 0 LINE"
);
},
{
closed = 1;
nodes = (
"1499 653 LINE",
"1499 724 LINE",
"1023 724 LINE",
"1023 653 LINE"
);
},
{
closed = 1;
nodes = (
"1536 449 LINE",
"1536 945 LINE",
"1456 945 LINE",
"1456 449 LINE"
);
}
);
width = 1878;
},
{
anchors = (
{
name = bottom;
position = "{1067, 0}";
},
{
name = top;
position = "{1067, 1358}";
}
);
layerId = "5E933A09-8E8D-4B36-A510-2D2E8DB125C4";
paths = (
{
closed = 1;
nodes = (
"1325 0 LINE",
"1325 1358 LINE",
"744 1358 LINE",
"341 1358 OFFCURVE",
"49 1063 OFFCURVE",
"49 657 CURVE SMOOTH",
"49 269 OFFCURVE",
"306 0 OFFCURVE",
"742 0 CURVE"
);
},
{
closed = 1;
nodes = (
"585 106 OFFCURVE",
"457 422 OFFCURVE",
"457 755 CURVE SMOOTH",
"457 1042 OFFCURVE",
"528 1262 OFFCURVE",
"794 1262 CURVE SMOOTH",
"841 1262 OFFCURVE",
"935 1242 OFFCURVE",
"981 1160 CURVE",
"981 214 LINE",
"957 149 OFFCURVE",
"892 106 OFFCURVE",
"839 106 CURVE SMOOTH"
);
},
{
closed = 1;
nodes = (
"1919 992 LINE",
"1919 1358 LINE",
"1006 1358 LINE",
"1006 1248 LINE",
"1624 1248 LINE SMOOTH",
"1691 1248 OFFCURVE",
"1711 1238 OFFCURVE",
"1732 1202 CURVE SMOOTH",
"1857 992 LINE"
);
},
{
closed = 1;
nodes = (
"1998 0 LINE",
"1998 358 LINE",
"1935 358 LINE",
"1833 162 LINE SMOOTH",
"1816 129 OFFCURVE",
"1753 106 OFFCURVE",
"1725 106 CURVE SMOOTH",
"981 106 LINE",
"981 0 LINE"
);
},
{
closed = 1;
nodes = (
"1579 624 LINE",
"1579 733 LINE",
"1093 733 LINE",
"1093 624 LINE"
);
},
{
closed = 1;
nodes = (
"1651 463 LINE",
"1651 914 LINE",
"1526 914 LINE",
"1526 463 LINE"
);
}
);
width = 2016;
}
);
leftKerningGroup = C;
leftMetricsKey = "=O";
note = OE;
rightKerningGroup = E;
rightMetricsKey = "=E";
unicode = 0152;
},
{
glyphname = P;
lastChange = "2019-12-22 19:42:05 +0000";
layers = (
{
anchors = (
{
name = bottom;
position = "{591, 0}";
},
{
name = top;
position = "{591, 1358}";
}
);
layerId = "C5B93EC9-9EB6-4975-AE33-1741B73E6074";
paths = (
{
closed = 1;
nodes = (
"437 29 LINE",
"437 630 LINE",
"380 622 LINE",
"452 597 OFFCURVE",
"534 596 OFFCURVE",
"645 596 CURVE SMOOTH",
"957 596 OFFCURVE",
"1153 733 OFFCURVE",
"1153 976 CURVE SMOOTH",
"1153 1217 OFFCURVE",
"948 1358 OFFCURVE",
"651 1358 CURVE SMOOTH",
"251 1358 LINE",
"251 29 LINE"
);
},
{
closed = 1;
nodes = (
"638 0 LINE",
"638 58 LINE",
"352 88 LINE",
"62 58 LINE",
"62 0 LINE"
);
},
{
closed = 1;
nodes = (
"480 669 OFFCURVE",
"417 685 OFFCURVE",
"366 723 CURVE",
"437 640 LINE",
"437 1285 LINE",
"570 1285 LINE SMOOTH",
"794 1285 OFFCURVE",
"946 1143 OFFCURVE",
"946 979 CURVE SMOOTH",
"946 777 OFFCURVE",
"814 669 OFFCURVE",
"581 669 CURVE SMOOTH"
);
},
{
closed = 1;
nodes = (
"347 1358 LINE",
"62 1358 LINE",
"62 1295 LINE",
"347 1268 LINE"
);
}
);
width = 1210;
},
{
anchors = (
{
name = bottom;
position = "{542, 0}";
},
{
name = top;
position = "{542, 1358}";
}
);
layerId = "5F1B95D2-E37F-4604-99C9-24FF8B5B0DBF";
paths = (
{
closed = 1;
nodes = (
"374 22 LINE",
"374 630 LINE",
"319 624 LINE",
"399 597 OFFCURVE",
"475 596 OFFCURVE",
"599 596 CURVE SMOOTH",
"890 596 OFFCURVE",
"1058 743 OFFCURVE",
"1058 981 CURVE SMOOTH",
"1058 1221 OFFCURVE",
"874 1358 OFFCURVE",
"605 1358 CURVE SMOOTH",
"272 1358 LINE",
"272 22 LINE"
);
},
{
closed = 1;
nodes = (
"577 0 LINE",
"577 40 LINE",
"328 60 LINE",
"72 40 LINE",
"72 0 LINE"
);
},
{
closed = 1;
nodes = (
"434 638 OFFCURVE",
"343 656 OFFCURVE",
"306 686 CURVE",
"374 640 LINE",
"374 1318 LINE",
"525 1318 LINE SMOOTH",
"766 1318 OFFCURVE",
"949 1164 OFFCURVE",
"949 986 CURVE SMOOTH",
"949 760 OFFCURVE",
"795 638 OFFCURVE",
"534 638 CURVE SMOOTH"
);
},
{
closed = 1;
nodes = (
"331 1358 LINE",
"72 1358 LINE",
"72 1318 LINE",
"331 1298 LINE"
);
}
);
width = 1128;
},
{
anchors = (
{
name = bottom;
position = "{684, 0}";
},
{
name = top;
position = "{684, 1358}";
}
);
layerId = "D7B0979E-F273-40C0-A245-443BBF311E2D";
paths = (
{
closed = 1;
nodes = (
"558 43 LINE",
"558 630 LINE",
"497 618 LINE",
"553 597 OFFCURVE",
"647 596 OFFCURVE",
"732 596 CURVE SMOOTH",
"1086 596 OFFCURVE",
"1338 713 OFFCURVE",
"1338 966 CURVE SMOOTH",
"1338 1209 OFFCURVE",
"1091 1358 OFFCURVE",
"738 1358 CURVE SMOOTH",
"204 1358 LINE",
"204 43 LINE"
);
},
{
closed = 1;
nodes = (
"755 0 LINE",
"755 86 LINE",
"395 116 LINE",
"37 86 LINE",
"37 0 LINE"
);
},
{
closed = 1;
nodes = (
"567 701 OFFCURVE",
"560 713 OFFCURVE",
"481 767 CURVE",
"558 640 LINE",
"558 1251 LINE",
"655 1251 LINE SMOOTH",
"845 1251 OFFCURVE",
"935 1119 OFFCURVE",
"935 965 CURVE SMOOTH",
"935 791 OFFCURVE",
"847 701 OFFCURVE",
"670 701 CURVE SMOOTH"
);
},
{
closed = 1;
nodes = (
"374 1358 LINE",
"37 1358 LINE",
"37 1267 LINE",
"374 1236 LINE"
);
}
);
width = 1372;
},
{
anchors = (
{
name = bottom;
position = "{605, 0}";
},
{
name = top;
position = "{605, 1358}";
}
);
layerId = "263E301B-CB05-4AC6-937D-92FF8A6DC5EF";
paths = (
{
closed = 1;
nodes = (
"454 30 LINE",
"454 630 LINE",
"397 622 LINE",
"471 597 OFFCURVE",
"556 596 OFFCURVE",
"670 596 CURVE SMOOTH",
"993 596 OFFCURVE",
"1197 733 OFFCURVE",
"1197 976 CURVE SMOOTH",
"1197 1217 OFFCURVE",
"984 1358 OFFCURVE",
"676 1358 CURVE SMOOTH",
"262 1358 LINE",
"262 30 LINE"
);
},
{
closed = 1;
nodes = (
"656 0 LINE",
"656 59 LINE",
"367 89 LINE",
"72 59 LINE",
"72 0 LINE"
);
},
{
closed = 1;
nodes = (
"500 678 OFFCURVE",
"435 694 OFFCURVE",
"382 732 CURVE",
"454 640 LINE",
"454 1275 LINE",
"593 1275 LINE SMOOTH",
"823 1275 OFFCURVE",
"980 1138 OFFCURVE",
"980 979 CURVE SMOOTH",
"980 782 OFFCURVE",
"843 678 OFFCURVE",
"604 678 CURVE SMOOTH"
);
},
{
closed = 1;
nodes = (
"369 1358 LINE",
"72 1358 LINE",
"72 1289 LINE",
"369 1261 LINE"
);
}
);
width = 1276;
},
{
anchors = (
{
name = bottom;
position = "{585, 0}";
},
{
name = top;
position = "{585, 1358}";
}
);
layerId = "6B146B31-FE8A-4408-B9B5-0C900DD2277D";
paths = (
{
closed = 1;
nodes = (
"427 28 LINE",
"427 630 LINE",
"371 622 LINE",
"441 597 OFFCURVE",
"520 596 OFFCURVE",
"628 596 CURVE SMOOTH",
"928 596 OFFCURVE",
"1115 734 OFFCURVE",
"1115 976 CURVE SMOOTH",
"1115 1217 OFFCURVE",
"919 1358 OFFCURVE",
"634 1358 CURVE SMOOTH",
"251 1358 LINE",
"251 28 LINE"
);
},
{
closed = 1;
nodes = (
"627 0 LINE",
"627 56 LINE",
"346 86 LINE",
"62 56 LINE",
"62 0 LINE"
);
},
{
closed = 1;
nodes = (
"468 659 OFFCURVE",
"406 675 OFFCURVE",
"357 713 CURVE",
"427 639 LINE",
"427 1295 LINE",
"555 1295 LINE SMOOTH",
"773 1295 OFFCURVE",
"923 1148 OFFCURVE",
"923 979 CURVE SMOOTH",
"923 772 OFFCURVE",
"794 659 OFFCURVE",
"566 659 CURVE SMOOTH"
);
},
{
closed = 1;
nodes = (
"334 1358 LINE",
"62 1358 LINE",
"62 1302 LINE",
"334 1276 LINE"
);
}
);
width = 1151;
},
{
anchors = (
{
name = bottom;
position = "{591, 0}";
},
{
name = top;
position = "{591, 1358}";
}
);
layerId = "5E933A09-8E8D-4B36-A510-2D2E8DB125C4";
paths = (
{
closed = 1;
nodes = (
"514 43 LINE",
"514 630 LINE",
"427 618 LINE",
"476 597 OFFCURVE",
"564 596 OFFCURVE",
"636 596 CURVE SMOOTH",
"951 596 OFFCURVE",
"1180 711 OFFCURVE",
"1180 964 CURVE SMOOTH",
"1180 1207 OFFCURVE",
"956 1358 OFFCURVE",
"641 1358 CURVE SMOOTH",
"171 1358 LINE",
"171 43 LINE"
);
},
{
closed = 1;
nodes = (
"658 0 LINE",
"658 87 LINE",
"345 117 LINE",
"36 87 LINE",
"36 0 LINE"
);
},
{
closed = 1;
nodes = (
"484 706 OFFCURVE",
"487 714 OFFCURVE",
"413 773 CURVE",
"514 641 LINE",
"514 1248 LINE",
"559 1248 LINE SMOOTH",
"709 1248 OFFCURVE",
"768 1117 OFFCURVE",
"768 962 CURVE SMOOTH",
"768 794 OFFCURVE",
"708 706 OFFCURVE",
"574 706 CURVE SMOOTH"
);
},
{
closed = 1;
nodes = (
"344 1358 LINE",
"36 1358 LINE",
"36 1266 LINE",
"344 1234 LINE"
);
}
);
width = 1210;
}
);
leftMetricsKey = H;
note = P;
rightKerningGroup = P;
unicode = 0050;
},
{
glyphname = Thorn;
lastChange = "2019-12-22 19:42:33 +0000";
layers = (
{
anchors = (
{
name = bottom;
position = "{615, 0}";
},
{
name = top;
position = "{615, 1358}";
}
);
layerId = "C5B93EC9-9EB6-4975-AE33-1741B73E6074";
paths = (
{
closed = 1;
nodes = (
"541 -12 OFFCURVE",
"657 33 OFFCURVE",
"738 79 CURVE SMOOTH",
"991 223 OFFCURVE",
"1143 481 OFFCURVE",
"1143 736 CURVE SMOOTH",
"1143 1022 OFFCURVE",
"1009 1328 OFFCURVE",
"796 1328 CURVE SMOOTH",
"738 1328 OFFCURVE",
"679 1294 OFFCURVE",
"630 1254 CURVE SMOOTH",
"544 1184 OFFCURVE",
"477 1132 OFFCURVE",
"390 1078 CURVE",
"352 966 LINE",
"505 1056 OFFCURVE",
"585 1120 OFFCURVE",
"667 1192 CURVE SMOOTH",
"684 1207 OFFCURVE",
"701 1212 OFFCURVE",
"713 1212 CURVE SMOOTH",
"835 1212 OFFCURVE",
"924 961 OFFCURVE",
"924 736 CURVE SMOOTH",
"924 486 OFFCURVE",
"855 305 OFFCURVE",
"694 165 CURVE SMOOTH",
"618 99 OFFCURVE",
"518 61 OFFCURVE",
"371 59 CURVE",
"364 -27 LINE"
);
},
{
closed = 1;
nodes = (
"394 -343 LINE",
"418 -303 LINE",
"418 1199 LINE SMOOTH",
"418 1257 OFFCURVE",
"418 1313 OFFCURVE",
"423 1351 CURVE",
"385 1388 LINE",
"50 1318 LINE",
"50 1251 LINE",
"276 1251 LINE",
"231 1297 LINE",
"231 -328 LINE",
"255 -269 LINE",
"96 -458 LINE",
"147 -517 LINE"
);
}
);
width = 1251;
},
{
anchors = (
{
name = bottom;
position = "{569, 0}";
},
{
name = top;
position = "{569, 1358}";
}
);
layerId = "5F1B95D2-E37F-4604-99C9-24FF8B5B0DBF";
paths = (
{
closed = 1;
nodes = (
"497 -3 OFFCURVE",
"604 34 OFFCURVE",
"690 88 CURVE SMOOTH",
"918 231 OFFCURVE",
"1039 491 OFFCURVE",
"1039 743 CURVE SMOOTH",
"1039 1032 OFFCURVE",
"949 1327 OFFCURVE",
"737 1327 CURVE SMOOTH",
"684 1327 OFFCURVE",
"635 1291 OFFCURVE",
"591 1254 CURVE SMOOTH",
"515 1190 OFFCURVE",
"439 1135 OFFCURVE",
"339 1072 CURVE",
"304 980 LINE",
"472 1081 OFFCURVE",
"545 1144 OFFCURVE",
"620 1210 CURVE SMOOTH",
"635 1223 OFFCURVE",
"658 1228 OFFCURVE",
"668 1228 CURVE SMOOTH",
"832 1228 OFFCURVE",
"926 977 OFFCURVE",
"926 743 CURVE SMOOTH",
"926 475 OFFCURVE",
"863 317 OFFCURVE",
"676 158 CURVE SMOOTH",
"575 72 OFFCURVE",
"467 31 OFFCURVE",
"318 27 CURVE",
"309 -17 LINE"
);
},
{
closed = 1;
nodes = (
"345 -343 LINE",
"357 -313 LINE",
"357 1184 LINE SMOOTH",
"357 1252 OFFCURVE",
"357 1317 OFFCURVE",
"362 1353 CURVE",
"337 1384 LINE",
"64 1316 LINE",
"64 1276 LINE",
"295 1276 LINE",
"255 1302 LINE",
"255 -335 LINE",
"279 -272 LINE",
"108 -468 LINE",
"141 -503 LINE"
);
}
);
width = 1178;
},
{
anchors = (
{
name = bottom;
position = "{707, 0}";
},
{
name = top;
position = "{707, 1358}";
}
);
layerId = "D7B0979E-F273-40C0-A245-443BBF311E2D";
paths = (
{
closed = 1;
nodes = (
"629 -12 OFFCURVE",
"767 33 OFFCURVE",
"834 61 CURVE SMOOTH",
"1137 207 OFFCURVE",
"1351 461 OFFCURVE",
"1351 722 CURVE SMOOTH",
"1351 1002 OFFCURVE",
"1129 1330 OFFCURVE",
"914 1330 CURVE SMOOTH",
"846 1330 OFFCURVE",
"767 1300 OFFCURVE",
"708 1254 CURVE SMOOTH",
"602 1172 OFFCURVE",
"553 1126 OFFCURVE",
"492 1090 CURVE",
"448 938 LINE",
"571 1006 OFFCURVE",
"665 1068 OFFCURVE",
"761 1156 CURVE SMOOTH",
"782 1175 OFFCURVE",
"787 1180 OFFCURVE",
"803 1180 CURVE SMOOTH",
"841 1180 OFFCURVE",
"920 929 OFFCURVE",
"920 722 CURVE SMOOTH",
"920 508 OFFCURVE",
"839 281 OFFCURVE",
"730 179 CURVE SMOOTH",
"690 139 OFFCURVE",
"620 83 OFFCURVE",
"477 83 CURVE",
"474 -27 LINE"
);
},
{
closed = 1;
nodes = (
"492 -343 LINE",
"540 -283 LINE",
"540 1229 LINE SMOOTH",
"540 1267 OFFCURVE",
"540 1305 OFFCURVE",
"545 1347 CURVE",
"481 1396 LINE",
"22 1322 LINE",
"22 1229 LINE",
"238 1229 LINE",
"183 1287 LINE",
"183 -314 LINE",
"207 -263 LINE",
"72 -438 LINE",
"159 -545 LINE"
);
}
);
width = 1398;
},
{
anchors = (
{
name = bottom;
position = "{618, 0}";
},
{
name = top;
position = "{618, 1358}";
}
);
layerId = "263E301B-CB05-4AC6-937D-92FF8A6DC5EF";
paths = (
{
closed = 1;
nodes = (
"554 -12 OFFCURVE",
"674 33 OFFCURVE",
"757 79 CURVE SMOOTH",
"1019 224 OFFCURVE",
"1178 479 OFFCURVE",
"1178 736 CURVE SMOOTH",
"1178 1025 OFFCURVE",
"1036 1328 OFFCURVE",
"817 1328 CURVE SMOOTH",
"757 1328 OFFCURVE",
"695 1294 OFFCURVE",
"646 1254 CURVE SMOOTH",
"557 1183 OFFCURVE",
"488 1132 OFFCURVE",
"397 1078 CURVE",
"358 965 LINE",
"516 1055 OFFCURVE",
"597 1119 OFFCURVE",
"683 1191 CURVE SMOOTH",
"701 1206 OFFCURVE",
"719 1210 OFFCURVE",
"731 1210 CURVE SMOOTH",
"858 1210 OFFCURVE",
"951 959 OFFCURVE",
"951 736 CURVE SMOOTH",
"951 487 OFFCURVE",
"879 305 OFFCURVE",
"711 166 CURVE SMOOTH",
"633 100 OFFCURVE",
"529 62 OFFCURVE",
"378 60 CURVE",
"371 -27 LINE"
);
},
{
closed = 1;
nodes = (
"401 -343 LINE",
"427 -303 LINE",
"427 1200 LINE SMOOTH",
"427 1257 OFFCURVE",
"427 1313 OFFCURVE",
"432 1351 CURVE",
"392 1388 LINE",
"51 1318 LINE",
"51 1251 LINE",
"281 1250 LINE",
"233 1300 LINE",
"233 -328 LINE",
"256 -268 LINE",
"93 -453 LINE",
"149 -518 LINE"
);
}
);
width = 1288;
},
{
anchors = (
{
name = bottom;
position = "{609, 0}";
},
{
name = top;
position = "{609, 1358}";
}
);
layerId = "6B146B31-FE8A-4408-B9B5-0C900DD2277D";
paths = (
{
closed = 1;
nodes = (
"526 -12 OFFCURVE",
"637 33 OFFCURVE",
"716 80 CURVE SMOOTH",
"960 220 OFFCURVE",
"1103 483 OFFCURVE",
"1103 737 CURVE SMOOTH",
"1103 1020 OFFCURVE",
"980 1328 OFFCURVE",
"772 1328 CURVE SMOOTH",
"716 1328 OFFCURVE",
"660 1293 OFFCURVE",
"613 1254 CURVE SMOOTH",
"530 1184 OFFCURVE",
"464 1133 OFFCURVE",
"381 1078 CURVE",
"343 968 LINE",
"492 1059 OFFCURVE",
"571 1122 OFFCURVE",
"648 1194 CURVE SMOOTH",
"664 1209 OFFCURVE",
"680 1214 OFFCURVE",
"693 1214 CURVE SMOOTH",
"812 1214 OFFCURVE",
"897 963 OFFCURVE",
"897 737 CURVE SMOOTH",
"897 485 OFFCURVE",
"831 305 OFFCURVE",
"676 164 CURVE SMOOTH",
"601 96 OFFCURVE",
"504 60 OFFCURVE",
"361 58 CURVE",
"354 -27 LINE"
);
},
{
closed = 1;
nodes = (
"384 -343 LINE",
"406 -304 LINE",
"406 1197 LINE SMOOTH",
"406 1256 OFFCURVE",
"406 1313 OFFCURVE",
"411 1351 CURVE",
"376 1387 LINE",
"49 1318 LINE",
"49 1252 LINE",
"272 1253 LINE",
"230 1295 LINE",
"230 -329 LINE",
"254 -269 LINE",
"99 -463 LINE",
"144 -515 LINE"
);
}
);
width = 1212;
},
{
anchors = (
{
name = bottom;
position = "{613, 0}";
},
{
name = top;
position = "{613, 1358}";
}
);
layerId = "5E933A09-8E8D-4B36-A510-2D2E8DB125C4";
paths = (
{
closed = 1;
nodes = (
"536 -13 OFFCURVE",
"669 32 OFFCURVE",
"734 60 CURVE SMOOTH",
"1032 201 OFFCURVE",
"1225 470 OFFCURVE",
"1225 722 CURVE SMOOTH",
"1225 999 OFFCURVE",
"1007 1330 OFFCURVE",
"808 1330 CURVE SMOOTH",
"742 1330 OFFCURVE",
"668 1302 OFFCURVE",
"614 1253 CURVE SMOOTH",
"522 1169 OFFCURVE",
"448 1112 OFFCURVE",
"417 1092 CURVE",
"377 937 LINE",
"495 1012 OFFCURVE",
"583 1063 OFFCURVE",
"670 1154 CURVE SMOOTH",
"688 1175 OFFCURVE",
"695 1179 OFFCURVE",
"711 1179 CURVE SMOOTH",
"730 1179 OFFCURVE",
"808 925 OFFCURVE",
"808 722 CURVE SMOOTH",
"808 512 OFFCURVE",
"726 279 OFFCURVE",
"633 180 CURVE SMOOTH",
"598 143 OFFCURVE",
"536 84 OFFCURVE",
"403 85 CURVE",
"400 -28 LINE"
);
},
{
closed = 1;
nodes = (
"444 -344 LINE",
"489 -281 LINE",
"489 1234 LINE SMOOTH",
"489 1267 OFFCURVE",
"489 1303 OFFCURVE",
"494 1347 CURVE",
"432 1395 LINE",
"24 1323 LINE",
"24 1226 LINE",
"203 1231 LINE",
"145 1287 LINE",
"145 -314 LINE",
"173 -262 LINE",
"52 -438 LINE",
"135 -546 LINE"
);
}
);
width = 1251;
}
);
note = Thorn;
rightKerningGroup = Thorn;
unicode = 00DE;
},
{
glyphname = Q;
lastChange = "2019-12-22 19:43:13 +0000";
layers = (
{
anchors = (
{
name = bottom;
position = "{816, 0}";
},
{
name = top;
position = "{816, 1358}";
}
);
layerId = "C5B93EC9-9EB6-4975-AE33-1741B73E6074";
paths = (
{
closed = 1;
nodes = (
"2228 -286 OFFCURVE",
"2452 -229 OFFCURVE",
"2581 -144 CURVE",
"2566 -106 LINE",
"2430 -147 OFFCURVE",
"2259 -176 OFFCURVE",
"2066 -176 CURVE SMOOTH",
"1609 -176 OFFCURVE",
"1173 -114 OFFCURVE",
"765 28 CURVE SMOOTH",
"427 146 OFFCURVE",
"301 373 OFFCURVE",
"301 706 CURVE SMOOTH",
"301 1081 OFFCURVE",
"502 1315 OFFCURVE",
"755 1315 CURVE SMOOTH",
"1035 1315 OFFCURVE",
"1223 1034 OFFCURVE",
"1223 701 CURVE SMOOTH",
"1223 280 OFFCURVE",
"986 62 OFFCURVE",
"685 62 CURVE SMOOTH",
"624 62 OFFCURVE",
"571 68 OFFCURVE",
"518 77 CURVE",
"638 -4 LINE",
"656 -6 OFFCURVE",
"675 -6 OFFCURVE",
"694 -6 CURVE SMOOTH",
"1068 -6 OFFCURVE",
"1442 232 OFFCURVE",
"1442 719 CURVE SMOOTH",
"1442 1099 OFFCURVE",
"1152 1385 OFFCURVE",
"767 1385 CURVE SMOOTH",
"332 1385 OFFCURVE",
"82 1018 OFFCURVE",
"82 658 CURVE SMOOTH",
"82 296 OFFCURVE",
"341 59 OFFCURVE",
"723 -76 CURVE SMOOTH",
"1137 -222 OFFCURVE",
"1627 -286 OFFCURVE",
"1972 -286 CURVE SMOOTH"
);
}
);
width = 1526;
},
{
anchors = (
{
name = bottom;
position = "{742, 0}";
},
{
name = top;
position = "{742, 1358}";
}
);
layerId = "5F1B95D2-E37F-4604-99C9-24FF8B5B0DBF";
paths = (
{
closed = 1;
nodes = (
"2185 -271 OFFCURVE",
"2420 -219 OFFCURVE",
"2537 -142 CURVE",
"2528 -121 LINE",
"2414 -157 OFFCURVE",
"2219 -191 OFFCURVE",
"2055 -191 CURVE SMOOTH",
"1575 -191 OFFCURVE",
"1206 -137 OFFCURVE",
"710 28 CURVE SMOOTH",
"362 144 OFFCURVE",
"210 369 OFFCURVE",
"210 712 CURVE SMOOTH",
"210 1063 OFFCURVE",
"434 1343 OFFCURVE",
"718 1343 CURVE SMOOTH",
"1013 1343 OFFCURVE",
"1239 1034 OFFCURVE",
"1239 706 CURVE SMOOTH",
"1239 253 OFFCURVE",
"954 36 OFFCURVE",
"655 36 CURVE SMOOTH",
"584 36 OFFCURVE",
"540 41 OFFCURVE",
"480 51 CURVE",
"600 -4 LINE",
"618 -6 OFFCURVE",
"637 -6 OFFCURVE",
"656 -6 CURVE SMOOTH",
"1003 -6 OFFCURVE",
"1352 231 OFFCURVE",
"1352 717 CURVE SMOOTH",
"1352 1055 OFFCURVE",
"1085 1385 OFFCURVE",
"718 1385 CURVE SMOOTH",
"330 1385 OFFCURVE",
"97 1018 OFFCURVE",
"97 659 CURVE SMOOTH",
"97 312 OFFCURVE",
"325 68 OFFCURVE",
"681 -54 CURVE SMOOTH",
"1091 -194 OFFCURVE",
"1621 -271 OFFCURVE",
"1993 -271 CURVE SMOOTH"
);
}
);
width = 1448;
},
{
anchors = (
{
name = bottom;
position = "{964, 0}";
},
{
name = top;
position = "{964, 1358}";
}
);
layerId = "D7B0979E-F273-40C0-A245-443BBF311E2D";
paths = (
{
closed = 1;
nodes = (
"2314 -316 OFFCURVE",
"2516 -249 OFFCURVE",
"2669 -148 CURVE",
"2642 -76 LINE",
"2462 -127 OFFCURVE",
"2339 -146 OFFCURVE",
"2088 -146 CURVE SMOOTH",
"1677 -146 OFFCURVE",
"1107 -68 OFFCURVE",
"875 28 CURVE SMOOTH",
"560 158 OFFCURVE",
"483 381 OFFCURVE",
"483 694 CURVE SMOOTH",
"483 1133 OFFCURVE",
"638 1289 OFFCURVE",
"829 1289 CURVE SMOOTH",
"1079 1289 OFFCURVE",
"1191 1050 OFFCURVE",
"1191 691 CURVE SMOOTH",
"1191 324 OFFCURVE",
"1050 100 OFFCURVE",
"745 100 CURVE SMOOTH",
"704 100 OFFCURVE",
"633 108 OFFCURVE",
"594 115 CURVE",
"714 -4 LINE",
"732 -6 OFFCURVE",
"751 -6 OFFCURVE",
"770 -6 CURVE SMOOTH",
"1198 -6 OFFCURVE",
"1622 234 OFFCURVE",
"1622 723 CURVE SMOOTH",
"1622 1187 OFFCURVE",
"1286 1385 OFFCURVE",
"865 1385 CURVE SMOOTH",
"336 1385 OFFCURVE",
"52 1018 OFFCURVE",
"52 656 CURVE SMOOTH",
"52 264 OFFCURVE",
"373 41 OFFCURVE",
"807 -120 CURVE SMOOTH",
"1230 -277 OFFCURVE",
"1639 -316 OFFCURVE",
"1930 -316 CURVE SMOOTH"
);
}
);
width = 1644;
},
{
anchors = (
{
name = bottom;
position = "{899, 0}";
},
{
name = top;
position = "{899, 1358}";
}
);
layerId = "263E301B-CB05-4AC6-937D-92FF8A6DC5EF";
paths = (
{
closed = 1;
nodes = (
"2337 -287 OFFCURVE",
"2569 -230 OFFCURVE",
"2703 -144 CURVE",
"2687 -105 LINE",
"2546 -145 OFFCURVE",
"2370 -175 OFFCURVE",
"2168 -175 CURVE SMOOTH",
"1697 -175 OFFCURVE",
"1243 -112 OFFCURVE",
"823 28 CURVE SMOOTH",
"470 146 OFFCURVE",
"340 373 OFFCURVE",
"340 706 CURVE SMOOTH",
"340 1082 OFFCURVE",
"549 1315 OFFCURVE",
"813 1315 CURVE SMOOTH",
"1105 1315 OFFCURVE",
"1300 1034 OFFCURVE",
"1300 701 CURVE SMOOTH",
"1300 281 OFFCURVE",
"1055 63 OFFCURVE",
"740 63 CURVE SMOOTH",
"678 63 OFFCURVE",
"623 69 OFFCURVE",
"568 78 CURVE",
"692 -4 LINE",
"711 -6 OFFCURVE",
"731 -6 OFFCURVE",
"750 -6 CURVE SMOOTH",
"1138 -6 OFFCURVE",
"1526 232 OFFCURVE",
"1526 719 CURVE SMOOTH",
"1526 1101 OFFCURVE",
"1225 1385 OFFCURVE",
"825 1385 CURVE SMOOTH",
"373 1385 OFFCURVE",
"114 1018 OFFCURVE",
"114 658 CURVE SMOOTH",
"114 294 OFFCURVE",
"382 59 OFFCURVE",
"780 -77 CURVE SMOOTH",
"1209 -224 OFFCURVE",
"1714 -287 OFFCURVE",
"2070 -287 CURVE SMOOTH"
);
}
);
width = 1643;
},
{
anchors = (
{
name = bottom;
position = "{729, 0}";
},
{
name = top;
position = "{729, 1358}";
}
);
layerId = "6B146B31-FE8A-4408-B9B5-0C900DD2277D";
paths = (
{
closed = 1;
nodes = (
"2117 -284 OFFCURVE",
"2333 -227 OFFCURVE",
"2457 -144 CURVE",
"2443 -108 LINE",
"2314 -149 OFFCURVE",
"2146 -178 OFFCURVE",
"1963 -178 CURVE SMOOTH",
"1520 -178 OFFCURVE",
"1104 -118 OFFCURVE",
"704 28 CURVE SMOOTH",
"381 148 OFFCURVE",
"258 372 OFFCURVE",
"258 707 CURVE SMOOTH",
"258 1079 OFFCURVE",
"451 1316 OFFCURVE",
"695 1316 CURVE SMOOTH",
"964 1316 OFFCURVE",
"1146 1033 OFFCURVE",
"1146 702 CURVE SMOOTH",
"1146 277 OFFCURVE",
"915 61 OFFCURVE",
"628 61 CURVE SMOOTH",
"569 61 OFFCURVE",
"517 66 OFFCURVE",
"466 76 CURVE",
"582 -4 LINE",
"600 -6 OFFCURVE",
"618 -6 OFFCURVE",
"636 -6 CURVE SMOOTH",
"994 -6 OFFCURVE",
"1354 232 OFFCURVE",
"1354 719 CURVE SMOOTH",
"1354 1094 OFFCURVE",
"1076 1385 OFFCURVE",
"706 1385 CURVE SMOOTH",
"290 1385 OFFCURVE",
"50 1018 OFFCURVE",
"50 658 CURVE SMOOTH",
"50 298 OFFCURVE",
"298 60 OFFCURVE",
"664 -73 CURVE SMOOTH",
"1064 -218 OFFCURVE",
"1540 -284 OFFCURVE",
"1874 -284 CURVE SMOOTH"
);
}
);
width = 1406;
},
{
anchors = (
{
name = bottom;
position = "{883, 0}";
},
{
name = top;
position = "{883, 1358}";
}
);
layerId = "5E933A09-8E8D-4B36-A510-2D2E8DB125C4";
paths = (
{
closed = 1;
nodes = (
"2059 -317 OFFCURVE",
"2237 -251 OFFCURVE",
"2374 -148 CURVE",
"2347 -75 LINE",
"2185 -127 OFFCURVE",
"2075 -145 OFFCURVE",
"1854 -145 CURVE SMOOTH",
"1506 -145 OFFCURVE",
"984 -73 OFFCURVE",
"797 28 CURVE SMOOTH",
"536 169 OFFCURVE",
"465 375 OFFCURVE",
"465 694 CURVE SMOOTH",
"465 1135 OFFCURVE",
"591 1286 OFFCURVE",
"749 1286 CURVE SMOOTH",
"960 1286 OFFCURVE",
"1050 1048 OFFCURVE",
"1050 691 CURVE SMOOTH",
"1050 331 OFFCURVE",
"938 105 OFFCURVE",
"673 105 CURVE SMOOTH",
"642 105 OFFCURVE",
"575 112 OFFCURVE",
"542 120 CURVE",
"649 -4 LINE",
"666 -6 OFFCURVE",
"682 -6 OFFCURVE",
"698 -6 CURVE SMOOTH",
"1080 -6 OFFCURVE",
"1465 234 OFFCURVE",
"1465 726 CURVE SMOOTH",
"1465 1195 OFFCURVE",
"1159 1385 OFFCURVE",
"784 1385 CURVE SMOOTH",
"308 1385 OFFCURVE",
"49 1018 OFFCURVE",
"49 656 CURVE SMOOTH",
"49 268 OFFCURVE",
"340 41 OFFCURVE",
"728 -122 CURVE SMOOTH",
"1113 -284 OFFCURVE",
"1459 -317 OFFCURVE",
"1705 -317 CURVE SMOOTH"
);
}
);
width = 1526;
}
);
leftKerningGroup = C;
leftMetricsKey = "=O";
widthMetricsKey = O;
note = Q;
unicode = 0051;
},
{
glyphname = R;
lastChange = "2019-12-22 19:43:41 +0000";
layers = (
{
anchors = (
{
name = bottom;
position = "{668, 0}";
},
{
name = top;
position = "{598, 1358}";
}
);
backgroundImage = {
crop = "{{0, 0}, {545, 565}}";
imagePath = "Images/R_.glif-Regular.tif";
locked = "1";
transform = "{2.71689, 0, 0, 2.71689, -50, -98}";
};
guideLines = (
{
angle = 123.8139;
position = "{960, 412}";
}
);
layerId = "C5B93EC9-9EB6-4975-AE33-1741B73E6074";
paths = (
{
closed = 1;
nodes = (
"1376 0 LINE",
"1376 56 LINE",
"1270 68 OFFCURVE",
"1174 100 OFFCURVE",
"1122 172 CURVE SMOOTH",
"998 343 OFFCURVE",
"875 532 OFFCURVE",
"769 699 CURVE",
"744 648 LINE",
"939 693 OFFCURVE",
"1073 833 OFFCURVE",
"1073 1016 CURVE SMOOTH",
"1073 1203 OFFCURVE",
"933 1358 OFFCURVE",
"651 1358 CURVE SMOOTH",
"249 1358 LINE",
"249 29 LINE",
"436 29 LINE",
"436 1285 LINE",
"565 1285 LINE SMOOTH",
"765 1285 OFFCURVE",
"866 1151 OFFCURVE",
"866 1000 CURVE SMOOTH",
"866 824 OFFCURVE",
"730 695 OFFCURVE",
"551 695 CURVE SMOOTH",
"490 695 OFFCURVE",
"432 698 OFFCURVE",
"383 740 CURVE",
"393 620 LINE",
"556 620 LINE SMOOTH",
"597 620 OFFCURVE",
"633 595 OFFCURVE",
"670 539 CURVE SMOOTH",
"787 362 OFFCURVE",
"931 126 OFFCURVE",
"992 0 CURVE"
);
},
{
closed = 1;
nodes = (
"638 0 LINE",
"638 58 LINE",
"352 88 LINE",
"62 58 LINE",
"62 0 LINE"
);
},
{
closed = 1;
nodes = (
"347 1358 LINE",
"62 1358 LINE",
"62 1295 LINE",
"347 1268 LINE"
);
}
);
width = 1415;
},
{
anchors = (
{
name = bottom;
position = "{606, 0}";
},
{
name = top;
position = "{526, 1358}";
}
);
layerId = "5F1B95D2-E37F-4604-99C9-24FF8B5B0DBF";
paths = (
{
closed = 1;
nodes = (
"1286 0 LINE",
"1286 40 LINE",
"1163 56 OFFCURVE",
"1102 77 OFFCURVE",
"1050 154 CURVE SMOOTH",
"922 344 OFFCURVE",
"808 515 OFFCURVE",
"707 679 CURVE",
"690 648 LINE",
"882 707 OFFCURVE",
"997 827 OFFCURVE",
"997 1014 CURVE SMOOTH",
"997 1202 OFFCURVE",
"882 1358 OFFCURVE",
"581 1358 CURVE SMOOTH",
"272 1358 LINE",
"272 29 LINE",
"374 29 LINE",
"374 1318 LINE",
"565 1318 LINE SMOOTH",
"777 1318 OFFCURVE",
"884 1168 OFFCURVE",
"884 1000 CURVE SMOOTH",
"884 810 OFFCURVE",
"740 671 OFFCURVE",
"551 671 CURVE SMOOTH",
"468 671 OFFCURVE",
"390 674 OFFCURVE",
"323 716 CURVE",
"337 629 LINE",
"550 629 LINE SMOOTH",
"586 629 OFFCURVE",
"621 601 OFFCURVE",
"661 539 CURVE SMOOTH",
"775 363 OFFCURVE",
"916 126 OFFCURVE",
"976 0 CURVE"
);
},
{
closed = 1;
nodes = (
"577 1 LINE",
"577 40 LINE",
"328 60 LINE",
"72 40 LINE",
"72 1 LINE"
);
},
{
closed = 1;
nodes = (
"331 1359 LINE",
"72 1359 LINE",
"72 1319 LINE",
"331 1299 LINE"
);
}
);
width = 1324;
},
{
anchors = (
{
name = bottom;
position = "{774, 0}";
},
{
name = top;
position = "{684, 1358}";
}
);
layerId = "D7B0979E-F273-40C0-A245-443BBF311E2D";
paths = (
{
closed = 1;
nodes = (
"1551 0 LINE",
"1551 80 LINE",
"1450 89 OFFCURVE",
"1351 114 OFFCURVE",
"1291 179 CURVE SMOOTH",
"1139 344 OFFCURVE",
"1001 536 OFFCURVE",
"909 715 CURVE",
"834 618 LINE",
"1113 667 OFFCURVE",
"1250 808 OFFCURVE",
"1250 1001 CURVE SMOOTH",
"1250 1230 OFFCURVE",
"1060 1358 OFFCURVE",
"756 1358 CURVE SMOOTH",
"198 1358 LINE",
"198 29 LINE",
"555 29 LINE",
"555 1251 LINE",
"578 1251 LINE SMOOTH",
"759 1251 OFFCURVE",
"859 1129 OFFCURVE",
"859 982 CURVE SMOOTH",
"859 832 OFFCURVE",
"759 715 OFFCURVE",
"578 715 CURVE SMOOTH",
"531 715 OFFCURVE",
"502 718 OFFCURVE",
"468 730 CURVE",
"468 602 LINE",
"605 602 LINE SMOOTH",
"653 602 OFFCURVE",
"688 583 OFFCURVE",
"716 539 CURVE SMOOTH",
"829 361 OFFCURVE",
"971 126 OFFCURVE",
"1031 0 CURVE"
);
},
{
closed = 1;
nodes = (
"755 -2 LINE",
"755 84 LINE",
"395 114 LINE",
"37 84 LINE",
"37 -2 LINE"
);
},
{
closed = 1;
nodes = (
"374 1356 LINE",
"37 1356 LINE",
"37 1265 LINE",
"374 1234 LINE"
);
}
);
width = 1592;
},
{
anchors = (
{
name = bottom;
position = "{681, 0}";
},
{
name = top;
position = "{611, 1358}";
}
);
layerId = "263E301B-CB05-4AC6-937D-92FF8A6DC5EF";
paths = (
{
closed = 1;
nodes = (
"1415 0 LINE",
"1415 59 LINE",
"1306 71 OFFCURVE",
"1208 103 OFFCURVE",
"1153 175 CURVE SMOOTH",
"1024 343 OFFCURVE",
"899 533 OFFCURVE",
"790 701 CURVE",
"763 647 LINE",
"964 692 OFFCURVE",
"1103 818 OFFCURVE",
"1103 1012 CURVE SMOOTH",
"1103 1209 OFFCURVE",
"959 1358 OFFCURVE",
"669 1358 CURVE SMOOTH",
"255 1358 LINE",
"255 29 LINE",
"447 29 LINE",
"447 1285 LINE",
"580 1285 LINE SMOOTH",
"778 1285 OFFCURVE",
"878 1151 OFFCURVE",
"878 1000 CURVE SMOOTH",
"878 824 OFFCURVE",
"743 695 OFFCURVE",
"566 695 CURVE SMOOTH",
"503 695 OFFCURVE",
"443 698 OFFCURVE",
"393 740 CURVE",
"403 620 LINE",
"565 620 LINE SMOOTH",
"606 620 OFFCURVE",
"642 595 OFFCURVE",
"679 539 CURVE SMOOTH",
"796 362 OFFCURVE",
"942 126 OFFCURVE",
"1003 0 CURVE"
);
},
{
closed = 1;
nodes = (
"656 0 LINE",
"656 59 LINE",
"367 89 LINE",
"72 59 LINE",
"72 0 LINE"
);
},
{
closed = 1;
nodes = (
"369 1358 LINE",
"72 1358 LINE",
"72 1289 LINE",
"369 1261 LINE"
);
}
);
width = 1471;
},
{
anchors = (
{
name = bottom;
position = "{642, 0}";
},
{
name = top;
position = "{572, 1358}";
}
);
layerId = "6B146B31-FE8A-4408-B9B5-0C900DD2277D";
paths = (
{
closed = 1;
nodes = (
"1333 0 LINE",
"1333 56 LINE",
"1230 68 OFFCURVE",
"1137 100 OFFCURVE",
"1087 172 CURVE SMOOTH",
"968 342 OFFCURVE",
"850 530 OFFCURVE",
"747 697 CURVE",
"724 648 LINE",
"910 694 OFFCURVE",
"1037 834 OFFCURVE",
"1037 1017 CURVE SMOOTH",
"1037 1204 OFFCURVE",
"902 1358 OFFCURVE",
"632 1358 CURVE SMOOTH",
"243 1358 LINE",
"243 29 LINE",
"418 29 LINE",
"418 1285 LINE",
"548 1285 LINE SMOOTH",
"735 1285 OFFCURVE",
"830 1151 OFFCURVE",
"830 1000 CURVE SMOOTH",
"830 824 OFFCURVE",
"702 695 OFFCURVE",
"535 695 CURVE SMOOTH",
"476 695 OFFCURVE",
"420 698 OFFCURVE",
"372 740 CURVE",
"382 620 LINE",
"541 620 LINE SMOOTH",
"580 620 OFFCURVE",
"613 595 OFFCURVE",
"648 539 CURVE SMOOTH",
"758 362 OFFCURVE",
"895 126 OFFCURVE",
"953 0 CURVE"
);
},
{
closed = 1;
nodes = (
"619 0 LINE",
"619 56 LINE",
"342 86 LINE",
"62 56 LINE",
"62 0 LINE"
);
},
{
closed = 1;
nodes = (
"338 1358 LINE",
"62 1358 LINE",
"62 1295 LINE",
"338 1268 LINE"
);
}
);
width = 1353;
},
{
anchors = (
{
name = bottom;
position = "{668, 0}";
},
{
name = top;
position = "{598, 1358}";
}
);
layerId = "5E933A09-8E8D-4B36-A510-2D2E8DB125C4";
paths = (
{
closed = 1;
nodes = (
"1403 0 LINE",
"1403 80 LINE",
"1331 89 OFFCURVE",
"1262 114 OFFCURVE",
"1213 184 CURVE SMOOTH",
"1102 345 OFFCURVE",
"995 540 OFFCURVE",
"923 721 CURVE",
"813 617 LINE",
"1093 669 OFFCURVE",
"1230 800 OFFCURVE",
"1230 996 CURVE SMOOTH",
"1230 1223 OFFCURVE",
"1040 1358 OFFCURVE",
"736 1358 CURVE SMOOTH",
"191 1358 LINE",
"191 29 LINE",
"535 29 LINE",
"535 1251 LINE",
"558 1251 LINE SMOOTH",
"739 1251 OFFCURVE",
"839 1133 OFFCURVE",
"839 985 CURVE SMOOTH",
"839 836 OFFCURVE",
"739 715 OFFCURVE",
"558 715 CURVE SMOOTH",
"511 715 OFFCURVE",
"482 718 OFFCURVE",
"448 730 CURVE",
"448 602 LINE",
"605 602 LINE SMOOTH",
"645 602 OFFCURVE",
"674 583 OFFCURVE",
"698 539 CURVE SMOOTH",
"794 362 OFFCURVE",
"911 126 OFFCURVE",
"961 0 CURVE"
);
},
{
closed = 1;
nodes = (
"703 0 LINE",
"703 86 LINE",
"367 116 LINE",
"36 86 LINE",
"36 0 LINE"
);
},
{
closed = 1;
nodes = (
"373 1356 LINE",
"36 1356 LINE",
"36 1265 LINE",
"373 1234 LINE"
);
}
);
width = 1415;
}
);
leftMetricsKey = H;
note = R;
rightKerningGroup = R;
rightMetricsKey = A;
unicode = 0052;
},
{
glyphname = S;
lastChange = "2019-12-22 19:44:03 +0000";
layers = (
{
anchors = (
{
name = bottom;
position = "{528, 0}";
},
{
name = top;
position = "{564, 1358}";
}
);
guideLines = (
{
angle = 72.1636;
position = "{579, 797}";
showMeasurement = 1;
},
{
angle = 162.1636;
position = "{589, 597}";
},
{
angle = 162.1636;
position = "{589, 797}";
}
);
layerId = "C5B93EC9-9EB6-4975-AE33-1741B73E6074";
paths = (
{
closed = 1;
nodes = (
"810 -27 OFFCURVE",
"980 142 OFFCURVE",
"980 378 CURVE SMOOTH",
"980 660 OFFCURVE",
"747 746 OFFCURVE",
"598 794 CURVE SMOOTH",
"430 848 OFFCURVE",
"320 917 OFFCURVE",
"320 1073 CURVE SMOOTH",
"320 1224 OFFCURVE",
"418 1310 OFFCURVE",
"559 1310 CURVE SMOOTH",
"699 1310 OFFCURVE",
"835 1221 OFFCURVE",
"854 967 CURVE",
"934 967 LINE",
"992 1371 LINE",
"913 1371 LINE",
"858 1209 LINE",
"920 1209 LINE",
"803 1343 OFFCURVE",
"669 1385 OFFCURVE",
"548 1385 CURVE SMOOTH",
"313 1385 OFFCURVE",
"140 1247 OFFCURVE",
"140 1017 CURVE SMOOTH",
"140 798 OFFCURVE",
"288 693 OFFCURVE",
"507 623 CURVE SMOOTH",
"647 578 OFFCURVE",
"793 497 OFFCURVE",
"793 313 CURVE SMOOTH",
"793 164 OFFCURVE",
"693 48 OFFCURVE",
"535 48 CURVE SMOOTH",
"357 48 OFFCURVE",
"223 183 OFFCURVE",
"223 464 CURVE",
"146 473 LINE",
"100 127 LINE",
"221 15 OFFCURVE",
"372 -27 OFFCURVE",
"517 -27 CURVE SMOOTH"
);
}
);
width = 1095;
},
{
anchors = (
{
name = bottom;
position = "{515, 0}";
},
{
name = top;
position = "{556, 1358}";
}
);
layerId = "5F1B95D2-E37F-4604-99C9-24FF8B5B0DBF";
paths = (
{
closed = 1;
nodes = (
"775 -27 OFFCURVE",
"931 142 OFFCURVE",
"931 364 CURVE SMOOTH",
"931 623 OFFCURVE",
"714 706 OFFCURVE",
"561 764 CURVE SMOOTH",
"388 830 OFFCURVE",
"269 908 OFFCURVE",
"269 1072 CURVE SMOOTH",
"269 1247 OFFCURVE",
"384 1343 OFFCURVE",
"525 1343 CURVE SMOOTH",
"665 1343 OFFCURVE",
"826 1257 OFFCURVE",
"851 966 CURVE",
"891 966 LINE",
"947 1371 LINE",
"907 1371 LINE",
"855 1207 LINE",
"884 1207 LINE",
"770 1354 OFFCURVE",
"632 1385 OFFCURVE",
"529 1385 CURVE SMOOTH",
"322 1385 OFFCURVE",
"167 1259 OFFCURVE",
"167 1046 CURVE SMOOTH",
"167 835 OFFCURVE",
"319 736 OFFCURVE",
"525 657 CURVE SMOOTH",
"655 607 OFFCURVE",
"829 534 OFFCURVE",
"829 327 CURVE SMOOTH",
"829 145 OFFCURVE",
"704 15 OFFCURVE",
"529 15 CURVE SMOOTH",
"349 15 OFFCURVE",
"217 138 OFFCURVE",
"217 470 CURVE",
"172 476 LINE",
"130 134 LINE",
"247 20 OFFCURVE",
"365 -27 OFFCURVE",
"504 -27 CURVE SMOOTH"
);
}
);
width = 1075;
},
{
anchors = (
{
name = bottom;
position = "{554, 0}";
},
{
name = top;
position = "{580, 1358}";
}
);
guideLines = (
{
angle = 78.6901;
position = "{608, 845}";
showMeasurement = 1;
},
{
angle = 168.6576;
position = "{672, 531}";
},
{
angle = 168.6576;
position = "{672, 842}";
}
);
layerId = "D7B0979E-F273-40C0-A245-443BBF311E2D";
paths = (
{
closed = 1;
nodes = (
"880 -27 OFFCURVE",
"1078 152 OFFCURVE",
"1078 406 CURVE SMOOTH",
"1078 680 OFFCURVE",
"842 808 OFFCURVE",
"672 842 CURVE SMOOTH",
"503 876 OFFCURVE",
"400 946 OFFCURVE",
"400 1083 CURVE SMOOTH",
"400 1204 OFFCURVE",
"484 1284 OFFCURVE",
"629 1284 CURVE SMOOTH",
"791 1284 OFFCURVE",
"883 1178 OFFCURVE",
"892 969 CURVE",
"1020 969 LINE",
"1082 1371 LINE",
"957 1371 LINE",
"896 1213 LINE",
"992 1213 LINE",
"869 1321 OFFCURVE",
"741 1385 OFFCURVE",
"564 1385 CURVE SMOOTH",
"293 1385 OFFCURVE",
"86 1247 OFFCURVE",
"86 983 CURVE SMOOTH",
"86 739 OFFCURVE",
"257 614 OFFCURVE",
"471 571 CURVE SMOOTH",
"651 535 OFFCURVE",
"752 430 OFFCURVE",
"752 292 CURVE SMOOTH",
"752 185 OFFCURVE",
"692 74 OFFCURVE",
"547 74 CURVE SMOOTH",
"367 74 OFFCURVE",
"223 245 OFFCURVE",
"223 454 CURVE",
"104 467 LINE",
"50 113 LINE",
"175 5 OFFCURVE",
"390 -27 OFFCURVE",
"543 -27 CURVE SMOOTH"
);
}
);
width = 1134;
},
{
anchors = (
{
name = bottom;
position = "{555, 0}";
},
{
name = top;
position = "{580, 1358}";
}
);
guideLines = (
{
angle = 75.3276;
position = "{607, 817}";
showMeasurement = 1;
},
{
angle = 166.4296;
position = "{572, 814}";
}
);
layerId = "263E301B-CB05-4AC6-937D-92FF8A6DC5EF";
paths = (
{
closed = 1;
nodes = (
"850 -27 OFFCURVE",
"1021 142 OFFCURVE",
"1021 378 CURVE SMOOTH",
"1021 693 OFFCURVE",
"731 776 OFFCURVE",
"588 810 CURVE SMOOTH",
"412 852 OFFCURVE",
"336 933 OFFCURVE",
"336 1079 CURVE SMOOTH",
"336 1234 OFFCURVE",
"437 1305 OFFCURVE",
"588 1305 CURVE SMOOTH",
"733 1305 OFFCURVE",
"861 1218 OFFCURVE",
"889 967 CURVE",
"977 967 LINE",
"1037 1371 LINE",
"950 1371 LINE",
"892 1214 LINE",
"958 1214 LINE",
"833 1343 OFFCURVE",
"698 1385 OFFCURVE",
"567 1385 CURVE SMOOTH",
"331 1385 OFFCURVE",
"151 1254 OFFCURVE",
"151 1017 CURVE SMOOTH",
"151 804 OFFCURVE",
"280 678 OFFCURVE",
"523 620 CURVE SMOOTH",
"686 581 OFFCURVE",
"836 495 OFFCURVE",
"836 308 CURVE SMOOTH",
"836 161 OFFCURVE",
"736 53 OFFCURVE",
"573 53 CURVE SMOOTH",
"387 53 OFFCURVE",
"247 197 OFFCURVE",
"247 464 CURVE",
"161 472 LINE",
"110 102 LINE",
"256 6 OFFCURVE",
"398 -27 OFFCURVE",
"538 -27 CURVE SMOOTH"
);
}
);
width = 1151;
},
{
anchors = (
{
name = bottom;
position = "{500, 0}";
},
{
name = top;
position = "{547, 1358}";
}
);
guideLines = (
{
angle = 68.8896;
position = "{529, 724}";
showMeasurement = 1;
},
{
angle = 158.8896;
position = "{504, 615}";
},
{
angle = 158.8896;
position = "{603, 781}";
}
);
layerId = "6B146B31-FE8A-4408-B9B5-0C900DD2277D";
paths = (
{
closed = 1;
nodes = (
"768 -27 OFFCURVE",
"937 142 OFFCURVE",
"937 377 CURVE SMOOTH",
"937 625 OFFCURVE",
"761 720 OFFCURVE",
"588 787 CURVE SMOOTH",
"445 842 OFFCURVE",
"305 907 OFFCURVE",
"305 1077 CURVE SMOOTH",
"305 1222 OFFCURVE",
"409 1316 OFFCURVE",
"545 1316 CURVE SMOOTH",
"673 1316 OFFCURVE",
"808 1226 OFFCURVE",
"818 967 CURVE",
"888 967 LINE",
"945 1371 LINE",
"874 1371 LINE",
"823 1203 LINE",
"880 1203 LINE",
"771 1344 OFFCURVE",
"639 1385 OFFCURVE",
"522 1385 CURVE SMOOTH",
"296 1385 OFFCURVE",
"130 1240 OFFCURVE",
"130 1017 CURVE SMOOTH",
"130 794 OFFCURVE",
"297 694 OFFCURVE",
"464 630 CURVE SMOOTH",
"613 573 OFFCURVE",
"762 492 OFFCURVE",
"762 311 CURVE SMOOTH",
"762 159 OFFCURVE",
"657 42 OFFCURVE",
"492 42 CURVE SMOOTH",
"326 42 OFFCURVE",
"199 167 OFFCURVE",
"199 464 CURVE",
"132 473 LINE",
"91 153 LINE",
"186 25 OFFCURVE",
"345 -27 OFFCURVE",
"495 -27 CURVE SMOOTH"
);
}
);
width = 1038;
},
{
anchors = (
{
name = bottom;
position = "{536, 0}";
},
{
name = top;
position = "{560, 1358}";
}
);
guideLines = (
{
angle = 78.8738;
position = "{586, 850}";
showMeasurement = 1;
},
{
angle = 168.8738;
position = "{814, 495}";
},
{
angle = 168.8738;
position = "{424, 891}";
}
);
layerId = "5E933A09-8E8D-4B36-A510-2D2E8DB125C4";
paths = (
{
closed = 1;
nodes = (
"840 -27 OFFCURVE",
"1044 133 OFFCURVE",
"1044 412 CURVE SMOOTH",
"1044 732 OFFCURVE",
"786 827 OFFCURVE",
"633 857 CURVE SMOOTH",
"486 886 OFFCURVE",
"393 939 OFFCURVE",
"393 1074 CURVE SMOOTH",
"393 1202 OFFCURVE",
"476 1280 OFFCURVE",
"612 1280 CURVE SMOOTH",
"771 1280 OFFCURVE",
"853 1173 OFFCURVE",
"857 969 CURVE",
"983 969 LINE",
"1044 1370 LINE",
"918 1370 LINE",
"859 1215 LINE",
"953 1215 LINE",
"838 1319 OFFCURVE",
"718 1384 OFFCURVE",
"545 1384 CURVE SMOOTH",
"283 1384 OFFCURVE",
"77 1245 OFFCURVE",
"77 982 CURVE SMOOTH",
"77 739 OFFCURVE",
"267 594 OFFCURVE",
"481 552 CURVE SMOOTH",
"683 512 OFFCURVE",
"728 413 OFFCURVE",
"728 308 CURVE SMOOTH",
"728 152 OFFCURVE",
"631 77 OFFCURVE",
"498 77 CURVE SMOOTH",
"301 77 OFFCURVE",
"212 251 OFFCURVE",
"212 452 CURVE",
"97 466 LINE",
"45 113 LINE",
"162 5 OFFCURVE",
"357 -27 OFFCURVE",
"509 -27 CURVE SMOOTH"
);
}
);
width = 1095;
}
);
leftKerningGroup = S;
note = S;
rightKerningGroup = S;
unicode = 0053;
},
{
glyphname = uni1E9E;
lastChange = "2019-12-22 19:44:27 +0000";
layers = (
{
anchors = (
{
name = bottom;
position = "{774, 0}";
},
{
name = top;
position = "{774, 1358}";
}
);
layerId = "C5B93EC9-9EB6-4975-AE33-1741B73E6074";
paths = (
{
closed = 1;
nodes = (
"1273 -32 OFFCURVE",
"1451 127 OFFCURVE",
"1451 372 CURVE SMOOTH",
"1451 595 OFFCURVE",
"1264 739 OFFCURVE",
"984 739 CURVE",
"995 719 LINE",
"1357 1291 LINE",
"1339 1327 LINE",
"1224 1365 OFFCURVE",
"1100 1385 OFFCURVE",
"954 1385 CURVE SMOOTH",
"532 1385 OFFCURVE",
"239 1203 OFFCURVE",
"239 770 CURVE SMOOTH",
"239 29 LINE",
"426 29 LINE",
"426 738 LINE SMOOTH",
"426 1093 OFFCURVE",
"566 1313 OFFCURVE",
"902 1313 CURVE SMOOTH",
"989 1313 OFFCURVE",
"1097 1294 OFFCURVE",
"1143 1235 CURVE",
"1156 1289 LINE",
"811 720 LINE",
"834 677 LINE",
"1092 677 OFFCURVE",
"1256 553 OFFCURVE",
"1256 354 CURVE SMOOTH",
"1256 181 OFFCURVE",
"1189 50 OFFCURVE",
"1033 50 CURVE SMOOTH",
"882 50 OFFCURVE",
"778 178 OFFCURVE",
"755 374 CURVE",
"668 374 LINE",
"668 275 OFFCURVE",
"683 181 OFFCURVE",
"718 76 CURVE",
"786 12 OFFCURVE",
"903 -32 OFFCURVE",
"1017 -32 CURVE SMOOTH"
);
},
{
closed = 1;
nodes = (
"614 0 LINE",
"614 58 LINE",
"344 88 LINE",
"51 58 LINE",
"51 0 LINE"
);
}
);
width = 1482;
},
{
anchors = (
{
name = bottom;
position = "{750, 0}";
},
{
name = top;
position = "{750, 1358}";
}
);
layerId = "5F1B95D2-E37F-4604-99C9-24FF8B5B0DBF";
paths = (
{
closed = 1;
nodes = (
"1219 -36 OFFCURVE",
"1381 133 OFFCURVE",
"1381 372 CURVE SMOOTH",
"1381 587 OFFCURVE",
"1208 739 OFFCURVE",
"945 739 CURVE",
"940 723 LINE",
"1297 1286 LINE",
"1276 1331 LINE",
"1153 1368 OFFCURVE",
"1053 1385 OFFCURVE",
"927 1385 CURVE SMOOTH",
"518 1385 OFFCURVE",
"261 1187 OFFCURVE",
"261 770 CURVE SMOOTH",
"261 22 LINE",
"363 22 LINE",
"363 738 LINE SMOOTH",
"363 1120 OFFCURVE",
"533 1343 OFFCURVE",
"876 1343 CURVE SMOOTH",
"957 1343 OFFCURVE",
"1084 1318 OFFCURVE",
"1135 1232 CURVE",
"1159 1292 LINE",
"812 719 LINE",
"818 688 LINE",
"1077 688 OFFCURVE",
"1257 553 OFFCURVE",
"1257 365 CURVE SMOOTH",
"1257 179 OFFCURVE",
"1177 6 OFFCURVE",
"1003 6 CURVE SMOOTH",
"831 6 OFFCURVE",
"717 158 OFFCURVE",
"693 374 CURVE",
"653 374 LINE",
"653 275 OFFCURVE",
"670 174 OFFCURVE",
"704 72 CURVE",
"778 6 OFFCURVE",
"876 -36 OFFCURVE",
"983 -36 CURVE SMOOTH"
);
},
{
closed = 1;
nodes = (
"567 0 LINE",
"567 40 LINE",
"316 60 LINE",
"57 40 LINE",
"57 0 LINE"
);
}
);
width = 1417;
},
{
anchors = (
{
name = bottom;
position = "{822, 0}";
},
{
name = top;
position = "{822, 1358}";
}
);
layerId = "D7B0979E-F273-40C0-A245-443BBF311E2D";
paths = (
{
closed = 1;
nodes = (
"1381 -24 OFFCURVE",
"1591 115 OFFCURVE",
"1591 372 CURVE SMOOTH",
"1591 611 OFFCURVE",
"1376 739 OFFCURVE",
"1062 739 CURVE",
"1105 711 LINE",
"1477 1301 LINE",
"1465 1319 LINE",
"1366 1359 OFFCURVE",
"1194 1385 OFFCURVE",
"1008 1385 CURVE SMOOTH",
"560 1385 OFFCURVE",
"195 1235 OFFCURVE",
"195 770 CURVE SMOOTH",
"195 43 LINE",
"552 43 LINE",
"552 738 LINE SMOOTH",
"552 1061 OFFCURVE",
"632 1287 OFFCURVE",
"954 1287 CURVE SMOOTH",
"1053 1287 OFFCURVE",
"1123 1272 OFFCURVE",
"1159 1241 CURVE",
"1150 1283 LINE",
"809 722 LINE",
"866 655 LINE",
"1122 655 OFFCURVE",
"1254 553 OFFCURVE",
"1254 332 CURVE SMOOTH",
"1254 153 OFFCURVE",
"1213 76 OFFCURVE",
"1093 76 CURVE SMOOTH",
"970 76 OFFCURVE",
"878 182 OFFCURVE",
"855 374 CURVE",
"698 374 LINE",
"698 275 OFFCURVE",
"709 195 OFFCURVE",
"746 84 CURVE",
"802 24 OFFCURVE",
"957 -24 OFFCURVE",
"1085 -24 CURVE SMOOTH"
);
},
{
closed = 1;
nodes = (
"708 0 LINE",
"708 86 LINE",
"400 116 LINE",
"39 86 LINE",
"39 0 LINE"
);
}
);
width = 1610;
},
{
anchors = (
{
name = bottom;
position = "{795, 0}";
},
{
name = top;
position = "{795, 1358}";
}
);
layerId = "263E301B-CB05-4AC6-937D-92FF8A6DC5EF";
paths = (
{
closed = 1;
nodes = (
"1309 -32 OFFCURVE",
"1493 127 OFFCURVE",
"1493 372 CURVE SMOOTH",
"1493 595 OFFCURVE",
"1300 739 OFFCURVE",
"1010 739 CURVE",
"1022 719 LINE",
"1396 1291 LINE",
"1378 1327 LINE",
"1258 1364 OFFCURVE",
"1130 1385 OFFCURVE",
"978 1385 CURVE SMOOTH",
"547 1385 OFFCURVE",
"239 1208 OFFCURVE",
"239 770 CURVE SMOOTH",
"239 30 LINE",
"433 30 LINE",
"433 738 LINE SMOOTH",
"433 1096 OFFCURVE",
"581 1312 OFFCURVE",
"924 1312 CURVE SMOOTH",
"1015 1312 OFFCURVE",
"1128 1294 OFFCURVE",
"1183 1228 CURVE",
"1196 1289 LINE",
"839 720 LINE",
"854 675 LINE",
"1126 675 OFFCURVE",
"1298 553 OFFCURVE",
"1298 353 CURVE SMOOTH",
"1298 180 OFFCURVE",
"1226 50 OFFCURVE",
"1061 50 CURVE SMOOTH",
"905 50 OFFCURVE",
"798 175 OFFCURVE",
"774 374 CURVE",
"683 374 LINE",
"683 275 OFFCURVE",
"697 181 OFFCURVE",
"734 76 CURVE",
"804 12 OFFCURVE",
"925 -32 OFFCURVE",
"1044 -32 CURVE SMOOTH"
);
},
{
closed = 1;
nodes = (
"621 0 LINE",
"621 59 LINE",
"347 89 LINE",
"51 59 LINE",
"51 0 LINE"
);
}
);
width = 1529;
},
{
anchors = (
{
name = bottom;
position = "{751, 0}";
},
{
name = top;
position = "{751, 1358}";
}
);
layerId = "6B146B31-FE8A-4408-B9B5-0C900DD2277D";
paths = (
{
closed = 1;
nodes = (
"1234 -33 OFFCURVE",
"1406 127 OFFCURVE",
"1406 372 CURVE SMOOTH",
"1406 594 OFFCURVE",
"1225 739 OFFCURVE",
"956 739 CURVE",
"965 720 LINE",
"1315 1291 LINE",
"1297 1327 LINE",
"1186 1365 OFFCURVE",
"1068 1385 OFFCURVE",
"928 1385 CURVE SMOOTH",
"516 1385 OFFCURVE",
"240 1197 OFFCURVE",
"240 770 CURVE SMOOTH",
"240 28 LINE",
"415 28 LINE",
"415 738 LINE SMOOTH",
"415 1090 OFFCURVE",
"550 1314 OFFCURVE",
"878 1314 CURVE SMOOTH",
"961 1314 OFFCURVE",
"1065 1294 OFFCURVE",
"1102 1242 CURVE",
"1116 1290 LINE",
"782 720 LINE",
"814 679 LINE",
"1057 679 OFFCURVE",
"1214 553 OFFCURVE",
"1214 355 CURVE SMOOTH",
"1214 183 OFFCURVE",
"1151 49 OFFCURVE",
"1004 49 CURVE SMOOTH",
"856 49 OFFCURVE",
"756 181 OFFCURVE",
"734 374 CURVE",
"652 374 LINE",
"652 275 OFFCURVE",
"668 180 OFFCURVE",
"701 75 CURVE",
"767 12 OFFCURVE",
"879 -33 OFFCURVE",
"988 -33 CURVE SMOOTH"
);
},
{
closed = 1;
nodes = (
"604 0 LINE",
"604 56 LINE",
"339 86 LINE",
"51 56 LINE",
"51 0 LINE"
);
}
);
width = 1437;
},
{
anchors = (
{
name = bottom;
position = "{730, 0}";
},
{
name = top;
position = "{730, 1358}";
}
);
layerId = "5E933A09-8E8D-4B36-A510-2D2E8DB125C4";
paths = (
{
closed = 1;
nodes = (
"1271 -25 OFFCURVE",
"1464 113 OFFCURVE",
"1464 373 CURVE SMOOTH",
"1464 612 OFFCURVE",
"1259 739 OFFCURVE",
"957 739 CURVE",
"1004 712 LINE",
"1352 1303 LINE",
"1341 1317 LINE",
"1254 1357 OFFCURVE",
"1088 1384 OFFCURVE",
"905 1384 CURVE SMOOTH",
"504 1384 OFFCURVE",
"153 1195 OFFCURVE",
"153 770 CURVE SMOOTH",
"153 43 LINE",
"496 43 LINE",
"496 737 LINE SMOOTH",
"496 893 OFFCURVE",
"503 1285 OFFCURVE",
"857 1285 CURVE SMOOTH",
"946 1285 OFFCURVE",
"1010 1274 OFFCURVE",
"1045 1242 CURVE",
"1031 1284 LINE",
"714 722 LINE",
"768 655 LINE",
"1009 655 OFFCURVE",
"1130 552 OFFCURVE",
"1130 331 CURVE SMOOTH",
"1130 159 OFFCURVE",
"1083 79 OFFCURVE",
"973 79 CURVE SMOOTH",
"865 79 OFFCURVE",
"783 188 OFFCURVE",
"763 375 CURVE",
"629 375 LINE",
"629 269 OFFCURVE",
"643 195 OFFCURVE",
"674 83 CURVE",
"724 26 OFFCURVE",
"875 -25 OFFCURVE",
"992 -25 CURVE SMOOTH"
);
},
{
closed = 1;
nodes = (
"614 0 LINE",
"614 87 LINE",
"333 117 LINE",
"38 87 LINE",
"38 0 LINE"
);
}
);
width = 1482;
}
);
note = uni1E9E;
rightKerningGroup = capdbls;
rightMetricsKey = "=H/2";
unicode = 1E9E;
},
{
glyphname = T;
lastChange = "2019-12-22 19:44:51 +0000";
layers = (
{
anchors = (
{
name = bottom;
position = "{750, 0}";
},
{
name = center;
position = "{759, 679}";
},
{
name = overlay;
position = "{759, 678}";
},
{
name = top;
position = "{750, 1358}";
}
);
layerId = "C5B93EC9-9EB6-4975-AE33-1741B73E6074";
paths = (
{
closed = 1;
nodes = (
"849 29 LINE",
"849 1283 LINE",
"1169 1283 LINE SMOOTH",
"1249 1283 OFFCURVE",
"1289 1268 OFFCURVE",
"1314 1217 CURVE SMOOTH",
"1411 1019 LINE",
"1476 1019 LINE",
"1450 1114 OFFCURVE",
"1425 1273 OFFCURVE",
"1425 1304 CURVE SMOOTH",
"1425 1329 OFFCURVE",
"1426 1359 OFFCURVE",
"1437 1386 CURVE",
"1372 1394 LINE",
"1346 1368 OFFCURVE",
"1305 1358 OFFCURVE",
"1272 1358 CURVE",
"270 1358 LINE",
"241 1358 OFFCURVE",
"203 1371 OFFCURVE",
"183 1401 CURVE",
"122 1401 LINE",
"21 1025 LINE",
"87 1025 LINE",
"210 1219 LINE SMOOTH",
"243 1271 OFFCURVE",
"285 1283 OFFCURVE",
"386 1283 CURVE SMOOTH",
"662 1283 LINE",
"662 29 LINE"
);
},
{
closed = 1;
nodes = (
"1044 0 LINE",
"1044 58 LINE",
"757 88 LINE",
"468 58 LINE",
"468 0 LINE"
);
}
);
width = 1499;
},
{
anchors = (
{
name = bottom;
position = "{755, 0}";
},
{
name = center;
position = "{755, 679}";
},
{
name = overlay;
position = "{755, 674}";
},
{
name = top;
position = "{755, 1358}";
}
);
layerId = "5F1B95D2-E37F-4604-99C9-24FF8B5B0DBF";
paths = (
{
closed = 1;
nodes = (
"801 22 LINE",
"801 1318 LINE",
"1174 1318 LINE SMOOTH",
"1261 1318 OFFCURVE",
"1306 1303 OFFCURVE",
"1332 1242 CURVE SMOOTH",
"1427 1019 LINE",
"1467 1019 LINE",
"1440 1112 OFFCURVE",
"1415 1264 OFFCURVE",
"1415 1295 CURVE SMOOTH",
"1415 1323 OFFCURVE",
"1416 1346 OFFCURVE",
"1430 1376 CURVE",
"1383 1390 LINE",
"1358 1368 OFFCURVE",
"1321 1358 OFFCURVE",
"1289 1358 CURVE SMOOTH",
"264 1358 LINE SMOOTH",
"237 1358 OFFCURVE",
"190 1372 OFFCURVE",
"169 1399 CURVE",
"120 1399 LINE",
"22 1029 LINE",
"62 1029 LINE",
"185 1245 LINE SMOOTH",
"221 1309 OFFCURVE",
"260 1318 OFFCURVE",
"328 1318 CURVE SMOOTH",
"699 1318 LINE",
"699 22 LINE"
);
},
{
closed = 1;
nodes = (
"1002 0 LINE",
"1002 40 LINE",
"753 60 LINE",
"498 40 LINE",
"498 0 LINE"
);
}
);
width = 1493;
},
{
anchors = (
{
name = bottom;
position = "{740, 0}";
},
{
name = center;
position = "{767, 679}";
},
{
name = overlay;
position = "{767, 686}";
},
{
name = top;
position = "{740, 1358}";
}
);
layerId = "D7B0979E-F273-40C0-A245-443BBF311E2D";
paths = (
{
closed = 1;
nodes = (
"945 43 LINE",
"945 1249 LINE",
"1163 1249 LINE SMOOTH",
"1229 1249 OFFCURVE",
"1263 1234 OFFCURVE",
"1282 1203 CURVE SMOOTH",
"1383 1019 LINE",
"1494 1019 LINE",
"1470 1118 OFFCURVE",
"1445 1291 OFFCURVE",
"1445 1322 CURVE SMOOTH",
"1445 1341 OFFCURVE",
"1446 1385 OFFCURVE",
"1451 1406 CURVE",
"1350 1402 LINE",
"1322 1368 OFFCURVE",
"1273 1358 OFFCURVE",
"1238 1358 CURVE",
"282 1358 LINE",
"249 1358 OFFCURVE",
"229 1369 OFFCURVE",
"211 1405 CURVE",
"126 1405 LINE",
"19 1017 LINE",
"131 1017 LINE",
"254 1203 LINE SMOOTH",
"277 1235 OFFCURVE",
"329 1249 OFFCURVE",
"496 1249 CURVE SMOOTH",
"588 1249 LINE",
"588 43 LINE"
);
},
{
closed = 1;
nodes = (
"1128 0 LINE",
"1128 86 LINE",
"765 116 LINE",
"408 86 LINE",
"408 0 LINE"
);
}
);
width = 1511;
},
{
anchors = (
{
name = bottom;
position = "{770, 0}";
},
{
name = center;
position = "{779, 679}";
},
{
name = overlay;
position = "{779, 678}";
},
{
name = top;
position = "{770, 1358}";
}
);
layerId = "263E301B-CB05-4AC6-937D-92FF8A6DC5EF";
paths = (
{
closed = 1;
nodes = (
"872 30 LINE",
"872 1279 LINE",
"1196 1279 LINE SMOOTH",
"1277 1279 OFFCURVE",
"1318 1260 OFFCURVE",
"1341 1218 CURVE SMOOTH",
"1449 1016 LINE",
"1520 1016 LINE",
"1494 1111 OFFCURVE",
"1468 1274 OFFCURVE",
"1468 1305 CURVE SMOOTH",
"1468 1329 OFFCURVE",
"1469 1360 OFFCURVE",
"1479 1387 CURVE",
"1412 1394 LINE",
"1386 1368 OFFCURVE",
"1342 1358 OFFCURVE",
"1308 1358 CURVE SMOOTH",
"273 1358 LINE SMOOTH",
"243 1358 OFFCURVE",
"205 1371 OFFCURVE",
"184 1401 CURVE",
"120 1401 LINE",
"19 1022 LINE",
"91 1022 LINE",
"222 1222 LINE SMOOTH",
"255 1270 OFFCURVE",
"305 1279 OFFCURVE",
"414 1279 CURVE SMOOTH",
"678 1279 LINE",
"678 30 LINE"
);
},
{
closed = 1;
nodes = (
"1068 0 LINE",
"1068 59 LINE",
"776 89 LINE",
"484 59 LINE",
"484 0 LINE"
);
}
);
width = 1538;
},
{
anchors = (
{
name = bottom;
position = "{730, 0}";
},
{
name = center;
position = "{739, 679}";
},
{
name = overlay;
position = "{739, 677}";
},
{
name = top;
position = "{730, 1358}";
}
);
layerId = "6B146B31-FE8A-4408-B9B5-0C900DD2277D";
paths = (
{
closed = 1;
nodes = (
"823 28 LINE",
"823 1288 LINE",
"1142 1288 LINE SMOOTH",
"1221 1288 OFFCURVE",
"1261 1277 OFFCURVE",
"1287 1216 CURVE SMOOTH",
"1374 1021 LINE",
"1431 1021 LINE",
"1406 1116 OFFCURVE",
"1382 1271 OFFCURVE",
"1382 1302 CURVE SMOOTH",
"1382 1329 OFFCURVE",
"1383 1358 OFFCURVE",
"1394 1384 CURVE",
"1332 1393 LINE",
"1307 1368 OFFCURVE",
"1268 1358 OFFCURVE",
"1236 1358 CURVE SMOOTH",
"266 1358 LINE SMOOTH",
"238 1358 OFFCURVE",
"201 1371 OFFCURVE",
"181 1401 CURVE",
"123 1401 LINE",
"23 1028 LINE",
"81 1028 LINE",
"196 1217 LINE SMOOTH",
"230 1272 OFFCURVE",
"264 1288 OFFCURVE",
"356 1288 CURVE SMOOTH",
"648 1288 LINE",
"648 28 LINE"
);
},
{
closed = 1;
nodes = (
"1017 0 LINE",
"1017 56 LINE",
"738 86 LINE",
"454 56 LINE",
"454 0 LINE"
);
}
);
width = 1459;
},
{
anchors = (
{
name = bottom;
position = "{782, 0}";
},
{
name = center;
position = "{762, 683}";
},
{
name = overlay;
position = "{762, 686}";
},
{
name = top;
position = "{753, 1358}";
}
);
layerId = "5E933A09-8E8D-4B36-A510-2D2E8DB125C4";
paths = (
{
closed = 1;
nodes = (
"934 43 LINE",
"934 1247 LINE",
"1168 1247 LINE SMOOTH",
"1242 1247 OFFCURVE",
"1273 1230 OFFCURVE",
"1290 1203 CURVE SMOOTH",
"1390 1020 LINE",
"1483 1020 LINE",
"1457 1124 OFFCURVE",
"1433 1296 OFFCURVE",
"1433 1324 CURVE SMOOTH",
"1433 1343 OFFCURVE",
"1433 1387 OFFCURVE",
"1439 1408 CURVE",
"1333 1401 LINE",
"1300 1366 OFFCURVE",
"1251 1358 OFFCURVE",
"1216 1358 CURVE SMOOTH",
"289 1358 LINE SMOOTH",
"255 1358 OFFCURVE",
"234 1369 OFFCURVE",
"215 1408 CURVE",
"129 1408 LINE",
"18 1017 LINE",
"110 1017 LINE",
"237 1202 LINE SMOOTH",
"261 1235 OFFCURVE",
"325 1247 OFFCURVE",
"488 1247 CURVE SMOOTH",
"591 1247 LINE",
"591 43 LINE"
);
},
{
closed = 1;
nodes = (
"1115 0 LINE",
"1115 87 LINE",
"760 117 LINE",
"410 87 LINE",
"410 0 LINE"
);
}
);
width = 1499;
}
);
leftKerningGroup = T;
note = T;
rightKerningGroup = T;
unicode = 0054;
},
{
glyphname = U;
lastChange = "2019-12-22 19:45:25 +0000";
layers = (
{
anchors = (
{
name = bottom;
position = "{752, 0}";
},
{
name = ogonek;
position = "{1182, 102}";
},
{
name = top;
position = "{818, 1358}";
}
);
layerId = "C5B93EC9-9EB6-4975-AE33-1741B73E6074";
paths = (
{
closed = 1;
nodes = (
"1026 -27 OFFCURVE",
"1216 65 OFFCURVE",
"1294 256 CURVE SMOOTH",
"1333 352 OFFCURVE",
"1343 497 OFFCURVE",
"1343 733 CURVE SMOOTH",
"1343 1320 LINE",
"1213 1320 LINE",
"1213 490 LINE SMOOTH",
"1213 193 OFFCURVE",
"1083 48 OFFCURVE",
"817 48 CURVE SMOOTH",
"545 48 OFFCURVE",
"420 201 OFFCURVE",
"420 538 CURVE SMOOTH",
"420 1320 LINE",
"234 1320 LINE",
"234 541 LINE SMOOTH",
"234 336 OFFCURVE",
"274 146 OFFCURVE",
"449 44 CURVE SMOOTH",
"526 -1 OFFCURVE",
"650 -27 OFFCURVE",
"778 -27 CURVE SMOOTH"
);
},
{
closed = 1;
nodes = (
"620 1300 LINE",
"620 1358 LINE",
"44 1358 LINE",
"44 1300 LINE",
"327 1270 LINE"
);
},
{
closed = 1;
nodes = (
"1516 1300 LINE",
"1516 1358 LINE",
"1036 1358 LINE",
"1036 1300 LINE",
"1279 1270 LINE"
);
}
);
width = 1559;
},
{
anchors = (
{
name = bottom;
position = "{758, 0}";
},
{
name = ogonek;
position = "{1138, 102}";
},
{
name = top;
position = "{814, 1358}";
}
);
layerId = "5F1B95D2-E37F-4604-99C9-24FF8B5B0DBF";
paths = (
{
closed = 1;
nodes = (
"1004 -27 OFFCURVE",
"1179 79 OFFCURVE",
"1251 257 CURVE SMOOTH",
"1288 348 OFFCURVE",
"1288 494 OFFCURVE",
"1288 728 CURVE SMOOTH",
"1288 1327 LINE",
"1216 1327 LINE",
"1216 466 LINE SMOOTH",
"1216 165 OFFCURVE",
"1073 13 OFFCURVE",
"790 13 CURVE SMOOTH",
"514 13 OFFCURVE",
"375 184 OFFCURVE",
"375 522 CURVE SMOOTH",
"375 1327 LINE",
"273 1327 LINE",
"273 539 LINE SMOOTH",
"273 342 OFFCURVE",
"295 146 OFFCURVE",
"453 48 CURVE SMOOTH",
"529 1 OFFCURVE",
"628 -27 OFFCURVE",
"758 -27 CURVE SMOOTH"
);
},
{
closed = 1;
nodes = (
"576 1318 LINE",
"576 1358 LINE",
"71 1358 LINE",
"71 1318 LINE",
"324 1298 LINE"
);
},
{
closed = 1;
nodes = (
"1475 1318 LINE",
"1475 1358 LINE",
"1025 1358 LINE",
"1025 1318 LINE",
"1252 1298 LINE"
);
}
);
width = 1547;
},
{
anchors = (
{
name = bottom;
position = "{736, 0}";
},
{
name = ogonek;
position = "{1266, 102}";
},
{
name = top;
position = "{822, 1358}";
}
);
background = {
paths = (
{
closed = 1;
nodes = (
"1054 -27 OFFCURVE",
"1229 79 OFFCURVE",
"1301 257 CURVE SMOOTH",
"1338 348 OFFCURVE",
"1338 494 OFFCURVE",
"1338 728 CURVE SMOOTH",
"1338 1327 LINE",
"1266 1327 LINE",
"1266 486 LINE SMOOTH",
"1266 185 OFFCURVE",
"1123 33 OFFCURVE",
"840 33 CURVE SMOOTH",
"564 33 OFFCURVE",
"425 204 OFFCURVE",
"425 542 CURVE SMOOTH",
"425 1327 LINE",
"323 1327 LINE",
"323 539 LINE SMOOTH",
"323 342 OFFCURVE",
"345 146 OFFCURVE",
"503 48 CURVE SMOOTH",
"579 1 OFFCURVE",
"678 -27 OFFCURVE",
"808 -27 CURVE SMOOTH"
);
},
{
closed = 1;
nodes = (
"626 1314 LINE",
"626 1358 LINE",
"121 1358 LINE",
"121 1314 LINE",
"374 1284 LINE"
);
},
{
closed = 1;
nodes = (
"1525 1314 LINE",
"1525 1358 LINE",
"1075 1358 LINE",
"1075 1314 LINE",
"1302 1284 LINE"
);
}
);
};
layerId = "D7B0979E-F273-40C0-A245-443BBF311E2D";
paths = (
{
closed = 1;
nodes = (
"1062 -27 OFFCURVE",
"1273 37 OFFCURVE",
"1362 254 CURVE SMOOTH",
"1405 359 OFFCURVE",
"1433 503 OFFCURVE",
"1433 743 CURVE SMOOTH",
"1433 1306 LINE",
"1186 1306 LINE",
"1186 498 LINE SMOOTH",
"1186 209 OFFCURVE",
"1087 78 OFFCURVE",
"866 78 CURVE SMOOTH",
"628 78 OFFCURVE",
"541 195 OFFCURVE",
"541 530 CURVE SMOOTH",
"541 1306 LINE",
"184 1306 LINE",
"184 545 LINE SMOOTH",
"184 324 OFFCURVE",
"257 145 OFFCURVE",
"457 36 CURVE SMOOTH",
"532 -5 OFFCURVE",
"698 -27 OFFCURVE",
"816 -27 CURVE SMOOTH"
);
},
{
closed = 1;
nodes = (
"711 1272 LINE",
"711 1358 LINE",
"26 1358 LINE",
"26 1272 LINE",
"353 1242 LINE"
);
},
{
closed = 1;
nodes = (
"1574 1272 LINE",
"1574 1358 LINE",
"1048 1358 LINE",
"1048 1272 LINE",
"1316 1242 LINE"
);
}
);
width = 1600;
},
{
anchors = (
{
name = bottom;
position = "{778, 0}";
},
{
name = ogonek;
position = "{1223, 102}";
},
{
name = top;
position = "{844, 1358}";
}
);
layerId = "263E301B-CB05-4AC6-937D-92FF8A6DC5EF";
paths = (
{
closed = 1;
nodes = (
"1065 -27 OFFCURVE",
"1264 65 OFFCURVE",
"1343 263 CURVE SMOOTH",
"1381 362 OFFCURVE",
"1392 498 OFFCURVE",
"1392 733 CURVE SMOOTH",
"1392 1318 LINE",
"1256 1318 LINE",
"1256 490 LINE SMOOTH",
"1256 193 OFFCURVE",
"1123 49 OFFCURVE",
"853 49 CURVE SMOOTH",
"568 49 OFFCURVE",
"437 201 OFFCURVE",
"437 538 CURVE SMOOTH",
"437 1318 LINE",
"244 1318 LINE",
"244 541 LINE SMOOTH",
"244 389 OFFCURVE",
"264 164 OFFCURVE",
"465 45 CURVE SMOOTH",
"547 -3 OFFCURVE",
"676 -27 OFFCURVE",
"805 -27 CURVE SMOOTH"
);
},
{
closed = 1;
nodes = (
"638 1299 LINE",
"638 1358 LINE",
"54 1358 LINE",
"54 1299 LINE",
"339 1269 LINE"
);
},
{
closed = 1;
nodes = (
"1558 1299 LINE",
"1558 1358 LINE",
"1087 1358 LINE",
"1087 1299 LINE",
"1321 1269 LINE"
);
}
);
width = 1611;
},
{
anchors = (
{
name = bottom;
position = "{725, 0}";
},
{
name = ogonek;
position = "{1138, 102}";
},
{
name = top;
position = "{791, 1358}";
}
);
layerId = "6B146B31-FE8A-4408-B9B5-0C900DD2277D";
paths = (
{
closed = 1;
nodes = (
"985 -27 OFFCURVE",
"1165 65 OFFCURVE",
"1243 249 CURVE SMOOTH",
"1282 341 OFFCURVE",
"1290 496 OFFCURVE",
"1290 732 CURVE SMOOTH",
"1290 1323 LINE",
"1169 1323 LINE",
"1169 490 LINE SMOOTH",
"1169 192 OFFCURVE",
"1041 46 OFFCURVE",
"778 46 CURVE SMOOTH",
"520 46 OFFCURVE",
"400 202 OFFCURVE",
"400 538 CURVE SMOOTH",
"400 1323 LINE",
"225 1323 LINE",
"225 541 LINE SMOOTH",
"225 283 OFFCURVE",
"285 128 OFFCURVE",
"432 44 CURVE SMOOTH",
"504 2 OFFCURVE",
"623 -27 OFFCURVE",
"749 -27 CURVE SMOOTH"
);
},
{
closed = 1;
nodes = (
"599 1302 LINE",
"599 1358 LINE",
"34 1358 LINE",
"34 1302 LINE",
"313 1272 LINE"
);
},
{
closed = 1;
nodes = (
"1472 1302 LINE",
"1472 1358 LINE",
"983 1358 LINE",
"983 1302 LINE",
"1234 1272 LINE"
);
}
);
width = 1506;
},
{
anchors = (
{
name = bottom;
position = "{716, 0}";
},
{
name = ogonek;
position = "{1222, 102}";
},
{
name = top;
position = "{801, 1358}";
}
);
layerId = "5E933A09-8E8D-4B36-A510-2D2E8DB125C4";
paths = (
{
closed = 1;
nodes = (
"1033 -27 OFFCURVE",
"1240 33 OFFCURVE",
"1328 256 CURVE SMOOTH",
"1373 370 OFFCURVE",
"1396 522 OFFCURVE",
"1396 743 CURVE SMOOTH",
"1396 1306 LINE",
"1168 1306 LINE",
"1168 500 LINE SMOOTH",
"1168 211 OFFCURVE",
"1067 79 OFFCURVE",
"848 79 CURVE SMOOTH",
"611 79 OFFCURVE",
"527 197 OFFCURVE",
"527 528 CURVE SMOOTH",
"527 1306 LINE",
"183 1306 LINE",
"183 548 LINE SMOOTH",
"183 363 OFFCURVE",
"220 161 OFFCURVE",
"452 36 CURVE SMOOTH",
"524 -2 OFFCURVE",
"675 -27 OFFCURVE",
"795 -27 CURVE SMOOTH"
);
},
{
closed = 1;
nodes = (
"694 1271 LINE",
"694 1358 LINE",
"26 1358 LINE",
"26 1271 LINE",
"344 1241 LINE"
);
},
{
closed = 1;
nodes = (
"1534 1271 LINE",
"1534 1358 LINE",
"1027 1358 LINE",
"1027 1271 LINE",
"1270 1241 LINE"
);
}
);
width = 1559;
}
);
leftKerningGroup = U;
note = U;
rightKerningGroup = U;
unicode = 0055;
},
